<svg width="468" height="256" viewBox="0 0 468 256" fill="none" xmlns="http://www.w3.org/2000/svg">
<path d="M-11 8C-11 4.13401 -14.134 1 -18 1C-21.866 1 -25 4.13401 -25 8C-25 11.866 -21.866 15 -18 15V16C-22.4183 16 -26 12.4183 -26 8C-26 3.58172 -22.4183 0 -18 0C-13.5817 0 -10 3.58172 -10 8C-10 12.4183 -13.5817 16 -18 16V15C-14.134 15 -11 11.866 -11 8Z" fill="#AABF9E"/>
<path d="M37 8C37 4.13401 33.866 1 30 1C26.134 1 23 4.13401 23 8C23 11.866 26.134 15 30 15V16C25.5817 16 22 12.4183 22 8C22 3.58172 25.5817 0 30 0C34.4183 0 38 3.58172 38 8C38 12.4183 34.4183 16 30 16V15C33.866 15 37 11.866 37 8Z" fill="#AABF9E"/>
<path d="M85 8C85 4.13401 81.866 1 78 1C74.134 1 71 4.13401 71 8C71 11.866 74.134 15 78 15V16C73.5817 16 70 12.4183 70 8C70 3.58172 73.5817 0 78 0C82.4183 0 86 3.58172 86 8C86 12.4183 82.4183 16 78 16V15C81.866 15 85 11.866 85 8Z" fill="#AABF9E"/>
<path d="M133 8C133 4.13401 129.866 1 126 1C122.134 1 119 4.13401 119 8C119 11.866 122.134 15 126 15V16C121.582 16 118 12.4183 118 8C118 3.58172 121.582 0 126 0C130.418 0 134 3.58172 134 8C134 12.4183 130.418 16 126 16V15C129.866 15 133 11.866 133 8Z" fill="#AABF9E"/>
<path d="M181 8C181 4.13401 177.866 1 174 1C170.134 1 167 4.13401 167 8C167 11.866 170.134 15 174 15V16C169.582 16 166 12.4183 166 8C166 3.58172 169.582 0 174 0C178.418 0 182 3.58172 182 8C182 12.4183 178.418 16 174 16V15C177.866 15 181 11.866 181 8Z" fill="#AABF9E"/>
<path d="M229 8C229 4.13401 225.866 1 222 1C218.134 1 215 4.13401 215 8C215 11.866 218.134 15 222 15V16C217.582 16 214 12.4183 214 8C214 3.58172 217.582 0 222 0C226.418 0 230 3.58172 230 8C230 12.4183 226.418 16 222 16V15C225.866 15 229 11.866 229 8Z" fill="#AABF9E"/>
<path d="M277 8C277 4.13401 273.866 1 270 1C266.134 1 263 4.13401 263 8C263 11.866 266.134 15 270 15V16C265.582 16 262 12.4183 262 8C262 3.58172 265.582 0 270 0C274.418 0 278 3.58172 278 8C278 12.4183 274.418 16 270 16V15C273.866 15 277 11.866 277 8Z" fill="#AABF9E"/>
<path d="M325 8C325 4.13401 321.866 1 318 1C314.134 1 311 4.13401 311 8C311 11.866 314.134 15 318 15V16C313.582 16 310 12.4183 310 8C310 3.58172 313.582 0 318 0C322.418 0 326 3.58172 326 8C326 12.4183 322.418 16 318 16V15C321.866 15 325 11.866 325 8Z" fill="#AABF9E"/>
<path d="M373 8C373 4.13401 369.866 1 366 1C362.134 1 359 4.13401 359 8C359 11.866 362.134 15 366 15V16C361.582 16 358 12.4183 358 8C358 3.58172 361.582 0 366 0C370.418 0 374 3.58172 374 8C374 12.4183 370.418 16 366 16V15C369.866 15 373 11.866 373 8Z" fill="#AABF9E"/>
<path d="M421 8C421 4.13401 417.866 1 414 1C410.134 1 407 4.13401 407 8C407 11.866 410.134 15 414 15V16C409.582 16 406 12.4183 406 8C406 3.58172 409.582 0 414 0C418.418 0 422 3.58172 422 8C422 12.4183 418.418 16 414 16V15C417.866 15 421 11.866 421 8Z" fill="#AABF9E"/>
<path d="M469 8C469 4.13401 465.866 1 462 1C458.134 1 455 4.13401 455 8C455 11.866 458.134 15 462 15V16C457.582 16 454 12.4183 454 8C454 3.58172 457.582 0 462 0C466.418 0 470 3.58172 470 8C470 12.4183 466.418 16 462 16V15C465.866 15 469 11.866 469 8Z" fill="#AABF9E"/>
<path d="M6 25C2.13401 25 -1 28.134 -1 32C-1 35.866 2.13401 39 6 39C9.86599 39 13 35.866 13 32H14C14 36.4183 10.4183 40 6 40C1.58172 40 -2 36.4183 -2 32C-2 27.5817 1.58172 24 6 24C10.4183 24 14 27.5817 14 32H13C13 28.134 9.86599 25 6 25Z" fill="#AABF9E"/>
<path d="M54 25C50.134 25 47 28.134 47 32C47 35.866 50.134 39 54 39C57.866 39 61 35.866 61 32H62C62 36.4183 58.4183 40 54 40C49.5817 40 46 36.4183 46 32C46 27.5817 49.5817 24 54 24C58.4183 24 62 27.5817 62 32H61C61 28.134 57.866 25 54 25Z" fill="#AABF9E"/>
<path d="M102 25C98.134 25 95 28.134 95 32C95 35.866 98.134 39 102 39C105.866 39 109 35.866 109 32H110C110 36.4183 106.418 40 102 40C97.5817 40 94 36.4183 94 32C94 27.5817 97.5817 24 102 24C106.418 24 110 27.5817 110 32H109C109 28.134 105.866 25 102 25Z" fill="#AABF9E"/>
<path d="M150 25C146.134 25 143 28.134 143 32C143 35.866 146.134 39 150 39C153.866 39 157 35.866 157 32H158C158 36.4183 154.418 40 150 40C145.582 40 142 36.4183 142 32C142 27.5817 145.582 24 150 24C154.418 24 158 27.5817 158 32H157C157 28.134 153.866 25 150 25Z" fill="#AABF9E"/>
<path d="M198 25C194.134 25 191 28.134 191 32C191 35.866 194.134 39 198 39C201.866 39 205 35.866 205 32H206C206 36.4183 202.418 40 198 40C193.582 40 190 36.4183 190 32C190 27.5817 193.582 24 198 24C202.418 24 206 27.5817 206 32H205C205 28.134 201.866 25 198 25Z" fill="#AABF9E"/>
<path d="M246 25C242.134 25 239 28.134 239 32C239 35.866 242.134 39 246 39C249.866 39 253 35.866 253 32H254C254 36.4183 250.418 40 246 40C241.582 40 238 36.4183 238 32C238 27.5817 241.582 24 246 24C250.418 24 254 27.5817 254 32H253C253 28.134 249.866 25 246 25Z" fill="#AABF9E"/>
<path d="M294 25C290.134 25 287 28.134 287 32C287 35.866 290.134 39 294 39C297.866 39 301 35.866 301 32H302C302 36.4183 298.418 40 294 40C289.582 40 286 36.4183 286 32C286 27.5817 289.582 24 294 24C298.418 24 302 27.5817 302 32H301C301 28.134 297.866 25 294 25Z" fill="#AABF9E"/>
<path d="M342 25C338.134 25 335 28.134 335 32C335 35.866 338.134 39 342 39C345.866 39 349 35.866 349 32H350C350 36.4183 346.418 40 342 40C337.582 40 334 36.4183 334 32C334 27.5817 337.582 24 342 24C346.418 24 350 27.5817 350 32H349C349 28.134 345.866 25 342 25Z" fill="#AABF9E"/>
<path d="M390 25C386.134 25 383 28.134 383 32C383 35.866 386.134 39 390 39C393.866 39 397 35.866 397 32H398C398 36.4183 394.418 40 390 40C385.582 40 382 36.4183 382 32C382 27.5817 385.582 24 390 24C394.418 24 398 27.5817 398 32H397C397 28.134 393.866 25 390 25Z" fill="#AABF9E"/>
<path d="M438 25C434.134 25 431 28.134 431 32C431 35.866 434.134 39 438 39C441.866 39 445 35.866 445 32H446C446 36.4183 442.418 40 438 40C433.582 40 430 36.4183 430 32C430 27.5817 433.582 24 438 24C442.418 24 446 27.5817 446 32H445C445 28.134 441.866 25 438 25Z" fill="#AABF9E"/>
<path d="M486 25C482.134 25 479 28.134 479 32C479 35.866 482.134 39 486 39C489.866 39 493 35.866 493 32H494C494 36.4183 490.418 40 486 40C481.582 40 478 36.4183 478 32C478 27.5817 481.582 24 486 24C490.418 24 494 27.5817 494 32H493C493 28.134 489.866 25 486 25Z" fill="#AABF9E"/>
<path d="M-11 56C-11 52.134 -14.134 49 -18 49C-21.866 49 -25 52.134 -25 56C-25 59.866 -21.866 63 -18 63V64C-22.4183 64 -26 60.4183 -26 56C-26 51.5817 -22.4183 48 -18 48C-13.5817 48 -10 51.5817 -10 56C-10 60.4183 -13.5817 64 -18 64V63C-14.134 63 -11 59.866 -11 56Z" fill="#AABF9E"/>
<path d="M37 56C37 52.134 33.866 49 30 49C26.134 49 23 52.134 23 56C23 59.866 26.134 63 30 63V64C25.5817 64 22 60.4183 22 56C22 51.5817 25.5817 48 30 48C34.4183 48 38 51.5817 38 56C38 60.4183 34.4183 64 30 64V63C33.866 63 37 59.866 37 56Z" fill="#AABF9E"/>
<path d="M85 56C85 52.134 81.866 49 78 49C74.134 49 71 52.134 71 56C71 59.866 74.134 63 78 63V64C73.5817 64 70 60.4183 70 56C70 51.5817 73.5817 48 78 48C82.4183 48 86 51.5817 86 56C86 60.4183 82.4183 64 78 64V63C81.866 63 85 59.866 85 56Z" fill="#AABF9E"/>
<path d="M133 56C133 52.134 129.866 49 126 49C122.134 49 119 52.134 119 56C119 59.866 122.134 63 126 63V64C121.582 64 118 60.4183 118 56C118 51.5817 121.582 48 126 48C130.418 48 134 51.5817 134 56C134 60.4183 130.418 64 126 64V63C129.866 63 133 59.866 133 56Z" fill="#AABF9E"/>
<path d="M181 56C181 52.134 177.866 49 174 49C170.134 49 167 52.134 167 56C167 59.866 170.134 63 174 63V64C169.582 64 166 60.4183 166 56C166 51.5817 169.582 48 174 48C178.418 48 182 51.5817 182 56C182 60.4183 178.418 64 174 64V63C177.866 63 181 59.866 181 56Z" fill="#AABF9E"/>
<path d="M229 56C229 52.134 225.866 49 222 49C218.134 49 215 52.134 215 56C215 59.866 218.134 63 222 63V64C217.582 64 214 60.4183 214 56C214 51.5817 217.582 48 222 48C226.418 48 230 51.5817 230 56C230 60.4183 226.418 64 222 64V63C225.866 63 229 59.866 229 56Z" fill="#AABF9E"/>
<path d="M277 56C277 52.134 273.866 49 270 49C266.134 49 263 52.134 263 56C263 59.866 266.134 63 270 63V64C265.582 64 262 60.4183 262 56C262 51.5817 265.582 48 270 48C274.418 48 278 51.5817 278 56C278 60.4183 274.418 64 270 64V63C273.866 63 277 59.866 277 56Z" fill="#AABF9E"/>
<path d="M325 56C325 52.134 321.866 49 318 49C314.134 49 311 52.134 311 56C311 59.866 314.134 63 318 63V64C313.582 64 310 60.4183 310 56C310 51.5817 313.582 48 318 48C322.418 48 326 51.5817 326 56C326 60.4183 322.418 64 318 64V63C321.866 63 325 59.866 325 56Z" fill="#AABF9E"/>
<path d="M373 56C373 52.134 369.866 49 366 49C362.134 49 359 52.134 359 56C359 59.866 362.134 63 366 63V64C361.582 64 358 60.4183 358 56C358 51.5817 361.582 48 366 48C370.418 48 374 51.5817 374 56C374 60.4183 370.418 64 366 64V63C369.866 63 373 59.866 373 56Z" fill="#AABF9E"/>
<path d="M421 56C421 52.134 417.866 49 414 49C410.134 49 407 52.134 407 56C407 59.866 410.134 63 414 63V64C409.582 64 406 60.4183 406 56C406 51.5817 409.582 48 414 48C418.418 48 422 51.5817 422 56C422 60.4183 418.418 64 414 64V63C417.866 63 421 59.866 421 56Z" fill="#AABF9E"/>
<path d="M469 56C469 52.134 465.866 49 462 49C458.134 49 455 52.134 455 56C455 59.866 458.134 63 462 63V64C457.582 64 454 60.4183 454 56C454 51.5817 457.582 48 462 48C466.418 48 470 51.5817 470 56C470 60.4183 466.418 64 462 64V63C465.866 63 469 59.866 469 56Z" fill="#AABF9E"/>
<path d="M6 73C2.13401 73 -1 76.134 -1 80C-1 83.866 2.13401 87 6 87C9.86599 87 13 83.866 13 80H14C14 84.4183 10.4183 88 6 88C1.58172 88 -2 84.4183 -2 80C-2 75.5817 1.58172 72 6 72C10.4183 72 14 75.5817 14 80H13C13 76.134 9.86599 73 6 73Z" fill="#AABF9E"/>
<path d="M54 73C50.134 73 47 76.134 47 80C47 83.866 50.134 87 54 87C57.866 87 61 83.866 61 80H62C62 84.4183 58.4183 88 54 88C49.5817 88 46 84.4183 46 80C46 75.5817 49.5817 72 54 72C58.4183 72 62 75.5817 62 80H61C61 76.134 57.866 73 54 73Z" fill="#AABF9E"/>
<path d="M102 73C98.134 73 95 76.134 95 80C95 83.866 98.134 87 102 87C105.866 87 109 83.866 109 80H110C110 84.4183 106.418 88 102 88C97.5817 88 94 84.4183 94 80C94 75.5817 97.5817 72 102 72C106.418 72 110 75.5817 110 80H109C109 76.134 105.866 73 102 73Z" fill="#AABF9E"/>
<path d="M150 73C146.134 73 143 76.134 143 80C143 83.866 146.134 87 150 87C153.866 87 157 83.866 157 80H158C158 84.4183 154.418 88 150 88C145.582 88 142 84.4183 142 80C142 75.5817 145.582 72 150 72C154.418 72 158 75.5817 158 80H157C157 76.134 153.866 73 150 73Z" fill="#AABF9E"/>
<path d="M198 73C194.134 73 191 76.134 191 80C191 83.866 194.134 87 198 87C201.866 87 205 83.866 205 80H206C206 84.4183 202.418 88 198 88C193.582 88 190 84.4183 190 80C190 75.5817 193.582 72 198 72C202.418 72 206 75.5817 206 80H205C205 76.134 201.866 73 198 73Z" fill="#AABF9E"/>
<path d="M246 73C242.134 73 239 76.134 239 80C239 83.866 242.134 87 246 87C249.866 87 253 83.866 253 80H254C254 84.4183 250.418 88 246 88C241.582 88 238 84.4183 238 80C238 75.5817 241.582 72 246 72C250.418 72 254 75.5817 254 80H253C253 76.134 249.866 73 246 73Z" fill="#AABF9E"/>
<path d="M294 73C290.134 73 287 76.134 287 80C287 83.866 290.134 87 294 87C297.866 87 301 83.866 301 80H302C302 84.4183 298.418 88 294 88C289.582 88 286 84.4183 286 80C286 75.5817 289.582 72 294 72C298.418 72 302 75.5817 302 80H301C301 76.134 297.866 73 294 73Z" fill="#AABF9E"/>
<path d="M342 73C338.134 73 335 76.134 335 80C335 83.866 338.134 87 342 87C345.866 87 349 83.866 349 80H350C350 84.4183 346.418 88 342 88C337.582 88 334 84.4183 334 80C334 75.5817 337.582 72 342 72C346.418 72 350 75.5817 350 80H349C349 76.134 345.866 73 342 73Z" fill="#AABF9E"/>
<path d="M390 73C386.134 73 383 76.134 383 80C383 83.866 386.134 87 390 87C393.866 87 397 83.866 397 80H398C398 84.4183 394.418 88 390 88C385.582 88 382 84.4183 382 80C382 75.5817 385.582 72 390 72C394.418 72 398 75.5817 398 80H397C397 76.134 393.866 73 390 73Z" fill="#AABF9E"/>
<path d="M438 73C434.134 73 431 76.134 431 80C431 83.866 434.134 87 438 87C441.866 87 445 83.866 445 80H446C446 84.4183 442.418 88 438 88C433.582 88 430 84.4183 430 80C430 75.5817 433.582 72 438 72C442.418 72 446 75.5817 446 80H445C445 76.134 441.866 73 438 73Z" fill="#AABF9E"/>
<path d="M486 73C482.134 73 479 76.134 479 80C479 83.866 482.134 87 486 87C489.866 87 493 83.866 493 80H494C494 84.4183 490.418 88 486 88C481.582 88 478 84.4183 478 80C478 75.5817 481.582 72 486 72C490.418 72 494 75.5817 494 80H493C493 76.134 489.866 73 486 73Z" fill="#AABF9E"/>
<path d="M-11 104C-11 100.134 -14.134 97 -18 97C-21.866 97 -25 100.134 -25 104C-25 107.866 -21.866 111 -18 111V112C-22.4183 112 -26 108.418 -26 104C-26 99.5817 -22.4183 96 -18 96C-13.5817 96 -10 99.5817 -10 104C-10 108.418 -13.5817 112 -18 112V111C-14.134 111 -11 107.866 -11 104Z" fill="#AABF9E"/>
<path d="M37 104C37 100.134 33.866 97 30 97C26.134 97 23 100.134 23 104C23 107.866 26.134 111 30 111V112C25.5817 112 22 108.418 22 104C22 99.5817 25.5817 96 30 96C34.4183 96 38 99.5817 38 104C38 108.418 34.4183 112 30 112V111C33.866 111 37 107.866 37 104Z" fill="#AABF9E"/>
<path d="M85 104C85 100.134 81.866 97 78 97C74.134 97 71 100.134 71 104C71 107.866 74.134 111 78 111V112C73.5817 112 70 108.418 70 104C70 99.5817 73.5817 96 78 96C82.4183 96 86 99.5817 86 104C86 108.418 82.4183 112 78 112V111C81.866 111 85 107.866 85 104Z" fill="#AABF9E"/>
<path d="M133 104C133 100.134 129.866 97 126 97C122.134 97 119 100.134 119 104C119 107.866 122.134 111 126 111V112C121.582 112 118 108.418 118 104C118 99.5817 121.582 96 126 96C130.418 96 134 99.5817 134 104C134 108.418 130.418 112 126 112V111C129.866 111 133 107.866 133 104Z" fill="#AABF9E"/>
<path d="M181 104C181 100.134 177.866 97 174 97C170.134 97 167 100.134 167 104C167 107.866 170.134 111 174 111V112C169.582 112 166 108.418 166 104C166 99.5817 169.582 96 174 96C178.418 96 182 99.5817 182 104C182 108.418 178.418 112 174 112V111C177.866 111 181 107.866 181 104Z" fill="#AABF9E"/>
<path d="M229 104C229 100.134 225.866 97 222 97C218.134 97 215 100.134 215 104C215 107.866 218.134 111 222 111V112C217.582 112 214 108.418 214 104C214 99.5817 217.582 96 222 96C226.418 96 230 99.5817 230 104C230 108.418 226.418 112 222 112V111C225.866 111 229 107.866 229 104Z" fill="#AABF9E"/>
<path d="M277 104C277 100.134 273.866 97 270 97C266.134 97 263 100.134 263 104C263 107.866 266.134 111 270 111V112C265.582 112 262 108.418 262 104C262 99.5817 265.582 96 270 96C274.418 96 278 99.5817 278 104C278 108.418 274.418 112 270 112V111C273.866 111 277 107.866 277 104Z" fill="#AABF9E"/>
<path d="M325 104C325 100.134 321.866 97 318 97C314.134 97 311 100.134 311 104C311 107.866 314.134 111 318 111V112C313.582 112 310 108.418 310 104C310 99.5817 313.582 96 318 96C322.418 96 326 99.5817 326 104C326 108.418 322.418 112 318 112V111C321.866 111 325 107.866 325 104Z" fill="#AABF9E"/>
<path d="M373 104C373 100.134 369.866 97 366 97C362.134 97 359 100.134 359 104C359 107.866 362.134 111 366 111V112C361.582 112 358 108.418 358 104C358 99.5817 361.582 96 366 96C370.418 96 374 99.5817 374 104C374 108.418 370.418 112 366 112V111C369.866 111 373 107.866 373 104Z" fill="#AABF9E"/>
<path d="M421 104C421 100.134 417.866 97 414 97C410.134 97 407 100.134 407 104C407 107.866 410.134 111 414 111V112C409.582 112 406 108.418 406 104C406 99.5817 409.582 96 414 96C418.418 96 422 99.5817 422 104C422 108.418 418.418 112 414 112V111C417.866 111 421 107.866 421 104Z" fill="#AABF9E"/>
<path d="M469 104C469 100.134 465.866 97 462 97C458.134 97 455 100.134 455 104C455 107.866 458.134 111 462 111V112C457.582 112 454 108.418 454 104C454 99.5817 457.582 96 462 96C466.418 96 470 99.5817 470 104C470 108.418 466.418 112 462 112V111C465.866 111 469 107.866 469 104Z" fill="#AABF9E"/>
<path d="M6 121C2.13401 121 -1 124.134 -1 128C-1 131.866 2.13401 135 6 135C9.86599 135 13 131.866 13 128H14C14 132.418 10.4183 136 6 136C1.58172 136 -2 132.418 -2 128C-2 123.582 1.58172 120 6 120C10.4183 120 14 123.582 14 128H13C13 124.134 9.86599 121 6 121Z" fill="#AABF9E"/>
<path d="M54 121C50.134 121 47 124.134 47 128C47 131.866 50.134 135 54 135C57.866 135 61 131.866 61 128H62C62 132.418 58.4183 136 54 136C49.5817 136 46 132.418 46 128C46 123.582 49.5817 120 54 120C58.4183 120 62 123.582 62 128H61C61 124.134 57.866 121 54 121Z" fill="#AABF9E"/>
<path d="M102 121C98.134 121 95 124.134 95 128C95 131.866 98.134 135 102 135C105.866 135 109 131.866 109 128H110C110 132.418 106.418 136 102 136C97.5817 136 94 132.418 94 128C94 123.582 97.5817 120 102 120C106.418 120 110 123.582 110 128H109C109 124.134 105.866 121 102 121Z" fill="#AABF9E"/>
<path d="M150 121C146.134 121 143 124.134 143 128C143 131.866 146.134 135 150 135C153.866 135 157 131.866 157 128H158C158 132.418 154.418 136 150 136C145.582 136 142 132.418 142 128C142 123.582 145.582 120 150 120C154.418 120 158 123.582 158 128H157C157 124.134 153.866 121 150 121Z" fill="#AABF9E"/>
<path d="M198 121C194.134 121 191 124.134 191 128C191 131.866 194.134 135 198 135C201.866 135 205 131.866 205 128H206C206 132.418 202.418 136 198 136C193.582 136 190 132.418 190 128C190 123.582 193.582 120 198 120C202.418 120 206 123.582 206 128H205C205 124.134 201.866 121 198 121Z" fill="#AABF9E"/>
<path d="M246 121C242.134 121 239 124.134 239 128C239 131.866 242.134 135 246 135C249.866 135 253 131.866 253 128H254C254 132.418 250.418 136 246 136C241.582 136 238 132.418 238 128C238 123.582 241.582 120 246 120C250.418 120 254 123.582 254 128H253C253 124.134 249.866 121 246 121Z" fill="#AABF9E"/>
<path d="M294 121C290.134 121 287 124.134 287 128C287 131.866 290.134 135 294 135C297.866 135 301 131.866 301 128H302C302 132.418 298.418 136 294 136C289.582 136 286 132.418 286 128C286 123.582 289.582 120 294 120C298.418 120 302 123.582 302 128H301C301 124.134 297.866 121 294 121Z" fill="#AABF9E"/>
<path d="M342 121C338.134 121 335 124.134 335 128C335 131.866 338.134 135 342 135C345.866 135 349 131.866 349 128H350C350 132.418 346.418 136 342 136C337.582 136 334 132.418 334 128C334 123.582 337.582 120 342 120C346.418 120 350 123.582 350 128H349C349 124.134 345.866 121 342 121Z" fill="#AABF9E"/>
<path d="M390 121C386.134 121 383 124.134 383 128C383 131.866 386.134 135 390 135C393.866 135 397 131.866 397 128H398C398 132.418 394.418 136 390 136C385.582 136 382 132.418 382 128C382 123.582 385.582 120 390 120C394.418 120 398 123.582 398 128H397C397 124.134 393.866 121 390 121Z" fill="#AABF9E"/>
<path d="M438 121C434.134 121 431 124.134 431 128C431 131.866 434.134 135 438 135C441.866 135 445 131.866 445 128H446C446 132.418 442.418 136 438 136C433.582 136 430 132.418 430 128C430 123.582 433.582 120 438 120C442.418 120 446 123.582 446 128H445C445 124.134 441.866 121 438 121Z" fill="#AABF9E"/>
<path d="M486 121C482.134 121 479 124.134 479 128C479 131.866 482.134 135 486 135C489.866 135 493 131.866 493 128H494C494 132.418 490.418 136 486 136C481.582 136 478 132.418 478 128C478 123.582 481.582 120 486 120C490.418 120 494 123.582 494 128H493C493 124.134 489.866 121 486 121Z" fill="#AABF9E"/>
<path d="M-11 152C-11 148.134 -14.134 145 -18 145C-21.866 145 -25 148.134 -25 152C-25 155.866 -21.866 159 -18 159V160C-22.4183 160 -26 156.418 -26 152C-26 147.582 -22.4183 144 -18 144C-13.5817 144 -10 147.582 -10 152C-10 156.418 -13.5817 160 -18 160V159C-14.134 159 -11 155.866 -11 152Z" fill="#AABF9E"/>
<path d="M37 152C37 148.134 33.866 145 30 145C26.134 145 23 148.134 23 152C23 155.866 26.134 159 30 159V160C25.5817 160 22 156.418 22 152C22 147.582 25.5817 144 30 144C34.4183 144 38 147.582 38 152C38 156.418 34.4183 160 30 160V159C33.866 159 37 155.866 37 152Z" fill="#AABF9E"/>
<path d="M85 152C85 148.134 81.866 145 78 145C74.134 145 71 148.134 71 152C71 155.866 74.134 159 78 159V160C73.5817 160 70 156.418 70 152C70 147.582 73.5817 144 78 144C82.4183 144 86 147.582 86 152C86 156.418 82.4183 160 78 160V159C81.866 159 85 155.866 85 152Z" fill="#AABF9E"/>
<path d="M133 152C133 148.134 129.866 145 126 145C122.134 145 119 148.134 119 152C119 155.866 122.134 159 126 159V160C121.582 160 118 156.418 118 152C118 147.582 121.582 144 126 144C130.418 144 134 147.582 134 152C134 156.418 130.418 160 126 160V159C129.866 159 133 155.866 133 152Z" fill="#AABF9E"/>
<path d="M181 152C181 148.134 177.866 145 174 145C170.134 145 167 148.134 167 152C167 155.866 170.134 159 174 159V160C169.582 160 166 156.418 166 152C166 147.582 169.582 144 174 144C178.418 144 182 147.582 182 152C182 156.418 178.418 160 174 160V159C177.866 159 181 155.866 181 152Z" fill="#AABF9E"/>
<path d="M229 152C229 148.134 225.866 145 222 145C218.134 145 215 148.134 215 152C215 155.866 218.134 159 222 159V160C217.582 160 214 156.418 214 152C214 147.582 217.582 144 222 144C226.418 144 230 147.582 230 152C230 156.418 226.418 160 222 160V159C225.866 159 229 155.866 229 152Z" fill="#AABF9E"/>
<path d="M277 152C277 148.134 273.866 145 270 145C266.134 145 263 148.134 263 152C263 155.866 266.134 159 270 159V160C265.582 160 262 156.418 262 152C262 147.582 265.582 144 270 144C274.418 144 278 147.582 278 152C278 156.418 274.418 160 270 160V159C273.866 159 277 155.866 277 152Z" fill="#AABF9E"/>
<path d="M325 152C325 148.134 321.866 145 318 145C314.134 145 311 148.134 311 152C311 155.866 314.134 159 318 159V160C313.582 160 310 156.418 310 152C310 147.582 313.582 144 318 144C322.418 144 326 147.582 326 152C326 156.418 322.418 160 318 160V159C321.866 159 325 155.866 325 152Z" fill="#AABF9E"/>
<path d="M373 152C373 148.134 369.866 145 366 145C362.134 145 359 148.134 359 152C359 155.866 362.134 159 366 159V160C361.582 160 358 156.418 358 152C358 147.582 361.582 144 366 144C370.418 144 374 147.582 374 152C374 156.418 370.418 160 366 160V159C369.866 159 373 155.866 373 152Z" fill="#AABF9E"/>
<path d="M421 152C421 148.134 417.866 145 414 145C410.134 145 407 148.134 407 152C407 155.866 410.134 159 414 159V160C409.582 160 406 156.418 406 152C406 147.582 409.582 144 414 144C418.418 144 422 147.582 422 152C422 156.418 418.418 160 414 160V159C417.866 159 421 155.866 421 152Z" fill="#AABF9E"/>
<path d="M469 152C469 148.134 465.866 145 462 145C458.134 145 455 148.134 455 152C455 155.866 458.134 159 462 159V160C457.582 160 454 156.418 454 152C454 147.582 457.582 144 462 144C466.418 144 470 147.582 470 152C470 156.418 466.418 160 462 160V159C465.866 159 469 155.866 469 152Z" fill="#AABF9E"/>
<path d="M6 169C2.13401 169 -1 172.134 -1 176C-1 179.866 2.13401 183 6 183C9.86599 183 13 179.866 13 176H14C14 180.418 10.4183 184 6 184C1.58172 184 -2 180.418 -2 176C-2 171.582 1.58172 168 6 168C10.4183 168 14 171.582 14 176H13C13 172.134 9.86599 169 6 169Z" fill="#AABF9E"/>
<path d="M54 169C50.134 169 47 172.134 47 176C47 179.866 50.134 183 54 183C57.866 183 61 179.866 61 176H62C62 180.418 58.4183 184 54 184C49.5817 184 46 180.418 46 176C46 171.582 49.5817 168 54 168C58.4183 168 62 171.582 62 176H61C61 172.134 57.866 169 54 169Z" fill="#AABF9E"/>
<path d="M102 169C98.134 169 95 172.134 95 176C95 179.866 98.134 183 102 183C105.866 183 109 179.866 109 176H110C110 180.418 106.418 184 102 184C97.5817 184 94 180.418 94 176C94 171.582 97.5817 168 102 168C106.418 168 110 171.582 110 176H109C109 172.134 105.866 169 102 169Z" fill="#AABF9E"/>
<path d="M150 169C146.134 169 143 172.134 143 176C143 179.866 146.134 183 150 183C153.866 183 157 179.866 157 176H158C158 180.418 154.418 184 150 184C145.582 184 142 180.418 142 176C142 171.582 145.582 168 150 168C154.418 168 158 171.582 158 176H157C157 172.134 153.866 169 150 169Z" fill="#AABF9E"/>
<path d="M198 169C194.134 169 191 172.134 191 176C191 179.866 194.134 183 198 183C201.866 183 205 179.866 205 176H206C206 180.418 202.418 184 198 184C193.582 184 190 180.418 190 176C190 171.582 193.582 168 198 168C202.418 168 206 171.582 206 176H205C205 172.134 201.866 169 198 169Z" fill="#AABF9E"/>
<path d="M246 169C242.134 169 239 172.134 239 176C239 179.866 242.134 183 246 183C249.866 183 253 179.866 253 176H254C254 180.418 250.418 184 246 184C241.582 184 238 180.418 238 176C238 171.582 241.582 168 246 168C250.418 168 254 171.582 254 176H253C253 172.134 249.866 169 246 169Z" fill="#AABF9E"/>
<path d="M294 169C290.134 169 287 172.134 287 176C287 179.866 290.134 183 294 183C297.866 183 301 179.866 301 176H302C302 180.418 298.418 184 294 184C289.582 184 286 180.418 286 176C286 171.582 289.582 168 294 168C298.418 168 302 171.582 302 176H301C301 172.134 297.866 169 294 169Z" fill="#AABF9E"/>
<path d="M342 169C338.134 169 335 172.134 335 176C335 179.866 338.134 183 342 183C345.866 183 349 179.866 349 176H350C350 180.418 346.418 184 342 184C337.582 184 334 180.418 334 176C334 171.582 337.582 168 342 168C346.418 168 350 171.582 350 176H349C349 172.134 345.866 169 342 169Z" fill="#AABF9E"/>
<path d="M390 169C386.134 169 383 172.134 383 176C383 179.866 386.134 183 390 183C393.866 183 397 179.866 397 176H398C398 180.418 394.418 184 390 184C385.582 184 382 180.418 382 176C382 171.582 385.582 168 390 168C394.418 168 398 171.582 398 176H397C397 172.134 393.866 169 390 169Z" fill="#AABF9E"/>
<path d="M438 169C434.134 169 431 172.134 431 176C431 179.866 434.134 183 438 183C441.866 183 445 179.866 445 176H446C446 180.418 442.418 184 438 184C433.582 184 430 180.418 430 176C430 171.582 433.582 168 438 168C442.418 168 446 171.582 446 176H445C445 172.134 441.866 169 438 169Z" fill="#AABF9E"/>
<path d="M486 169C482.134 169 479 172.134 479 176C479 179.866 482.134 183 486 183C489.866 183 493 179.866 493 176H494C494 180.418 490.418 184 486 184C481.582 184 478 180.418 478 176C478 171.582 481.582 168 486 168C490.418 168 494 171.582 494 176H493C493 172.134 489.866 169 486 169Z" fill="#AABF9E"/>
<path d="M-11 200C-11 196.134 -14.134 193 -18 193C-21.866 193 -25 196.134 -25 200C-25 203.866 -21.866 207 -18 207V208C-22.4183 208 -26 204.418 -26 200C-26 195.582 -22.4183 192 -18 192C-13.5817 192 -10 195.582 -10 200C-10 204.418 -13.5817 208 -18 208V207C-14.134 207 -11 203.866 -11 200Z" fill="#AABF9E"/>
<path d="M37 200C37 196.134 33.866 193 30 193C26.134 193 23 196.134 23 200C23 203.866 26.134 207 30 207V208C25.5817 208 22 204.418 22 200C22 195.582 25.5817 192 30 192C34.4183 192 38 195.582 38 200C38 204.418 34.4183 208 30 208V207C33.866 207 37 203.866 37 200Z" fill="#AABF9E"/>
<path d="M85 200C85 196.134 81.866 193 78 193C74.134 193 71 196.134 71 200C71 203.866 74.134 207 78 207V208C73.5817 208 70 204.418 70 200C70 195.582 73.5817 192 78 192C82.4183 192 86 195.582 86 200C86 204.418 82.4183 208 78 208V207C81.866 207 85 203.866 85 200Z" fill="#AABF9E"/>
<path d="M133 200C133 196.134 129.866 193 126 193C122.134 193 119 196.134 119 200C119 203.866 122.134 207 126 207V208C121.582 208 118 204.418 118 200C118 195.582 121.582 192 126 192C130.418 192 134 195.582 134 200C134 204.418 130.418 208 126 208V207C129.866 207 133 203.866 133 200Z" fill="#AABF9E"/>
<path d="M181 200C181 196.134 177.866 193 174 193C170.134 193 167 196.134 167 200C167 203.866 170.134 207 174 207V208C169.582 208 166 204.418 166 200C166 195.582 169.582 192 174 192C178.418 192 182 195.582 182 200C182 204.418 178.418 208 174 208V207C177.866 207 181 203.866 181 200Z" fill="#AABF9E"/>
<path d="M229 200C229 196.134 225.866 193 222 193C218.134 193 215 196.134 215 200C215 203.866 218.134 207 222 207V208C217.582 208 214 204.418 214 200C214 195.582 217.582 192 222 192C226.418 192 230 195.582 230 200C230 204.418 226.418 208 222 208V207C225.866 207 229 203.866 229 200Z" fill="#AABF9E"/>
<path d="M277 200C277 196.134 273.866 193 270 193C266.134 193 263 196.134 263 200C263 203.866 266.134 207 270 207V208C265.582 208 262 204.418 262 200C262 195.582 265.582 192 270 192C274.418 192 278 195.582 278 200C278 204.418 274.418 208 270 208V207C273.866 207 277 203.866 277 200Z" fill="#AABF9E"/>
<path d="M325 200C325 196.134 321.866 193 318 193C314.134 193 311 196.134 311 200C311 203.866 314.134 207 318 207V208C313.582 208 310 204.418 310 200C310 195.582 313.582 192 318 192C322.418 192 326 195.582 326 200C326 204.418 322.418 208 318 208V207C321.866 207 325 203.866 325 200Z" fill="#AABF9E"/>
<path d="M373 200C373 196.134 369.866 193 366 193C362.134 193 359 196.134 359 200C359 203.866 362.134 207 366 207V208C361.582 208 358 204.418 358 200C358 195.582 361.582 192 366 192C370.418 192 374 195.582 374 200C374 204.418 370.418 208 366 208V207C369.866 207 373 203.866 373 200Z" fill="#AABF9E"/>
<path d="M421 200C421 196.134 417.866 193 414 193C410.134 193 407 196.134 407 200C407 203.866 410.134 207 414 207V208C409.582 208 406 204.418 406 200C406 195.582 409.582 192 414 192C418.418 192 422 195.582 422 200C422 204.418 418.418 208 414 208V207C417.866 207 421 203.866 421 200Z" fill="#AABF9E"/>
<path d="M469 200C469 196.134 465.866 193 462 193C458.134 193 455 196.134 455 200C455 203.866 458.134 207 462 207V208C457.582 208 454 204.418 454 200C454 195.582 457.582 192 462 192C466.418 192 470 195.582 470 200C470 204.418 466.418 208 462 208V207C465.866 207 469 203.866 469 200Z" fill="#AABF9E"/>
<path d="M6 217C2.13401 217 -1 220.134 -1 224C-1 227.866 2.13401 231 6 231C9.86599 231 13 227.866 13 224H14C14 228.418 10.4183 232 6 232C1.58172 232 -2 228.418 -2 224C-2 219.582 1.58172 216 6 216C10.4183 216 14 219.582 14 224H13C13 220.134 9.86599 217 6 217Z" fill="#AABF9E"/>
<path d="M54 217C50.134 217 47 220.134 47 224C47 227.866 50.134 231 54 231C57.866 231 61 227.866 61 224H62C62 228.418 58.4183 232 54 232C49.5817 232 46 228.418 46 224C46 219.582 49.5817 216 54 216C58.4183 216 62 219.582 62 224H61C61 220.134 57.866 217 54 217Z" fill="#AABF9E"/>
<path d="M102 217C98.134 217 95 220.134 95 224C95 227.866 98.134 231 102 231C105.866 231 109 227.866 109 224H110C110 228.418 106.418 232 102 232C97.5817 232 94 228.418 94 224C94 219.582 97.5817 216 102 216C106.418 216 110 219.582 110 224H109C109 220.134 105.866 217 102 217Z" fill="#AABF9E"/>
<path d="M150 217C146.134 217 143 220.134 143 224C143 227.866 146.134 231 150 231C153.866 231 157 227.866 157 224H158C158 228.418 154.418 232 150 232C145.582 232 142 228.418 142 224C142 219.582 145.582 216 150 216C154.418 216 158 219.582 158 224H157C157 220.134 153.866 217 150 217Z" fill="#AABF9E"/>
<path d="M198 217C194.134 217 191 220.134 191 224C191 227.866 194.134 231 198 231C201.866 231 205 227.866 205 224H206C206 228.418 202.418 232 198 232C193.582 232 190 228.418 190 224C190 219.582 193.582 216 198 216C202.418 216 206 219.582 206 224H205C205 220.134 201.866 217 198 217Z" fill="#AABF9E"/>
<path d="M246 217C242.134 217 239 220.134 239 224C239 227.866 242.134 231 246 231C249.866 231 253 227.866 253 224H254C254 228.418 250.418 232 246 232C241.582 232 238 228.418 238 224C238 219.582 241.582 216 246 216C250.418 216 254 219.582 254 224H253C253 220.134 249.866 217 246 217Z" fill="#AABF9E"/>
<path d="M294 217C290.134 217 287 220.134 287 224C287 227.866 290.134 231 294 231C297.866 231 301 227.866 301 224H302C302 228.418 298.418 232 294 232C289.582 232 286 228.418 286 224C286 219.582 289.582 216 294 216C298.418 216 302 219.582 302 224H301C301 220.134 297.866 217 294 217Z" fill="#AABF9E"/>
<path d="M342 217C338.134 217 335 220.134 335 224C335 227.866 338.134 231 342 231C345.866 231 349 227.866 349 224H350C350 228.418 346.418 232 342 232C337.582 232 334 228.418 334 224C334 219.582 337.582 216 342 216C346.418 216 350 219.582 350 224H349C349 220.134 345.866 217 342 217Z" fill="#AABF9E"/>
<path d="M390 217C386.134 217 383 220.134 383 224C383 227.866 386.134 231 390 231C393.866 231 397 227.866 397 224H398C398 228.418 394.418 232 390 232C385.582 232 382 228.418 382 224C382 219.582 385.582 216 390 216C394.418 216 398 219.582 398 224H397C397 220.134 393.866 217 390 217Z" fill="#AABF9E"/>
<path d="M438 217C434.134 217 431 220.134 431 224C431 227.866 434.134 231 438 231C441.866 231 445 227.866 445 224H446C446 228.418 442.418 232 438 232C433.582 232 430 228.418 430 224C430 219.582 433.582 216 438 216C442.418 216 446 219.582 446 224H445C445 220.134 441.866 217 438 217Z" fill="#AABF9E"/>
<path d="M486 217C482.134 217 479 220.134 479 224C479 227.866 482.134 231 486 231C489.866 231 493 227.866 493 224H494C494 228.418 490.418 232 486 232C481.582 232 478 228.418 478 224C478 219.582 481.582 216 486 216C490.418 216 494 219.582 494 224H493C493 220.134 489.866 217 486 217Z" fill="#AABF9E"/>
<path d="M-11 248C-11 244.134 -14.134 241 -18 241C-21.866 241 -25 244.134 -25 248C-25 251.866 -21.866 255 -18 255V256C-22.4183 256 -26 252.418 -26 248C-26 243.582 -22.4183 240 -18 240C-13.5817 240 -10 243.582 -10 248C-10 252.418 -13.5817 256 -18 256V255C-14.134 255 -11 251.866 -11 248Z" fill="#AABF9E"/>
<path d="M37 248C37 244.134 33.866 241 30 241C26.134 241 23 244.134 23 248C23 251.866 26.134 255 30 255V256C25.5817 256 22 252.418 22 248C22 243.582 25.5817 240 30 240C34.4183 240 38 243.582 38 248C38 252.418 34.4183 256 30 256V255C33.866 255 37 251.866 37 248Z" fill="#AABF9E"/>
<path d="M85 248C85 244.134 81.866 241 78 241C74.134 241 71 244.134 71 248C71 251.866 74.134 255 78 255V256C73.5817 256 70 252.418 70 248C70 243.582 73.5817 240 78 240C82.4183 240 86 243.582 86 248C86 252.418 82.4183 256 78 256V255C81.866 255 85 251.866 85 248Z" fill="#AABF9E"/>
<path d="M133 248C133 244.134 129.866 241 126 241C122.134 241 119 244.134 119 248C119 251.866 122.134 255 126 255V256C121.582 256 118 252.418 118 248C118 243.582 121.582 240 126 240C130.418 240 134 243.582 134 248C134 252.418 130.418 256 126 256V255C129.866 255 133 251.866 133 248Z" fill="#AABF9E"/>
<path d="M181 248C181 244.134 177.866 241 174 241C170.134 241 167 244.134 167 248C167 251.866 170.134 255 174 255V256C169.582 256 166 252.418 166 248C166 243.582 169.582 240 174 240C178.418 240 182 243.582 182 248C182 252.418 178.418 256 174 256V255C177.866 255 181 251.866 181 248Z" fill="#AABF9E"/>
<path d="M229 248C229 244.134 225.866 241 222 241C218.134 241 215 244.134 215 248C215 251.866 218.134 255 222 255V256C217.582 256 214 252.418 214 248C214 243.582 217.582 240 222 240C226.418 240 230 243.582 230 248C230 252.418 226.418 256 222 256V255C225.866 255 229 251.866 229 248Z" fill="#AABF9E"/>
<path d="M277 248C277 244.134 273.866 241 270 241C266.134 241 263 244.134 263 248C263 251.866 266.134 255 270 255V256C265.582 256 262 252.418 262 248C262 243.582 265.582 240 270 240C274.418 240 278 243.582 278 248C278 252.418 274.418 256 270 256V255C273.866 255 277 251.866 277 248Z" fill="#AABF9E"/>
<path d="M325 248C325 244.134 321.866 241 318 241C314.134 241 311 244.134 311 248C311 251.866 314.134 255 318 255V256C313.582 256 310 252.418 310 248C310 243.582 313.582 240 318 240C322.418 240 326 243.582 326 248C326 252.418 322.418 256 318 256V255C321.866 255 325 251.866 325 248Z" fill="#AABF9E"/>
<path d="M373 248C373 244.134 369.866 241 366 241C362.134 241 359 244.134 359 248C359 251.866 362.134 255 366 255V256C361.582 256 358 252.418 358 248C358 243.582 361.582 240 366 240C370.418 240 374 243.582 374 248C374 252.418 370.418 256 366 256V255C369.866 255 373 251.866 373 248Z" fill="#AABF9E"/>
<path d="M421 248C421 244.134 417.866 241 414 241C410.134 241 407 244.134 407 248C407 251.866 410.134 255 414 255V256C409.582 256 406 252.418 406 248C406 243.582 409.582 240 414 240C418.418 240 422 243.582 422 248C422 252.418 418.418 256 414 256V255C417.866 255 421 251.866 421 248Z" fill="#AABF9E"/>
<path d="M469 248C469 244.134 465.866 241 462 241C458.134 241 455 244.134 455 248C455 251.866 458.134 255 462 255V256C457.582 256 454 252.418 454 248C454 243.582 457.582 240 462 240C466.418 240 470 243.582 470 248C470 252.418 466.418 256 462 256V255C465.866 255 469 251.866 469 248Z" fill="#AABF9E"/>
<path d="M6 265C2.13401 265 -1 268.134 -1 272C-1 275.866 2.13401 279 6 279C9.86599 279 13 275.866 13 272H14C14 276.418 10.4183 280 6 280C1.58172 280 -2 276.418 -2 272C-2 267.582 1.58172 264 6 264C10.4183 264 14 267.582 14 272H13C13 268.134 9.86599 265 6 265Z" fill="#AABF9E"/>
<path d="M54 265C50.134 265 47 268.134 47 272C47 275.866 50.134 279 54 279C57.866 279 61 275.866 61 272H62C62 276.418 58.4183 280 54 280C49.5817 280 46 276.418 46 272C46 267.582 49.5817 264 54 264C58.4183 264 62 267.582 62 272H61C61 268.134 57.866 265 54 265Z" fill="#AABF9E"/>
<path d="M102 265C98.134 265 95 268.134 95 272C95 275.866 98.134 279 102 279C105.866 279 109 275.866 109 272H110C110 276.418 106.418 280 102 280C97.5817 280 94 276.418 94 272C94 267.582 97.5817 264 102 264C106.418 264 110 267.582 110 272H109C109 268.134 105.866 265 102 265Z" fill="#AABF9E"/>
<path d="M150 265C146.134 265 143 268.134 143 272C143 275.866 146.134 279 150 279C153.866 279 157 275.866 157 272H158C158 276.418 154.418 280 150 280C145.582 280 142 276.418 142 272C142 267.582 145.582 264 150 264C154.418 264 158 267.582 158 272H157C157 268.134 153.866 265 150 265Z" fill="#AABF9E"/>
<path d="M198 265C194.134 265 191 268.134 191 272C191 275.866 194.134 279 198 279C201.866 279 205 275.866 205 272H206C206 276.418 202.418 280 198 280C193.582 280 190 276.418 190 272C190 267.582 193.582 264 198 264C202.418 264 206 267.582 206 272H205C205 268.134 201.866 265 198 265Z" fill="#AABF9E"/>
<path d="M246 265C242.134 265 239 268.134 239 272C239 275.866 242.134 279 246 279C249.866 279 253 275.866 253 272H254C254 276.418 250.418 280 246 280C241.582 280 238 276.418 238 272C238 267.582 241.582 264 246 264C250.418 264 254 267.582 254 272H253C253 268.134 249.866 265 246 265Z" fill="#AABF9E"/>
<path d="M294 265C290.134 265 287 268.134 287 272C287 275.866 290.134 279 294 279C297.866 279 301 275.866 301 272H302C302 276.418 298.418 280 294 280C289.582 280 286 276.418 286 272C286 267.582 289.582 264 294 264C298.418 264 302 267.582 302 272H301C301 268.134 297.866 265 294 265Z" fill="#AABF9E"/>
<path d="M342 265C338.134 265 335 268.134 335 272C335 275.866 338.134 279 342 279C345.866 279 349 275.866 349 272H350C350 276.418 346.418 280 342 280C337.582 280 334 276.418 334 272C334 267.582 337.582 264 342 264C346.418 264 350 267.582 350 272H349C349 268.134 345.866 265 342 265Z" fill="#AABF9E"/>
<path d="M390 265C386.134 265 383 268.134 383 272C383 275.866 386.134 279 390 279C393.866 279 397 275.866 397 272H398C398 276.418 394.418 280 390 280C385.582 280 382 276.418 382 272C382 267.582 385.582 264 390 264C394.418 264 398 267.582 398 272H397C397 268.134 393.866 265 390 265Z" fill="#AABF9E"/>
<path d="M438 265C434.134 265 431 268.134 431 272C431 275.866 434.134 279 438 279C441.866 279 445 275.866 445 272H446C446 276.418 442.418 280 438 280C433.582 280 430 276.418 430 272C430 267.582 433.582 264 438 264C442.418 264 446 267.582 446 272H445C445 268.134 441.866 265 438 265Z" fill="#AABF9E"/>
<path d="M486 265C482.134 265 479 268.134 479 272C479 275.866 482.134 279 486 279C489.866 279 493 275.866 493 272H494C494 276.418 490.418 280 486 280C481.582 280 478 276.418 478 272C478 267.582 481.582 264 486 264C490.418 264 494 267.582 494 272H493C493 268.134 489.866 265 486 265Z" fill="#AABF9E"/>
</svg>
