<svg width="468" height="256" viewBox="0 0 468 256" fill="none" xmlns="http://www.w3.org/2000/svg">
<g clip-path="url(#clip0_2953_225)">
<path d="M495.298 9.23534C502.422 -3.07844 520.2 -3.07844 527.324 9.23534L548.194 45.3066L547.328 45.8066L526.459 9.73534C519.72 -1.91246 502.904 -1.91228 496.164 9.73534L481.038 35.8779C473.914 48.1917 456.137 48.1917 449.013 35.8779L433.888 9.73534C427.148 -1.91256 410.332 -1.91232 403.593 9.73534L388.467 35.8779C381.342 48.1917 363.566 48.1917 356.441 35.8779L341.315 9.73534C334.576 -1.91228 317.76 -1.91247 311.021 9.73534L295.896 35.8779C288.771 48.1917 270.995 48.1917 263.87 35.8779L248.744 9.73534C242.005 -1.91234 225.189 -1.91245 218.449 9.73534L203.324 35.8779C196.2 48.1917 178.422 48.1917 171.298 35.8779L156.173 9.73534C149.433 -1.91236 132.617 -1.9124 125.878 9.73534L110.753 35.8779C103.629 48.1917 85.851 48.1917 78.7266 35.8779L63.6016 9.73534C56.8622 -1.91243 40.046 -1.91242 33.3066 9.73534L18.1816 35.8779C11.0572 48.1917 -6.72032 48.1917 -13.8447 35.8779L-28.9697 9.73534C-35.709 -1.91247 -52.5252 -1.91236 -59.2646 9.73534L-80.1348 45.8066L-81 45.3066L-60.1299 9.23534C-53.0055 -3.07844 -35.2289 -3.07844 -28.1045 9.23534L-12.9795 35.3779C-6.24024 47.0258 10.576 47.0256 17.3154 35.3779L32.4414 9.23534C39.5658 -3.07844 57.3424 -3.07844 64.4668 9.23534L79.5928 35.3779C86.3322 47.0256 103.148 47.0258 109.888 35.3779L125.013 9.23534C132.137 -3.07844 149.914 -3.07845 157.038 9.23534L172.164 35.3779C178.904 47.0255 195.72 47.0257 202.459 35.3779L217.584 9.23534C224.708 -3.07844 242.486 -3.07844 249.61 9.23534L264.735 35.3779C271.475 47.0256 288.291 47.0257 295.03 35.3779L310.155 9.23534C317.28 -3.07844 335.057 -3.07845 342.182 9.23534L357.307 35.3779C364.046 47.0256 380.862 47.0257 387.602 35.3779L402.727 9.23534C409.851 -3.07844 427.629 -3.07844 434.753 9.23534L449.878 35.3779C456.617 47.0257 473.434 47.0257 480.173 35.3779L495.298 9.23534Z" fill="#A4DCEF"/>
<path d="M495.298 33.2353C502.422 20.9216 520.2 20.9216 527.324 33.2353L548.194 69.3066L547.328 69.8066L526.459 33.7353C519.72 22.0875 502.904 22.0877 496.164 33.7353L481.038 59.8779C473.914 72.1917 456.137 72.1917 449.013 59.8779L433.888 33.7353C427.148 22.0874 410.332 22.0877 403.593 33.7353L388.467 59.8779C381.342 72.1917 363.566 72.1917 356.441 59.8779L341.315 33.7353C334.576 22.0877 317.76 22.0875 311.021 33.7353L295.896 59.8779C288.771 72.1917 270.995 72.1917 263.87 59.8779L248.744 33.7353C242.005 22.0877 225.189 22.0875 218.449 33.7353L203.324 59.8779C196.2 72.1917 178.422 72.1917 171.298 59.8779L156.173 33.7353C149.433 22.0876 132.617 22.0876 125.878 33.7353L110.753 59.8779C103.629 72.1917 85.851 72.1917 78.7266 59.8779L63.6016 33.7353C56.8622 22.0876 40.046 22.0876 33.3066 33.7353L18.1816 59.8779C11.0572 72.1917 -6.72032 72.1917 -13.8447 59.8779L-28.9697 33.7353C-35.709 22.0875 -52.5252 22.0876 -59.2646 33.7353L-80.1348 69.8066L-81 69.3066L-60.1299 33.2353C-53.0055 20.9216 -35.2289 20.9216 -28.1045 33.2353L-12.9795 59.3779C-6.24024 71.0258 10.576 71.0256 17.3154 59.3779L32.4414 33.2353C39.5658 20.9216 57.3424 20.9216 64.4668 33.2353L79.5928 59.3779C86.3322 71.0255 103.148 71.0258 109.888 59.3779L125.013 33.2353C132.137 20.9216 149.914 20.9215 157.038 33.2353L172.164 59.3779C178.904 71.0255 195.72 71.0257 202.459 59.3779L217.584 33.2353C224.708 20.9216 242.486 20.9216 249.61 33.2353L264.735 59.3779C271.475 71.0256 288.291 71.0257 295.03 59.3779L310.155 33.2353C317.28 20.9216 335.057 20.9215 342.182 33.2353L357.307 59.3779C364.046 71.0256 380.862 71.0257 387.602 59.3779L402.727 33.2353C409.851 20.9216 427.629 20.9216 434.753 33.2353L449.878 59.3779C456.617 71.0257 473.434 71.0256 480.173 59.3779L495.298 33.2353Z" fill="#A4DCEF"/>
<path d="M495.298 57.2353C502.422 44.9216 520.2 44.9216 527.324 57.2353L548.194 93.3066L547.328 93.8066L526.459 57.7353C519.72 46.0875 502.904 46.0877 496.164 57.7353L481.038 83.8779C473.914 96.1917 456.137 96.1917 449.013 83.8779L433.888 57.7353C427.148 46.0874 410.332 46.0877 403.593 57.7353L388.467 83.8779C381.342 96.1917 363.566 96.1917 356.441 83.8779L341.315 57.7353C334.576 46.0877 317.76 46.0875 311.021 57.7353L295.896 83.8779C288.771 96.1917 270.995 96.1917 263.87 83.8779L248.744 57.7353C242.005 46.0877 225.189 46.0876 218.449 57.7353L203.324 83.8779C196.2 96.1917 178.422 96.1917 171.298 83.8779L156.173 57.7353C149.433 46.0876 132.617 46.0876 125.878 57.7353L110.753 83.8779C103.629 96.1917 85.851 96.1917 78.7266 83.8779L63.6016 57.7353C56.8622 46.0876 40.046 46.0876 33.3066 57.7353L18.1816 83.8779C11.0572 96.1917 -6.72032 96.1917 -13.8447 83.8779L-28.9697 57.7353C-35.709 46.0875 -52.5252 46.0876 -59.2646 57.7353L-80.1348 93.8066L-81 93.3066L-60.1299 57.2353C-53.0055 44.9216 -35.2289 44.9216 -28.1045 57.2353L-12.9795 83.3779C-6.24024 95.0258 10.576 95.0256 17.3154 83.3779L32.4414 57.2353C39.5658 44.9216 57.3424 44.9216 64.4668 57.2353L79.5928 83.3779C86.3322 95.0256 103.148 95.0258 109.888 83.3779L125.013 57.2353C132.137 44.9216 149.914 44.9216 157.038 57.2353L172.164 83.3779C178.904 95.0255 195.72 95.0257 202.459 83.3779L217.584 57.2353C224.708 44.9216 242.486 44.9216 249.61 57.2353L264.735 83.3779C271.475 95.0256 288.291 95.0257 295.03 83.3779L310.155 57.2353C317.28 44.9216 335.057 44.9216 342.182 57.2353L357.307 83.3779C364.046 95.0256 380.862 95.0257 387.602 83.3779L402.727 57.2353C409.851 44.9216 427.629 44.9216 434.753 57.2353L449.878 83.3779C456.617 95.0257 473.434 95.0257 480.173 83.3779L495.298 57.2353Z" fill="#A4DCEF"/>
<path d="M495.298 81.2353C502.422 68.9216 520.2 68.9216 527.324 81.2353L548.194 117.307L547.328 117.807L526.459 81.7353C519.72 70.0875 502.904 70.0877 496.164 81.7353L481.038 107.878C473.914 120.192 456.137 120.192 449.013 107.878L433.888 81.7353C427.148 70.0874 410.332 70.0877 403.593 81.7353L388.467 107.878C381.342 120.192 363.566 120.192 356.441 107.878L341.315 81.7353C334.576 70.0877 317.76 70.0875 311.021 81.7353L295.896 107.878C288.771 120.192 270.995 120.192 263.87 107.878L248.744 81.7353C242.005 70.0877 225.189 70.0876 218.449 81.7353L203.324 107.878C196.2 120.192 178.422 120.192 171.298 107.878L156.173 81.7353C149.433 70.0876 132.617 70.0876 125.878 81.7353L110.753 107.878C103.629 120.192 85.851 120.192 78.7266 107.878L63.6016 81.7353C56.8622 70.0876 40.046 70.0876 33.3066 81.7353L18.1816 107.878C11.0572 120.192 -6.72032 120.192 -13.8447 107.878L-28.9697 81.7353C-35.709 70.0875 -52.5252 70.0876 -59.2646 81.7353L-80.1348 117.807L-81 117.307L-60.1299 81.2353C-53.0055 68.9216 -35.2289 68.9216 -28.1045 81.2353L-12.9795 107.378C-6.24024 119.026 10.576 119.026 17.3154 107.378L32.4414 81.2353C39.5658 68.9216 57.3424 68.9216 64.4668 81.2353L79.5928 107.378C86.3322 119.026 103.148 119.026 109.888 107.378L125.013 81.2353C132.137 68.9216 149.914 68.9216 157.038 81.2353L172.164 107.378C178.904 119.026 195.72 119.026 202.459 107.378L217.584 81.2353C224.708 68.9216 242.486 68.9216 249.61 81.2353L264.735 107.378C271.475 119.026 288.291 119.026 295.03 107.378L310.155 81.2353C317.28 68.9216 335.057 68.9216 342.182 81.2353L357.307 107.378C364.046 119.026 380.862 119.026 387.602 107.378L402.727 81.2353C409.851 68.9216 427.629 68.9216 434.753 81.2353L449.878 107.378C456.617 119.026 473.434 119.026 480.173 107.378L495.298 81.2353Z" fill="#A4DCEF"/>
<path d="M495.298 105.235C502.422 92.9216 520.2 92.9216 527.324 105.235L548.194 141.307L547.328 141.807L526.459 105.735C519.72 94.0875 502.904 94.0877 496.164 105.735L481.038 131.878C473.914 144.192 456.137 144.192 449.013 131.878L433.888 105.735C427.148 94.0874 410.332 94.0877 403.593 105.735L388.467 131.878C381.342 144.192 363.566 144.192 356.441 131.878L341.315 105.735C334.576 94.0877 317.76 94.0875 311.021 105.735L295.896 131.878C288.771 144.192 270.995 144.192 263.87 131.878L248.744 105.735C242.005 94.0877 225.189 94.0876 218.449 105.735L203.324 131.878C196.2 144.192 178.422 144.192 171.298 131.878L156.173 105.735C149.433 94.0876 132.617 94.0876 125.878 105.735L110.753 131.878C103.629 144.192 85.851 144.192 78.7266 131.878L63.6016 105.735C56.8622 94.0876 40.046 94.0876 33.3066 105.735L18.1816 131.878C11.0572 144.192 -6.72032 144.192 -13.8447 131.878L-28.9697 105.735C-35.709 94.0875 -52.5252 94.0876 -59.2646 105.735L-80.1348 141.807L-81 141.307L-60.1299 105.235C-53.0055 92.9216 -35.2289 92.9216 -28.1045 105.235L-12.9795 131.378C-6.24024 143.026 10.576 143.026 17.3154 131.378L32.4414 105.235C39.5658 92.9216 57.3424 92.9216 64.4668 105.235L79.5928 131.378C86.3322 143.026 103.148 143.026 109.888 131.378L125.013 105.235C132.137 92.9216 149.914 92.9216 157.038 105.235L172.164 131.378C178.904 143.026 195.72 143.026 202.459 131.378L217.584 105.235C224.708 92.9216 242.486 92.9216 249.61 105.235L264.735 131.378C271.475 143.026 288.291 143.026 295.03 131.378L310.155 105.235C317.28 92.9216 335.057 92.9216 342.182 105.235L357.307 131.378C364.046 143.026 380.862 143.026 387.602 131.378L402.727 105.235C409.851 92.9216 427.629 92.9216 434.753 105.235L449.878 131.378C456.617 143.026 473.434 143.026 480.173 131.378L495.298 105.235Z" fill="#A4DCEF"/>
<path d="M495.298 129.235C502.422 116.922 520.2 116.922 527.324 129.235L548.194 165.307L547.328 165.807L526.459 129.735C519.72 118.088 502.904 118.088 496.164 129.735L481.038 155.878C473.914 168.192 456.137 168.192 449.013 155.878L433.888 129.735C427.148 118.087 410.332 118.088 403.593 129.735L388.467 155.878C381.342 168.192 363.566 168.192 356.441 155.878L341.315 129.735C334.576 118.088 317.76 118.088 311.021 129.735L295.896 155.878C288.771 168.192 270.995 168.192 263.87 155.878L248.744 129.735C242.005 118.088 225.189 118.088 218.449 129.735L203.324 155.878C196.2 168.192 178.422 168.192 171.298 155.878L156.173 129.735C149.433 118.088 132.617 118.088 125.878 129.735L110.753 155.878C103.629 168.192 85.851 168.192 78.7266 155.878L63.6016 129.735C56.8622 118.088 40.046 118.088 33.3066 129.735L18.1816 155.878C11.0572 168.192 -6.72032 168.192 -13.8447 155.878L-28.9697 129.735C-35.709 118.088 -52.5252 118.088 -59.2646 129.735L-80.1348 165.807L-81 165.307L-60.1299 129.235C-53.0055 116.922 -35.2289 116.922 -28.1045 129.235L-12.9795 155.378C-6.24024 167.026 10.576 167.026 17.3154 155.378L32.4414 129.235C39.5658 116.922 57.3424 116.922 64.4668 129.235L79.5928 155.378C86.3322 167.026 103.148 167.026 109.888 155.378L125.013 129.235C132.137 116.922 149.914 116.922 157.038 129.235L172.164 155.378C178.904 167.026 195.72 167.026 202.459 155.378L217.584 129.235C224.708 116.922 242.486 116.922 249.61 129.235L264.735 155.378C271.475 167.026 288.291 167.026 295.03 155.378L310.155 129.235C317.28 116.922 335.057 116.922 342.182 129.235L357.307 155.378C364.046 167.026 380.862 167.026 387.602 155.378L402.727 129.235C409.851 116.922 427.629 116.922 434.753 129.235L449.878 155.378C456.617 167.026 473.434 167.026 480.173 155.378L495.298 129.235Z" fill="#A4DCEF"/>
<path d="M495.298 153.235C502.422 140.922 520.2 140.922 527.324 153.235L548.194 189.307L547.328 189.807L526.459 153.735C519.72 142.088 502.904 142.088 496.164 153.735L481.038 179.878C473.914 192.192 456.137 192.192 449.013 179.878L433.888 153.735C427.148 142.087 410.332 142.088 403.593 153.735L388.467 179.878C381.342 192.192 363.566 192.192 356.441 179.878L341.315 153.735C334.576 142.088 317.76 142.088 311.021 153.735L295.896 179.878C288.771 192.192 270.995 192.192 263.87 179.878L248.744 153.735C242.005 142.088 225.189 142.088 218.449 153.735L203.324 179.878C196.2 192.192 178.422 192.192 171.298 179.878L156.173 153.735C149.433 142.088 132.617 142.088 125.878 153.735L110.753 179.878C103.629 192.192 85.851 192.192 78.7266 179.878L63.6016 153.735C56.8622 142.088 40.046 142.088 33.3066 153.735L18.1816 179.878C11.0572 192.192 -6.72032 192.192 -13.8447 179.878L-28.9697 153.735C-35.709 142.088 -52.5252 142.088 -59.2646 153.735L-80.1348 189.807L-81 189.307L-60.1299 153.235C-53.0055 140.922 -35.2289 140.922 -28.1045 153.235L-12.9795 179.378C-6.24024 191.026 10.576 191.026 17.3154 179.378L32.4414 153.235C39.5658 140.922 57.3424 140.922 64.4668 153.235L79.5928 179.378C86.3322 191.026 103.148 191.026 109.888 179.378L125.013 153.235C132.137 140.922 149.914 140.922 157.038 153.235L172.164 179.378C178.904 191.026 195.72 191.026 202.459 179.378L217.584 153.235C224.708 140.922 242.486 140.922 249.61 153.235L264.735 179.378C271.475 191.026 288.291 191.026 295.03 179.378L310.155 153.235C317.28 140.922 335.057 140.922 342.182 153.235L357.307 179.378C364.046 191.026 380.862 191.026 387.602 179.378L402.727 153.235C409.851 140.922 427.629 140.922 434.753 153.235L449.878 179.378C456.617 191.026 473.434 191.026 480.173 179.378L495.298 153.235Z" fill="#A4DCEF"/>
<path d="M495.298 177.235C502.422 164.922 520.2 164.922 527.324 177.235L548.194 213.307L547.328 213.807L526.459 177.735C519.72 166.088 502.904 166.088 496.164 177.735L481.038 203.878C473.914 216.192 456.137 216.192 449.013 203.878L433.888 177.735C427.148 166.087 410.332 166.088 403.593 177.735L388.467 203.878C381.342 216.192 363.566 216.192 356.441 203.878L341.315 177.735C334.576 166.088 317.76 166.088 311.021 177.735L295.896 203.878C288.771 216.192 270.995 216.192 263.87 203.878L248.744 177.735C242.005 166.088 225.189 166.088 218.449 177.735L203.324 203.878C196.2 216.192 178.422 216.192 171.298 203.878L156.173 177.735C149.433 166.088 132.617 166.088 125.878 177.735L110.753 203.878C103.629 216.192 85.851 216.192 78.7266 203.878L63.6016 177.735C56.8622 166.088 40.046 166.088 33.3066 177.735L18.1816 203.878C11.0572 216.192 -6.72032 216.192 -13.8447 203.878L-28.9697 177.735C-35.709 166.088 -52.5252 166.088 -59.2646 177.735L-80.1348 213.807L-81 213.307L-60.1299 177.235C-53.0055 164.922 -35.2289 164.922 -28.1045 177.235L-12.9795 203.378C-6.24024 215.026 10.576 215.026 17.3154 203.378L32.4414 177.235C39.5658 164.922 57.3424 164.922 64.4668 177.235L79.5928 203.378C86.3322 215.026 103.148 215.026 109.888 203.378L125.013 177.235C132.137 164.922 149.914 164.922 157.038 177.235L172.164 203.378C178.904 215.026 195.72 215.026 202.459 203.378L217.584 177.235C224.708 164.922 242.486 164.922 249.61 177.235L264.735 203.378C271.475 215.026 288.291 215.026 295.03 203.378L310.155 177.235C317.28 164.922 335.057 164.922 342.182 177.235L357.307 203.378C364.046 215.026 380.862 215.026 387.602 203.378L402.727 177.235C409.851 164.922 427.629 164.922 434.753 177.235L449.878 203.378C456.617 215.026 473.434 215.026 480.173 203.378L495.298 177.235Z" fill="#A4DCEF"/>
<path d="M495.298 201.235C502.422 188.922 520.2 188.922 527.324 201.235L548.194 237.307L547.328 237.807L526.459 201.735C519.72 190.088 502.904 190.088 496.164 201.735L481.038 227.878C473.914 240.192 456.137 240.192 449.013 227.878L433.888 201.735C427.148 190.087 410.332 190.088 403.593 201.735L388.467 227.878C381.342 240.192 363.566 240.192 356.441 227.878L341.315 201.735C334.576 190.088 317.76 190.088 311.021 201.735L295.896 227.878C288.771 240.192 270.995 240.192 263.87 227.878L248.744 201.735C242.005 190.088 225.189 190.088 218.449 201.735L203.324 227.878C196.2 240.192 178.422 240.192 171.298 227.878L156.173 201.735C149.433 190.088 132.617 190.088 125.878 201.735L110.753 227.878C103.629 240.192 85.851 240.192 78.7266 227.878L63.6016 201.735C56.8622 190.088 40.046 190.088 33.3066 201.735L18.1816 227.878C11.0572 240.192 -6.72032 240.192 -13.8447 227.878L-28.9697 201.735C-35.709 190.088 -52.5252 190.088 -59.2646 201.735L-80.1348 237.807L-81 237.307L-60.1299 201.235C-53.0055 188.922 -35.2289 188.922 -28.1045 201.235L-12.9795 227.378C-6.24024 239.026 10.576 239.026 17.3154 227.378L32.4414 201.235C39.5658 188.922 57.3424 188.922 64.4668 201.235L79.5928 227.378C86.3322 239.026 103.148 239.026 109.888 227.378L125.013 201.235C132.137 188.922 149.914 188.922 157.038 201.235L172.164 227.378C178.904 239.026 195.72 239.026 202.459 227.378L217.584 201.235C224.708 188.922 242.486 188.922 249.61 201.235L264.735 227.378C271.475 239.026 288.291 239.026 295.03 227.378L310.155 201.235C317.28 188.922 335.057 188.922 342.182 201.235L357.307 227.378C364.046 239.026 380.862 239.026 387.602 227.378L402.727 201.235C409.851 188.922 427.629 188.922 434.753 201.235L449.878 227.378C456.617 239.026 473.434 239.026 480.173 227.378L495.298 201.235Z" fill="#A4DCEF"/>
<path d="M495.298 225.235C502.422 212.922 520.2 212.922 527.324 225.235L548.194 261.307L547.328 261.807L526.459 225.735C519.72 214.088 502.904 214.088 496.164 225.735L481.038 251.878C473.914 264.192 456.137 264.192 449.013 251.878L433.888 225.735C427.148 214.087 410.332 214.088 403.593 225.735L388.467 251.878C381.342 264.192 363.566 264.192 356.441 251.878L341.315 225.735C334.576 214.088 317.76 214.088 311.021 225.735L295.896 251.878C288.771 264.192 270.995 264.192 263.87 251.878L248.744 225.735C242.005 214.088 225.189 214.088 218.449 225.735L203.324 251.878C196.2 264.192 178.422 264.192 171.298 251.878L156.173 225.735C149.433 214.088 132.617 214.088 125.878 225.735L110.753 251.878C103.629 264.192 85.851 264.192 78.7266 251.878L63.6016 225.735C56.8622 214.088 40.046 214.088 33.3066 225.735L18.1816 251.878C11.0572 264.192 -6.72032 264.192 -13.8447 251.878L-28.9697 225.735C-35.709 214.088 -52.5252 214.088 -59.2646 225.735L-80.1348 261.807L-81 261.307L-60.1299 225.235C-53.0055 212.922 -35.2289 212.922 -28.1045 225.235L-12.9795 251.378C-6.24024 263.026 10.576 263.026 17.3154 251.378L32.4414 225.235C39.5658 212.922 57.3424 212.922 64.4668 225.235L79.5928 251.378C86.3322 263.026 103.148 263.026 109.888 251.378L125.013 225.235C132.137 212.922 149.914 212.922 157.038 225.235L172.164 251.378C178.904 263.026 195.72 263.026 202.459 251.378L217.584 225.235C224.708 212.922 242.486 212.922 249.61 225.235L264.735 251.378C271.475 263.026 288.291 263.026 295.03 251.378L310.155 225.235C317.28 212.922 335.057 212.922 342.182 225.235L357.307 251.378C364.046 263.026 380.862 263.026 387.602 251.378L402.727 225.235C409.851 212.922 427.629 212.922 434.753 225.235L449.878 251.378C456.617 263.026 473.434 263.026 480.173 251.378L495.298 225.235Z" fill="#A4DCEF"/>
<path d="M495.298 248.235C502.422 235.922 520.2 235.922 527.324 248.235L548.194 284.307L547.328 284.807L526.459 248.735C519.72 237.088 502.904 237.088 496.164 248.735L481.038 274.878C473.914 287.192 456.137 287.192 449.013 274.878L433.888 248.735C427.148 237.087 410.332 237.088 403.593 248.735L388.467 274.878C381.342 287.192 363.566 287.192 356.441 274.878L341.315 248.735C334.576 237.088 317.76 237.088 311.021 248.735L295.896 274.878C288.771 287.192 270.995 287.192 263.87 274.878L248.744 248.735C242.005 237.088 225.189 237.088 218.449 248.735L203.324 274.878C196.2 287.192 178.422 287.192 171.298 274.878L156.173 248.735C149.433 237.088 132.617 237.088 125.878 248.735L110.753 274.878C103.629 287.192 85.851 287.192 78.7266 274.878L63.6016 248.735C56.8622 237.088 40.046 237.088 33.3066 248.735L18.1816 274.878C11.0572 287.192 -6.72032 287.192 -13.8447 274.878L-28.9697 248.735C-35.709 237.088 -52.5252 237.088 -59.2646 248.735L-80.1348 284.807L-81 284.307L-60.1299 248.235C-53.0055 235.922 -35.2289 235.922 -28.1045 248.235L-12.9795 274.378C-6.24024 286.026 10.576 286.026 17.3154 274.378L32.4414 248.235C39.5658 235.922 57.3424 235.922 64.4668 248.235L79.5928 274.378C86.3322 286.026 103.148 286.026 109.888 274.378L125.013 248.235C132.137 235.922 149.914 235.922 157.038 248.235L172.164 274.378C178.904 286.026 195.72 286.026 202.459 274.378L217.584 248.235C224.708 235.922 242.486 235.922 249.61 248.235L264.735 274.378C271.475 286.026 288.291 286.026 295.03 274.378L310.155 248.235C317.28 235.922 335.057 235.922 342.182 248.235L357.307 274.378C364.046 286.026 380.862 286.026 387.602 274.378L402.727 248.235C409.851 235.922 427.629 235.922 434.753 248.235L449.878 274.378C456.617 286.026 473.434 286.026 480.173 274.378L495.298 248.235Z" fill="#A4DCEF"/>
<path d="M495.298 272.235C502.422 259.922 520.2 259.922 527.324 272.235L548.194 308.307L547.328 308.807L526.459 272.735C519.72 261.088 502.904 261.088 496.164 272.735L481.038 298.878C473.914 311.192 456.137 311.192 449.013 298.878L433.888 272.735C427.148 261.087 410.332 261.088 403.593 272.735L388.467 298.878C381.342 311.192 363.566 311.192 356.441 298.878L341.315 272.735C334.576 261.088 317.76 261.088 311.021 272.735L295.896 298.878C288.771 311.192 270.995 311.192 263.87 298.878L248.744 272.735C242.005 261.088 225.189 261.088 218.449 272.735L203.324 298.878C196.2 311.192 178.422 311.192 171.298 298.878L156.173 272.735C149.433 261.088 132.617 261.088 125.878 272.735L110.753 298.878C103.629 311.192 85.851 311.192 78.7266 298.878L63.6016 272.735C56.8622 261.088 40.046 261.088 33.3066 272.735L18.1816 298.878C11.0572 311.192 -6.72032 311.192 -13.8447 298.878L-28.9697 272.735C-35.709 261.088 -52.5252 261.088 -59.2646 272.735L-80.1348 308.807L-81 308.307L-60.1299 272.235C-53.0055 259.922 -35.2289 259.922 -28.1045 272.235L-12.9795 298.378C-6.24024 310.026 10.576 310.026 17.3154 298.378L32.4414 272.235C39.5658 259.922 57.3424 259.922 64.4668 272.235L79.5928 298.378C86.3322 310.026 103.148 310.026 109.888 298.378L125.013 272.235C132.137 259.922 149.914 259.922 157.038 272.235L172.164 298.378C178.904 310.026 195.72 310.026 202.459 298.378L217.584 272.235C224.708 259.922 242.486 259.922 249.61 272.235L264.735 298.378C271.475 310.026 288.291 310.026 295.03 298.378L310.155 272.235C317.28 259.922 335.057 259.922 342.182 272.235L357.307 298.378C364.046 310.026 380.862 310.026 387.602 298.378L402.727 272.235C409.851 259.922 427.629 259.922 434.753 272.235L449.878 298.378C456.617 310.026 473.434 310.026 480.173 298.378L495.298 272.235Z" fill="#A4DCEF"/>
<path d="M495.298 296.235C502.422 283.922 520.2 283.922 527.324 296.235L548.194 332.307L547.328 332.807L526.459 296.735C519.72 285.088 502.904 285.088 496.164 296.735L481.038 322.878C473.914 335.192 456.137 335.192 449.013 322.878L433.888 296.735C427.148 285.087 410.332 285.088 403.593 296.735L388.467 322.878C381.342 335.192 363.566 335.192 356.441 322.878L341.315 296.735C334.576 285.088 317.76 285.088 311.021 296.735L295.896 322.878C288.771 335.192 270.995 335.192 263.87 322.878L248.744 296.735C242.005 285.088 225.189 285.088 218.449 296.735L203.324 322.878C196.2 335.192 178.422 335.192 171.298 322.878L156.173 296.735C149.433 285.088 132.617 285.088 125.878 296.735L110.753 322.878C103.629 335.192 85.851 335.192 78.7266 322.878L63.6016 296.735C56.8622 285.088 40.046 285.088 33.3066 296.735L18.1816 322.878C11.0572 335.192 -6.72032 335.192 -13.8447 322.878L-28.9697 296.735C-35.709 285.088 -52.5252 285.088 -59.2646 296.735L-80.1348 332.807L-81 332.307L-60.1299 296.235C-53.0055 283.922 -35.2289 283.922 -28.1045 296.235L-12.9795 322.378C-6.24024 334.026 10.576 334.026 17.3154 322.378L32.4414 296.235C39.5658 283.922 57.3424 283.922 64.4668 296.235L79.5928 322.378C86.3322 334.026 103.148 334.026 109.888 322.378L125.013 296.235C132.137 283.922 149.914 283.922 157.038 296.235L172.164 322.378C178.904 334.026 195.72 334.026 202.459 322.378L217.584 296.235C224.708 283.922 242.486 283.922 249.61 296.235L264.735 322.378C271.475 334.026 288.291 334.026 295.03 322.378L310.155 296.235C317.28 283.922 335.057 283.922 342.182 296.235L357.307 322.378C364.046 334.026 380.862 334.026 387.602 322.378L402.727 296.235C409.851 283.922 427.629 283.922 434.753 296.235L449.878 322.378C456.617 334.026 473.434 334.026 480.173 322.378L495.298 296.235Z" fill="#A4DCEF"/>
<path d="M495.298 320.235C502.422 307.922 520.2 307.922 527.324 320.235L548.194 356.307L547.328 356.807L526.459 320.735C519.72 309.088 502.904 309.088 496.164 320.735L481.038 346.878C473.914 359.192 456.137 359.192 449.013 346.878L433.888 320.735C427.148 309.087 410.332 309.088 403.593 320.735L388.467 346.878C381.342 359.192 363.566 359.192 356.441 346.878L341.315 320.735C334.576 309.088 317.76 309.088 311.021 320.735L295.896 346.878C288.771 359.192 270.995 359.192 263.87 346.878L248.744 320.735C242.005 309.088 225.189 309.088 218.449 320.735L203.324 346.878C196.2 359.192 178.422 359.192 171.298 346.878L156.173 320.735C149.433 309.088 132.617 309.088 125.878 320.735L110.753 346.878C103.629 359.192 85.851 359.192 78.7266 346.878L63.6016 320.735C56.8622 309.088 40.046 309.088 33.3066 320.735L18.1816 346.878C11.0572 359.192 -6.72032 359.192 -13.8447 346.878L-28.9697 320.735C-35.709 309.088 -52.5252 309.088 -59.2646 320.735L-80.1348 356.807L-81 356.307L-60.1299 320.235C-53.0055 307.922 -35.2289 307.922 -28.1045 320.235L-12.9795 346.378C-6.24024 358.026 10.576 358.026 17.3154 346.378L32.4414 320.235C39.5658 307.922 57.3424 307.922 64.4668 320.235L79.5928 346.378C86.3322 358.026 103.148 358.026 109.888 346.378L125.013 320.235C132.137 307.922 149.914 307.922 157.038 320.235L172.164 346.378C178.904 358.026 195.72 358.026 202.459 346.378L217.584 320.235C224.708 307.922 242.486 307.922 249.61 320.235L264.735 346.378C271.475 358.026 288.291 358.026 295.03 346.378L310.155 320.235C317.28 307.922 335.057 307.922 342.182 320.235L357.307 346.378C364.046 358.026 380.862 358.026 387.602 346.378L402.727 320.235C409.851 307.922 427.629 307.922 434.753 320.235L449.878 346.378C456.617 358.026 473.434 358.026 480.173 346.378L495.298 320.235Z" fill="#A4DCEF"/>
<path d="M495.298 344.235C502.422 331.922 520.2 331.922 527.324 344.235L548.194 380.307L547.328 380.807L526.459 344.735C519.72 333.088 502.904 333.088 496.164 344.735L481.038 370.878C473.914 383.192 456.137 383.192 449.013 370.878L433.888 344.735C427.148 333.087 410.332 333.088 403.593 344.735L388.467 370.878C381.342 383.192 363.566 383.192 356.441 370.878L341.315 344.735C334.576 333.088 317.76 333.088 311.021 344.735L295.896 370.878C288.771 383.192 270.995 383.192 263.87 370.878L248.744 344.735C242.005 333.088 225.189 333.088 218.449 344.735L203.324 370.878C196.2 383.192 178.422 383.192 171.298 370.878L156.173 344.735C149.433 333.088 132.617 333.088 125.878 344.735L110.753 370.878C103.629 383.192 85.851 383.192 78.7266 370.878L63.6016 344.735C56.8622 333.088 40.046 333.088 33.3066 344.735L18.1816 370.878C11.0572 383.192 -6.72032 383.192 -13.8447 370.878L-28.9697 344.735C-35.709 333.088 -52.5252 333.088 -59.2646 344.735L-80.1348 380.807L-81 380.307L-60.1299 344.235C-53.0055 331.922 -35.2289 331.922 -28.1045 344.235L-12.9795 370.378C-6.24024 382.026 10.576 382.026 17.3154 370.378L32.4414 344.235C39.5658 331.922 57.3424 331.922 64.4668 344.235L79.5928 370.378C86.3322 382.026 103.148 382.026 109.888 370.378L125.013 344.235C132.137 331.922 149.914 331.922 157.038 344.235L172.164 370.378C178.904 382.026 195.72 382.026 202.459 370.378L217.584 344.235C224.708 331.922 242.486 331.922 249.61 344.235L264.735 370.378C271.475 382.026 288.291 382.026 295.03 370.378L310.155 344.235C317.28 331.922 335.057 331.922 342.182 344.235L357.307 370.378C364.046 382.026 380.862 382.026 387.602 370.378L402.727 344.235C409.851 331.922 427.629 331.922 434.753 344.235L449.878 370.378C456.617 382.026 473.434 382.026 480.173 370.378L495.298 344.235Z" fill="#A4DCEF"/>
<path d="M495.298 368.235C502.422 355.922 520.2 355.922 527.324 368.235L548.194 404.307L547.328 404.807L526.459 368.735C519.72 357.088 502.904 357.088 496.164 368.735L481.038 394.878C473.914 407.192 456.137 407.192 449.013 394.878L433.888 368.735C427.148 357.087 410.332 357.088 403.593 368.735L388.467 394.878C381.342 407.192 363.566 407.192 356.441 394.878L341.315 368.735C334.576 357.088 317.76 357.088 311.021 368.735L295.896 394.878C288.771 407.192 270.995 407.192 263.87 394.878L248.744 368.735C242.005 357.088 225.189 357.088 218.449 368.735L203.324 394.878C196.2 407.192 178.422 407.192 171.298 394.878L156.173 368.735C149.433 357.088 132.617 357.088 125.878 368.735L110.753 394.878C103.629 407.192 85.851 407.192 78.7266 394.878L63.6016 368.735C56.8622 357.088 40.046 357.088 33.3066 368.735L18.1816 394.878C11.0572 407.192 -6.72032 407.192 -13.8447 394.878L-28.9697 368.735C-35.709 357.088 -52.5252 357.088 -59.2646 368.735L-80.1348 404.807L-81 404.307L-60.1299 368.235C-53.0055 355.922 -35.2289 355.922 -28.1045 368.235L-12.9795 394.378C-6.24024 406.026 10.576 406.026 17.3154 394.378L32.4414 368.235C39.5658 355.922 57.3424 355.922 64.4668 368.235L79.5928 394.378C86.3322 406.026 103.148 406.026 109.888 394.378L125.013 368.235C132.137 355.922 149.914 355.922 157.038 368.235L172.164 394.378C178.904 406.026 195.72 406.026 202.459 394.378L217.584 368.235C224.708 355.922 242.486 355.922 249.61 368.235L264.735 394.378C271.475 406.026 288.291 406.026 295.03 394.378L310.155 368.235C317.28 355.922 335.057 355.922 342.182 368.235L357.307 394.378C364.046 406.026 380.862 406.026 387.602 394.378L402.727 368.235C409.851 355.922 427.629 355.922 434.753 368.235L449.878 394.378C456.617 406.026 473.434 406.026 480.173 394.378L495.298 368.235Z" fill="#A4DCEF"/>
<path d="M495.298 392.235C502.422 379.922 520.2 379.922 527.324 392.235L548.194 428.307L547.328 428.807L526.459 392.735C519.72 381.088 502.904 381.088 496.164 392.735L481.038 418.878C473.914 431.192 456.137 431.192 449.013 418.878L433.888 392.735C427.148 381.087 410.332 381.088 403.593 392.735L388.467 418.878C381.342 431.192 363.566 431.192 356.441 418.878L341.315 392.735C334.576 381.088 317.76 381.088 311.021 392.735L295.896 418.878C288.771 431.192 270.995 431.192 263.87 418.878L248.744 392.735C242.005 381.088 225.189 381.088 218.449 392.735L203.324 418.878C196.2 431.192 178.422 431.192 171.298 418.878L156.173 392.735C149.433 381.088 132.617 381.088 125.878 392.735L110.753 418.878C103.629 431.192 85.851 431.192 78.7266 418.878L63.6016 392.735C56.8622 381.088 40.046 381.088 33.3066 392.735L18.1816 418.878C11.0572 431.192 -6.72032 431.192 -13.8447 418.878L-28.9697 392.735C-35.709 381.088 -52.5252 381.088 -59.2646 392.735L-80.1348 428.807L-81 428.307L-60.1299 392.235C-53.0055 379.922 -35.2289 379.922 -28.1045 392.235L-12.9795 418.378C-6.24024 430.026 10.576 430.026 17.3154 418.378L32.4414 392.235C39.5658 379.922 57.3424 379.922 64.4668 392.235L79.5928 418.378C86.3322 430.026 103.148 430.026 109.888 418.378L125.013 392.235C132.137 379.922 149.914 379.922 157.038 392.235L172.164 418.378C178.904 430.026 195.72 430.026 202.459 418.378L217.584 392.235C224.708 379.922 242.486 379.922 249.61 392.235L264.735 418.378C271.475 430.026 288.291 430.026 295.03 418.378L310.155 392.235C317.28 379.922 335.057 379.922 342.182 392.235L357.307 418.378C364.046 430.026 380.862 430.026 387.602 418.378L402.727 392.235C409.851 379.922 427.629 379.922 434.753 392.235L449.878 418.378C456.617 430.026 473.434 430.026 480.173 418.378L495.298 392.235Z" fill="#A4DCEF"/>
<path d="M495.298 416.235C502.422 403.922 520.2 403.922 527.324 416.235L548.194 452.307L547.328 452.807L526.459 416.735C519.72 405.088 502.904 405.088 496.164 416.735L481.038 442.878C473.914 455.192 456.137 455.192 449.013 442.878L433.888 416.735C427.148 405.087 410.332 405.088 403.593 416.735L388.467 442.878C381.342 455.192 363.566 455.192 356.441 442.878L341.315 416.735C334.576 405.088 317.76 405.088 311.021 416.735L295.896 442.878C288.771 455.192 270.995 455.192 263.87 442.878L248.744 416.735C242.005 405.088 225.189 405.088 218.449 416.735L203.324 442.878C196.2 455.192 178.422 455.192 171.298 442.878L156.173 416.735C149.433 405.088 132.617 405.088 125.878 416.735L110.753 442.878C103.629 455.192 85.851 455.192 78.7266 442.878L63.6016 416.735C56.8622 405.088 40.046 405.088 33.3066 416.735L18.1816 442.878C11.0572 455.192 -6.72032 455.192 -13.8447 442.878L-28.9697 416.735C-35.709 405.088 -52.5252 405.088 -59.2646 416.735L-80.1348 452.807L-81 452.307L-60.1299 416.235C-53.0055 403.922 -35.2289 403.922 -28.1045 416.235L-12.9795 442.378C-6.24024 454.026 10.576 454.026 17.3154 442.378L32.4414 416.235C39.5658 403.922 57.3424 403.922 64.4668 416.235L79.5928 442.378C86.3322 454.026 103.148 454.026 109.888 442.378L125.013 416.235C132.137 403.922 149.914 403.922 157.038 416.235L172.164 442.378C178.904 454.026 195.72 454.026 202.459 442.378L217.584 416.235C224.708 403.922 242.486 403.922 249.61 416.235L264.735 442.378C271.475 454.026 288.291 454.026 295.03 442.378L310.155 416.235C317.28 403.922 335.057 403.922 342.182 416.235L357.307 442.378C364.046 454.026 380.862 454.026 387.602 442.378L402.727 416.235C409.851 403.922 427.629 403.922 434.753 416.235L449.878 442.378C456.617 454.026 473.434 454.026 480.173 442.378L495.298 416.235Z" fill="#A4DCEF"/>
<path d="M495.298 440.235C502.422 427.922 520.2 427.922 527.324 440.235L548.194 476.307L547.328 476.807L526.459 440.735C519.72 429.088 502.904 429.088 496.164 440.735L481.038 466.878C473.914 479.192 456.137 479.192 449.013 466.878L433.888 440.735C427.148 429.087 410.332 429.088 403.593 440.735L388.467 466.878C381.342 479.192 363.566 479.192 356.441 466.878L341.315 440.735C334.576 429.088 317.76 429.088 311.021 440.735L295.896 466.878C288.771 479.192 270.995 479.192 263.87 466.878L248.744 440.735C242.005 429.088 225.189 429.088 218.449 440.735L203.324 466.878C196.2 479.192 178.422 479.192 171.298 466.878L156.173 440.735C149.433 429.088 132.617 429.088 125.878 440.735L110.753 466.878C103.629 479.192 85.851 479.192 78.7266 466.878L63.6016 440.735C56.8622 429.088 40.046 429.088 33.3066 440.735L18.1816 466.878C11.0572 479.192 -6.72032 479.192 -13.8447 466.878L-28.9697 440.735C-35.709 429.088 -52.5252 429.088 -59.2646 440.735L-80.1348 476.807L-81 476.307L-60.1299 440.235C-53.0055 427.922 -35.2289 427.922 -28.1045 440.235L-12.9795 466.378C-6.24024 478.026 10.576 478.026 17.3154 466.378L32.4414 440.235C39.5658 427.922 57.3424 427.922 64.4668 440.235L79.5928 466.378C86.3322 478.026 103.148 478.026 109.888 466.378L125.013 440.235C132.137 427.922 149.914 427.922 157.038 440.235L172.164 466.378C178.904 478.026 195.72 478.026 202.459 466.378L217.584 440.235C224.708 427.922 242.486 427.922 249.61 440.235L264.735 466.378C271.475 478.026 288.291 478.026 295.03 466.378L310.155 440.235C317.28 427.922 335.057 427.922 342.182 440.235L357.307 466.378C364.046 478.026 380.862 478.026 387.602 466.378L402.727 440.235C409.851 427.922 427.629 427.922 434.753 440.235L449.878 466.378C456.617 478.026 473.434 478.026 480.173 466.378L495.298 440.235Z" fill="#A4DCEF"/>
<path d="M495.298 464.235C502.422 451.922 520.2 451.922 527.324 464.235L548.194 500.307L547.328 500.807L526.459 464.735C519.72 453.088 502.904 453.088 496.164 464.735L481.038 490.878C473.914 503.192 456.137 503.192 449.013 490.878L433.888 464.735C427.148 453.087 410.332 453.088 403.593 464.735L388.467 490.878C381.342 503.192 363.566 503.192 356.441 490.878L341.315 464.735C334.576 453.088 317.76 453.088 311.021 464.735L295.896 490.878C288.771 503.192 270.995 503.192 263.87 490.878L248.744 464.735C242.005 453.088 225.189 453.088 218.449 464.735L203.324 490.878C196.2 503.192 178.422 503.192 171.298 490.878L156.173 464.735C149.433 453.088 132.617 453.088 125.878 464.735L110.753 490.878C103.629 503.192 85.851 503.192 78.7266 490.878L63.6016 464.735C56.8622 453.088 40.046 453.088 33.3066 464.735L18.1816 490.878C11.0572 503.192 -6.72032 503.192 -13.8447 490.878L-28.9697 464.735C-35.709 453.088 -52.5252 453.088 -59.2646 464.735L-80.1348 500.807L-81 500.307L-60.1299 464.235C-53.0055 451.922 -35.2289 451.922 -28.1045 464.235L-12.9795 490.378C-6.24024 502.026 10.576 502.026 17.3154 490.378L32.4414 464.235C39.5658 451.922 57.3424 451.922 64.4668 464.235L79.5928 490.378C86.3322 502.026 103.148 502.026 109.888 490.378L125.013 464.235C132.137 451.922 149.914 451.922 157.038 464.235L172.164 490.378C178.904 502.026 195.72 502.026 202.459 490.378L217.584 464.235C224.708 451.922 242.486 451.922 249.61 464.235L264.735 490.378C271.475 502.026 288.291 502.026 295.03 490.378L310.155 464.235C317.28 451.922 335.057 451.922 342.182 464.235L357.307 490.378C364.046 502.026 380.862 502.026 387.602 490.378L402.727 464.235C409.851 451.922 427.629 451.922 434.753 464.235L449.878 490.378C456.617 502.026 473.434 502.026 480.173 490.378L495.298 464.235Z" fill="#A4DCEF"/>
</g>
<defs>
<clipPath id="clip0_2953_225">
<path d="M0 0H468V240C468 248.837 460.837 256 452 256H16C7.16344 256 0 248.837 0 240V0Z" fill="white"/>
</clipPath>
</defs>
</svg>
