<svg width="468" height="256" viewBox="0 0 468 256" fill="none" xmlns="http://www.w3.org/2000/svg">
<path d="M8.5 170.667C8.49996 187.46 5.74485 208.827 2.99413 225.977C1.61822 234.555 0.241898 242.085 -0.790046 247.472C-1.30601 250.165 -1.73602 252.322 -2.03712 253.807C-2.18767 254.549 -2.30601 255.123 -2.38673 255.512C-2.42706 255.706 -2.45862 255.854 -2.4795 255.953C-2.48991 256.003 -2.49762 256.04 -2.50294 256.065C-2.50555 256.078 -2.50745 256.087 -2.5088 256.094C-2.50947 256.097 -2.51075 256.102 -2.51075 256.102V256.104C-2.51075 256.104 -2.53302 256.099 -3.00001 256C-3.4891 255.896 -3.48927 255.896 -3.48927 255.896L-3.48829 255.894C-3.48829 255.894 -3.48791 255.89 -3.48731 255.887C-3.48601 255.881 -3.48401 255.871 -3.48145 255.859C-3.4762 255.835 -3.46839 255.796 -3.45802 255.747C-3.43728 255.648 -3.40638 255.501 -3.36622 255.308C-3.28582 254.921 -3.16773 254.349 -3.01759 253.608C-2.71714 252.127 -2.2877 249.973 -1.77247 247.284C-0.741935 241.905 0.631827 234.384 2.00585 225.817C4.75507 208.677 7.49996 187.377 7.5 170.667C7.5 153.973 4.76064 141.061 2.01074 128.104C-0.739333 115.146 -3.5 102.142 -3.5 85.333C-3.49996 68.5239 -0.739334 55.5204 2.01074 42.5625C4.76062 29.6055 7.5 16.6938 7.5 0L8.5 4.37112e-08C8.5 16.8093 5.73936 29.8125 2.98926 42.7705C0.239378 55.7275 -2.49996 68.6392 -2.5 85.333C-2.5 102.027 0.239357 114.939 2.98926 127.896C5.73933 140.854 8.5 153.858 8.5 170.667Z" fill="#F2D6BC"/>
<path d="M24.5 170.667C24.5 187.46 21.7449 208.827 18.9941 225.977C17.6182 234.555 16.2419 242.085 15.21 247.472C14.694 250.165 14.264 252.322 13.9629 253.807C13.8123 254.549 13.694 255.123 13.6133 255.512C13.5729 255.706 13.5414 255.854 13.5205 255.953C13.5101 256.003 13.5024 256.04 13.4971 256.065C13.4944 256.078 13.4926 256.087 13.4912 256.094C13.4905 256.097 13.4893 256.102 13.4893 256.102V256.104C13.4893 256.104 13.467 256.099 13 256C12.5109 255.896 12.5107 255.896 12.5107 255.896L12.5117 255.894C12.5117 255.894 12.5121 255.89 12.5127 255.887C12.514 255.881 12.516 255.871 12.5185 255.859C12.5238 255.835 12.5316 255.796 12.542 255.747C12.5627 255.648 12.5936 255.501 12.6338 255.308C12.7142 254.921 12.8323 254.349 12.9824 253.608C13.2829 252.127 13.7123 249.973 14.2275 247.284C15.2581 241.905 16.6318 234.384 18.0059 225.817C20.7551 208.677 23.5 187.377 23.5 170.667C23.5 153.973 20.7606 141.061 18.0107 128.104C15.2607 115.146 12.5 102.142 12.5 85.333C12.5 68.5239 15.2607 55.5204 18.0107 42.5625C20.7606 29.6055 23.5 16.6938 23.5 0L24.5 4.37112e-08C24.5 16.8093 21.7394 29.8125 18.9893 42.7705C16.2394 55.7275 13.5 68.6392 13.5 85.333C13.5 102.027 16.2394 114.939 18.9893 127.896C21.7393 140.854 24.5 153.858 24.5 170.667Z" fill="#F2D6BC"/>
<path d="M40.5 170.667C40.5 187.46 37.7449 208.827 34.9941 225.977C33.6182 234.555 32.2419 242.085 31.21 247.472C30.694 250.165 30.264 252.322 29.9629 253.807C29.8123 254.549 29.694 255.123 29.6133 255.512C29.5729 255.706 29.5414 255.854 29.5205 255.953C29.5101 256.003 29.5024 256.04 29.4971 256.065C29.4944 256.078 29.4926 256.087 29.4912 256.094C29.4905 256.097 29.4893 256.102 29.4893 256.102V256.104C29.4893 256.104 29.467 256.099 29 256C28.5109 255.896 28.5107 255.896 28.5107 255.896L28.5117 255.894C28.5117 255.894 28.5121 255.89 28.5127 255.887C28.514 255.881 28.516 255.871 28.5185 255.859C28.5238 255.835 28.5316 255.796 28.542 255.747C28.5627 255.648 28.5936 255.501 28.6338 255.308C28.7142 254.921 28.8323 254.349 28.9824 253.608C29.2829 252.127 29.7123 249.973 30.2275 247.284C31.2581 241.905 32.6318 234.384 34.0059 225.817C36.7551 208.677 39.5 187.377 39.5 170.667C39.5 153.973 36.7606 141.061 34.0107 128.104C31.2607 115.146 28.5 102.142 28.5 85.333C28.5 68.5239 31.2607 55.5204 34.0107 42.5625C36.7606 29.6055 39.5 16.6938 39.5 0L40.5 4.37112e-08C40.5 16.8093 37.7394 29.8125 34.9893 42.7705C32.2394 55.7275 29.5 68.6392 29.5 85.333C29.5 102.027 32.2394 114.939 34.9893 127.896C37.7393 140.854 40.5 153.858 40.5 170.667Z" fill="#F2D6BC"/>
<path d="M56.5 170.667C56.5 187.46 53.7449 208.827 50.9941 225.977C49.6182 234.555 48.2419 242.085 47.21 247.472C46.694 250.165 46.264 252.322 45.9629 253.807C45.8123 254.549 45.694 255.123 45.6133 255.512C45.5729 255.706 45.5414 255.854 45.5205 255.953C45.5101 256.003 45.5024 256.04 45.4971 256.065C45.4944 256.078 45.4926 256.087 45.4912 256.094C45.4905 256.097 45.4893 256.102 45.4893 256.102V256.104C45.4893 256.104 45.467 256.099 45 256C44.5109 255.896 44.5107 255.896 44.5107 255.896L44.5117 255.894C44.5117 255.894 44.5121 255.89 44.5127 255.887C44.514 255.881 44.516 255.871 44.5185 255.859C44.5238 255.835 44.5316 255.796 44.542 255.747C44.5627 255.648 44.5936 255.501 44.6338 255.308C44.7142 254.921 44.8323 254.349 44.9824 253.608C45.2829 252.127 45.7123 249.973 46.2275 247.284C47.2581 241.905 48.6318 234.384 50.0059 225.817C52.7551 208.677 55.5 187.377 55.5 170.667C55.5 153.973 52.7606 141.061 50.0107 128.104C47.2607 115.146 44.5 102.142 44.5 85.333C44.5 68.5239 47.2607 55.5204 50.0107 42.5625C52.7606 29.6055 55.5 16.6938 55.5 0L56.5 4.37112e-08C56.5 16.8093 53.7394 29.8125 50.9893 42.7705C48.2394 55.7275 45.5 68.6392 45.5 85.333C45.5 102.027 48.2394 114.939 50.9893 127.896C53.7393 140.854 56.5 153.858 56.5 170.667Z" fill="#F2D6BC"/>
<path d="M72.5 170.667C72.5 187.46 69.7449 208.827 66.9941 225.977C65.6182 234.555 64.2419 242.085 63.21 247.472C62.694 250.165 62.264 252.322 61.9629 253.807C61.8123 254.549 61.694 255.123 61.6133 255.512C61.5729 255.706 61.5414 255.854 61.5205 255.953C61.5101 256.003 61.5024 256.04 61.4971 256.065C61.4944 256.078 61.4926 256.087 61.4912 256.094C61.4905 256.097 61.4893 256.102 61.4893 256.102V256.104C61.4893 256.104 61.467 256.099 61 256C60.5109 255.896 60.5107 255.896 60.5107 255.896L60.5117 255.894C60.5117 255.894 60.5121 255.89 60.5127 255.887C60.514 255.881 60.516 255.871 60.5185 255.859C60.5238 255.835 60.5316 255.796 60.542 255.747C60.5627 255.648 60.5936 255.501 60.6338 255.308C60.7142 254.921 60.8323 254.349 60.9824 253.608C61.2829 252.127 61.7123 249.973 62.2275 247.284C63.2581 241.905 64.6318 234.384 66.0059 225.817C68.7551 208.677 71.5 187.377 71.5 170.667C71.5 153.973 68.7606 141.061 66.0107 128.104C63.2607 115.146 60.5 102.142 60.5 85.333C60.5 68.5239 63.2607 55.5204 66.0107 42.5625C68.7606 29.6055 71.5 16.6938 71.5 0L72.5 4.37112e-08C72.5 16.8093 69.7394 29.8125 66.9893 42.7705C64.2394 55.7275 61.5 68.6392 61.5 85.333C61.5 102.027 64.2394 114.939 66.9893 127.896C69.7393 140.854 72.5 153.858 72.5 170.667Z" fill="#F2D6BC"/>
<path d="M88.5 170.667C88.5 187.46 85.7449 208.827 82.9941 225.977C81.6182 234.555 80.2419 242.085 79.21 247.472C78.694 250.165 78.264 252.322 77.9629 253.807C77.8123 254.549 77.694 255.123 77.6133 255.512C77.5729 255.706 77.5414 255.854 77.5205 255.953C77.5101 256.003 77.5024 256.04 77.4971 256.065C77.4944 256.078 77.4926 256.087 77.4912 256.094C77.4905 256.097 77.4893 256.102 77.4893 256.102V256.104C77.4893 256.104 77.467 256.099 77 256C76.5109 255.896 76.5107 255.896 76.5107 255.896L76.5117 255.894C76.5117 255.894 76.5121 255.89 76.5127 255.887C76.514 255.881 76.516 255.871 76.5185 255.859C76.5238 255.835 76.5316 255.796 76.542 255.747C76.5627 255.648 76.5936 255.501 76.6338 255.308C76.7142 254.921 76.8323 254.349 76.9824 253.608C77.2829 252.127 77.7123 249.973 78.2275 247.284C79.2581 241.905 80.6318 234.384 82.0059 225.817C84.7551 208.677 87.5 187.377 87.5 170.667C87.5 153.973 84.7606 141.061 82.0107 128.104C79.2607 115.146 76.5 102.142 76.5 85.333C76.5 68.5239 79.2607 55.5204 82.0107 42.5625C84.7606 29.6055 87.5 16.6938 87.5 0L88.5 4.37112e-08C88.5 16.8093 85.7394 29.8125 82.9893 42.7705C80.2394 55.7275 77.5 68.6392 77.5 85.333C77.5 102.027 80.2394 114.939 82.9893 127.896C85.7393 140.854 88.5 153.858 88.5 170.667Z" fill="#F2D6BC"/>
<path d="M104.5 170.667C104.5 187.46 101.745 208.827 98.9941 225.977C97.6182 234.555 96.2419 242.085 95.21 247.472C94.694 250.165 94.264 252.322 93.9629 253.807C93.8123 254.549 93.694 255.123 93.6133 255.512C93.5729 255.706 93.5414 255.854 93.5205 255.953C93.5101 256.003 93.5024 256.04 93.4971 256.065C93.4944 256.078 93.4926 256.087 93.4912 256.094C93.4905 256.097 93.4893 256.102 93.4893 256.102V256.104C93.4893 256.104 93.467 256.099 93 256C92.5109 255.896 92.5107 255.896 92.5107 255.896L92.5117 255.894C92.5117 255.894 92.5121 255.89 92.5127 255.887C92.514 255.881 92.516 255.871 92.5185 255.859C92.5238 255.835 92.5316 255.796 92.542 255.747C92.5627 255.648 92.5936 255.501 92.6338 255.308C92.7142 254.921 92.8323 254.349 92.9824 253.608C93.2829 252.127 93.7123 249.973 94.2275 247.284C95.2581 241.905 96.6318 234.384 98.0059 225.817C100.755 208.677 103.5 187.377 103.5 170.667C103.5 153.973 100.761 141.061 98.0107 128.104C95.2607 115.146 92.5 102.142 92.5 85.333C92.5 68.5239 95.2607 55.5204 98.0107 42.5625C100.761 29.6055 103.5 16.6938 103.5 0L104.5 4.37112e-08C104.5 16.8093 101.739 29.8125 98.9893 42.7705C96.2394 55.7275 93.5 68.6392 93.5 85.333C93.5 102.027 96.2394 114.939 98.9893 127.896C101.739 140.854 104.5 153.858 104.5 170.667Z" fill="#F2D6BC"/>
<path d="M120.5 170.667C120.5 187.46 117.745 208.827 114.994 225.977C113.618 234.555 112.242 242.085 111.21 247.472C110.694 250.165 110.264 252.322 109.963 253.807C109.812 254.549 109.694 255.123 109.613 255.512C109.573 255.706 109.541 255.854 109.521 255.953C109.51 256.003 109.502 256.04 109.497 256.065C109.494 256.078 109.493 256.087 109.491 256.094C109.491 256.097 109.489 256.102 109.489 256.102V256.104C109.489 256.104 109.467 256.099 109 256C108.511 255.896 108.511 255.896 108.511 255.896L108.512 255.894C108.512 255.894 108.512 255.89 108.513 255.887C108.514 255.881 108.516 255.871 108.519 255.859C108.524 255.835 108.532 255.796 108.542 255.747C108.563 255.648 108.594 255.501 108.634 255.308C108.714 254.921 108.832 254.349 108.982 253.608C109.283 252.127 109.712 249.973 110.228 247.284C111.258 241.905 112.632 234.384 114.006 225.817C116.755 208.677 119.5 187.377 119.5 170.667C119.5 153.973 116.761 141.061 114.011 128.104C111.261 115.146 108.5 102.142 108.5 85.333C108.5 68.5239 111.261 55.5204 114.011 42.5625C116.761 29.6055 119.5 16.6938 119.5 0L120.5 4.37112e-08C120.5 16.8093 117.739 29.8125 114.989 42.7705C112.239 55.7275 109.5 68.6392 109.5 85.333C109.5 102.027 112.239 114.939 114.989 127.896C117.739 140.854 120.5 153.858 120.5 170.667Z" fill="#F2D6BC"/>
<path d="M136.5 170.667C136.5 187.46 133.745 208.827 130.994 225.977C129.618 234.555 128.242 242.085 127.21 247.472C126.694 250.165 126.264 252.322 125.963 253.807C125.812 254.549 125.694 255.123 125.613 255.512C125.573 255.706 125.541 255.854 125.521 255.953C125.51 256.003 125.502 256.04 125.497 256.065C125.494 256.078 125.493 256.087 125.491 256.094C125.491 256.097 125.489 256.102 125.489 256.102V256.104C125.489 256.104 125.467 256.099 125 256C124.511 255.896 124.511 255.896 124.511 255.896L124.512 255.894C124.512 255.894 124.512 255.89 124.513 255.887C124.514 255.881 124.516 255.871 124.519 255.859C124.524 255.835 124.532 255.796 124.542 255.747C124.563 255.648 124.594 255.501 124.634 255.308C124.714 254.921 124.832 254.349 124.982 253.608C125.283 252.127 125.712 249.973 126.228 247.284C127.258 241.905 128.632 234.384 130.006 225.817C132.755 208.677 135.5 187.377 135.5 170.667C135.5 153.973 132.761 141.061 130.011 128.104C127.261 115.146 124.5 102.142 124.5 85.333C124.5 68.5239 127.261 55.5204 130.011 42.5625C132.761 29.6055 135.5 16.6938 135.5 0L136.5 4.37112e-08C136.5 16.8093 133.739 29.8125 130.989 42.7705C128.239 55.7275 125.5 68.6392 125.5 85.333C125.5 102.027 128.239 114.939 130.989 127.896C133.739 140.854 136.5 153.858 136.5 170.667Z" fill="#F2D6BC"/>
<path d="M152.5 170.667C152.5 187.46 149.745 208.827 146.994 225.977C145.618 234.555 144.242 242.085 143.21 247.472C142.694 250.165 142.264 252.322 141.963 253.807C141.812 254.549 141.694 255.123 141.613 255.512C141.573 255.706 141.541 255.854 141.521 255.953C141.51 256.003 141.502 256.04 141.497 256.065C141.494 256.078 141.493 256.087 141.491 256.094C141.491 256.097 141.489 256.102 141.489 256.102V256.104C141.489 256.104 141.467 256.099 141 256C140.511 255.896 140.511 255.896 140.511 255.896L140.512 255.894C140.512 255.894 140.512 255.89 140.513 255.887C140.514 255.881 140.516 255.871 140.519 255.859C140.524 255.835 140.532 255.796 140.542 255.747C140.563 255.648 140.594 255.501 140.634 255.308C140.714 254.921 140.832 254.349 140.982 253.608C141.283 252.127 141.712 249.973 142.228 247.284C143.258 241.905 144.632 234.384 146.006 225.817C148.755 208.677 151.5 187.377 151.5 170.667C151.5 153.973 148.761 141.061 146.011 128.104C143.261 115.146 140.5 102.142 140.5 85.333C140.5 68.5239 143.261 55.5204 146.011 42.5625C148.761 29.6055 151.5 16.6938 151.5 0L152.5 4.37112e-08C152.5 16.8093 149.739 29.8125 146.989 42.7705C144.239 55.7275 141.5 68.6392 141.5 85.333C141.5 102.027 144.239 114.939 146.989 127.896C149.739 140.854 152.5 153.858 152.5 170.667Z" fill="#F2D6BC"/>
<path d="M168.5 170.667C168.5 187.46 165.745 208.827 162.994 225.977C161.618 234.555 160.242 242.085 159.21 247.472C158.694 250.165 158.264 252.322 157.963 253.807C157.812 254.549 157.694 255.123 157.613 255.512C157.573 255.706 157.541 255.854 157.521 255.953C157.51 256.003 157.502 256.04 157.497 256.065C157.494 256.078 157.493 256.087 157.491 256.094C157.491 256.097 157.489 256.102 157.489 256.102V256.104C157.489 256.104 157.467 256.099 157 256C156.511 255.896 156.511 255.896 156.511 255.896L156.512 255.894C156.512 255.894 156.512 255.89 156.513 255.887C156.514 255.881 156.516 255.871 156.519 255.859C156.524 255.835 156.532 255.796 156.542 255.747C156.563 255.648 156.594 255.501 156.634 255.308C156.714 254.921 156.832 254.349 156.982 253.608C157.283 252.127 157.712 249.973 158.228 247.284C159.258 241.905 160.632 234.384 162.006 225.817C164.755 208.677 167.5 187.377 167.5 170.667C167.5 153.973 164.761 141.061 162.011 128.104C159.261 115.146 156.5 102.142 156.5 85.333C156.5 68.5239 159.261 55.5204 162.011 42.5625C164.761 29.6055 167.5 16.6938 167.5 0L168.5 4.37112e-08C168.5 16.8093 165.739 29.8125 162.989 42.7705C160.239 55.7275 157.5 68.6392 157.5 85.333C157.5 102.027 160.239 114.939 162.989 127.896C165.739 140.854 168.5 153.858 168.5 170.667Z" fill="#F2D6BC"/>
<path d="M184.5 170.667C184.5 187.46 181.745 208.827 178.994 225.977C177.618 234.555 176.242 242.085 175.21 247.472C174.694 250.165 174.264 252.322 173.963 253.807C173.812 254.549 173.694 255.123 173.613 255.512C173.573 255.706 173.541 255.854 173.521 255.953C173.51 256.003 173.502 256.04 173.497 256.065C173.494 256.078 173.493 256.087 173.491 256.094C173.491 256.097 173.489 256.102 173.489 256.102V256.104C173.489 256.104 173.467 256.099 173 256C172.511 255.896 172.511 255.896 172.511 255.896L172.512 255.894C172.512 255.894 172.512 255.89 172.513 255.887C172.514 255.881 172.516 255.871 172.519 255.859C172.524 255.835 172.532 255.796 172.542 255.747C172.563 255.648 172.594 255.501 172.634 255.308C172.714 254.921 172.832 254.349 172.982 253.608C173.283 252.127 173.712 249.973 174.228 247.284C175.258 241.905 176.632 234.384 178.006 225.817C180.755 208.677 183.5 187.377 183.5 170.667C183.5 153.973 180.761 141.061 178.011 128.104C175.261 115.146 172.5 102.142 172.5 85.333C172.5 68.5239 175.261 55.5204 178.011 42.5625C180.761 29.6055 183.5 16.6938 183.5 0L184.5 4.37112e-08C184.5 16.8093 181.739 29.8125 178.989 42.7705C176.239 55.7275 173.5 68.6392 173.5 85.333C173.5 102.027 176.239 114.939 178.989 127.896C181.739 140.854 184.5 153.858 184.5 170.667Z" fill="#F2D6BC"/>
<path d="M200.5 170.667C200.5 187.46 197.745 208.827 194.994 225.977C193.618 234.555 192.242 242.085 191.21 247.472C190.694 250.165 190.264 252.322 189.963 253.807C189.812 254.549 189.694 255.123 189.613 255.512C189.573 255.706 189.541 255.854 189.521 255.953C189.51 256.003 189.502 256.04 189.497 256.065C189.494 256.078 189.493 256.087 189.491 256.094C189.491 256.097 189.489 256.102 189.489 256.102V256.104C189.489 256.104 189.467 256.099 189 256C188.511 255.896 188.511 255.896 188.511 255.896L188.512 255.894C188.512 255.894 188.512 255.89 188.513 255.887C188.514 255.881 188.516 255.871 188.519 255.859C188.524 255.835 188.532 255.796 188.542 255.747C188.563 255.648 188.594 255.501 188.634 255.308C188.714 254.921 188.832 254.349 188.982 253.608C189.283 252.127 189.712 249.973 190.228 247.284C191.258 241.905 192.632 234.384 194.006 225.817C196.755 208.677 199.5 187.377 199.5 170.667C199.5 153.973 196.761 141.061 194.011 128.104C191.261 115.146 188.5 102.142 188.5 85.333C188.5 68.5239 191.261 55.5204 194.011 42.5625C196.761 29.6055 199.5 16.6938 199.5 0L200.5 4.37112e-08C200.5 16.8093 197.739 29.8125 194.989 42.7705C192.239 55.7275 189.5 68.6392 189.5 85.333C189.5 102.027 192.239 114.939 194.989 127.896C197.739 140.854 200.5 153.858 200.5 170.667Z" fill="#F2D6BC"/>
<path d="M216.5 170.667C216.5 187.46 213.745 208.827 210.994 225.977C209.618 234.555 208.242 242.085 207.21 247.472C206.694 250.165 206.264 252.322 205.963 253.807C205.812 254.549 205.694 255.123 205.613 255.512C205.573 255.706 205.541 255.854 205.521 255.953C205.51 256.003 205.502 256.04 205.497 256.065C205.494 256.078 205.493 256.087 205.491 256.094C205.491 256.097 205.489 256.102 205.489 256.102V256.104C205.489 256.104 205.467 256.099 205 256C204.511 255.896 204.511 255.896 204.511 255.896L204.512 255.894C204.512 255.894 204.512 255.89 204.513 255.887C204.514 255.881 204.516 255.871 204.519 255.859C204.524 255.835 204.532 255.796 204.542 255.747C204.563 255.648 204.594 255.501 204.634 255.308C204.714 254.921 204.832 254.349 204.982 253.608C205.283 252.127 205.712 249.973 206.228 247.284C207.258 241.905 208.632 234.384 210.006 225.817C212.755 208.677 215.5 187.377 215.5 170.667C215.5 153.973 212.761 141.061 210.011 128.104C207.261 115.146 204.5 102.142 204.5 85.333C204.5 68.5239 207.261 55.5204 210.011 42.5625C212.761 29.6055 215.5 16.6938 215.5 0L216.5 4.37112e-08C216.5 16.8093 213.739 29.8125 210.989 42.7705C208.239 55.7275 205.5 68.6392 205.5 85.333C205.5 102.027 208.239 114.939 210.989 127.896C213.739 140.854 216.5 153.858 216.5 170.667Z" fill="#F2D6BC"/>
<path d="M232.5 170.667C232.5 187.46 229.745 208.827 226.994 225.977C225.618 234.555 224.242 242.085 223.21 247.472C222.694 250.165 222.264 252.322 221.963 253.807C221.812 254.549 221.694 255.123 221.613 255.512C221.573 255.706 221.541 255.854 221.521 255.953C221.51 256.003 221.502 256.04 221.497 256.065C221.494 256.078 221.493 256.087 221.491 256.094C221.491 256.097 221.489 256.102 221.489 256.102V256.104C221.489 256.104 221.467 256.099 221 256C220.511 255.896 220.511 255.896 220.511 255.896L220.512 255.894C220.512 255.894 220.512 255.89 220.513 255.887C220.514 255.881 220.516 255.871 220.519 255.859C220.524 255.835 220.532 255.796 220.542 255.747C220.563 255.648 220.594 255.501 220.634 255.308C220.714 254.921 220.832 254.349 220.982 253.608C221.283 252.127 221.712 249.973 222.228 247.284C223.258 241.905 224.632 234.384 226.006 225.817C228.755 208.677 231.5 187.377 231.5 170.667C231.5 153.973 228.761 141.061 226.011 128.104C223.261 115.146 220.5 102.142 220.5 85.333C220.5 68.5239 223.261 55.5204 226.011 42.5625C228.761 29.6055 231.5 16.6938 231.5 0L232.5 4.37112e-08C232.5 16.8093 229.739 29.8125 226.989 42.7705C224.239 55.7275 221.5 68.6392 221.5 85.333C221.5 102.027 224.239 114.939 226.989 127.896C229.739 140.854 232.5 153.858 232.5 170.667Z" fill="#F2D6BC"/>
<path d="M248.5 170.667C248.5 187.46 245.745 208.827 242.994 225.977C241.618 234.555 240.242 242.085 239.21 247.472C238.694 250.165 238.264 252.322 237.963 253.807C237.812 254.549 237.694 255.123 237.613 255.512C237.573 255.706 237.541 255.854 237.521 255.953C237.51 256.003 237.502 256.04 237.497 256.065C237.494 256.078 237.493 256.087 237.491 256.094C237.491 256.097 237.489 256.102 237.489 256.102V256.104C237.489 256.104 237.467 256.099 237 256C236.511 255.896 236.511 255.896 236.511 255.896L236.512 255.894C236.512 255.894 236.512 255.89 236.513 255.887C236.514 255.881 236.516 255.871 236.519 255.859C236.524 255.835 236.532 255.796 236.542 255.747C236.563 255.648 236.594 255.501 236.634 255.308C236.714 254.921 236.832 254.349 236.982 253.608C237.283 252.127 237.712 249.973 238.228 247.284C239.258 241.905 240.632 234.384 242.006 225.817C244.755 208.677 247.5 187.377 247.5 170.667C247.5 153.973 244.761 141.061 242.011 128.104C239.261 115.146 236.5 102.142 236.5 85.333C236.5 68.5239 239.261 55.5204 242.011 42.5625C244.761 29.6055 247.5 16.6938 247.5 0L248.5 4.37112e-08C248.5 16.8093 245.739 29.8125 242.989 42.7705C240.239 55.7275 237.5 68.6392 237.5 85.333C237.5 102.027 240.239 114.939 242.989 127.896C245.739 140.854 248.5 153.858 248.5 170.667Z" fill="#F2D6BC"/>
<path d="M264.5 170.667C264.5 187.46 261.745 208.827 258.994 225.977C257.618 234.555 256.242 242.085 255.21 247.472C254.694 250.165 254.264 252.322 253.963 253.807C253.812 254.549 253.694 255.123 253.613 255.512C253.573 255.706 253.541 255.854 253.52 255.953C253.51 256.003 253.502 256.04 253.497 256.065C253.494 256.078 253.493 256.087 253.491 256.094C253.491 256.097 253.489 256.102 253.489 256.102V256.104C253.489 256.104 253.467 256.099 253 256C252.511 255.896 252.511 255.896 252.511 255.896L252.512 255.894C252.512 255.894 252.512 255.89 252.513 255.887C252.514 255.881 252.516 255.871 252.519 255.859C252.524 255.835 252.532 255.796 252.542 255.747C252.563 255.648 252.594 255.501 252.634 255.308C252.714 254.921 252.832 254.349 252.982 253.608C253.283 252.127 253.712 249.973 254.228 247.284C255.258 241.905 256.632 234.384 258.006 225.817C260.755 208.677 263.5 187.377 263.5 170.667C263.5 153.973 260.761 141.061 258.011 128.104C255.261 115.146 252.5 102.142 252.5 85.333C252.5 68.5239 255.261 55.5204 258.011 42.5625C260.761 29.6055 263.5 16.6938 263.5 0L264.5 4.37112e-08C264.5 16.8093 261.739 29.8125 258.989 42.7705C256.239 55.7275 253.5 68.6392 253.5 85.333C253.5 102.027 256.239 114.939 258.989 127.896C261.739 140.854 264.5 153.858 264.5 170.667Z" fill="#F2D6BC"/>
<path d="M280.5 170.667C280.5 187.46 277.745 208.827 274.994 225.977C273.618 234.555 272.242 242.085 271.21 247.472C270.694 250.165 270.264 252.322 269.963 253.807C269.812 254.549 269.694 255.123 269.613 255.512C269.573 255.706 269.541 255.854 269.52 255.953C269.51 256.003 269.502 256.04 269.497 256.065C269.494 256.078 269.493 256.087 269.491 256.094C269.491 256.097 269.489 256.102 269.489 256.102V256.104C269.489 256.104 269.467 256.099 269 256C268.511 255.896 268.511 255.896 268.511 255.896L268.512 255.894C268.512 255.894 268.512 255.89 268.513 255.887C268.514 255.881 268.516 255.871 268.519 255.859C268.524 255.835 268.532 255.796 268.542 255.747C268.563 255.648 268.594 255.501 268.634 255.308C268.714 254.921 268.832 254.349 268.982 253.608C269.283 252.127 269.712 249.973 270.228 247.284C271.258 241.905 272.632 234.384 274.006 225.817C276.755 208.677 279.5 187.377 279.5 170.667C279.5 153.973 276.761 141.061 274.011 128.104C271.261 115.146 268.5 102.142 268.5 85.333C268.5 68.5239 271.261 55.5204 274.011 42.5625C276.761 29.6055 279.5 16.6938 279.5 0L280.5 4.37112e-08C280.5 16.8093 277.739 29.8125 274.989 42.7705C272.239 55.7275 269.5 68.6392 269.5 85.333C269.5 102.027 272.239 114.939 274.989 127.896C277.739 140.854 280.5 153.858 280.5 170.667Z" fill="#F2D6BC"/>
<path d="M296.5 170.667C296.5 187.46 293.745 208.827 290.994 225.977C289.618 234.555 288.242 242.085 287.21 247.472C286.694 250.165 286.264 252.322 285.963 253.807C285.812 254.549 285.694 255.123 285.613 255.512C285.573 255.706 285.541 255.854 285.52 255.953C285.51 256.003 285.502 256.04 285.497 256.065C285.494 256.078 285.493 256.087 285.491 256.094C285.491 256.097 285.489 256.102 285.489 256.102V256.104C285.489 256.104 285.467 256.099 285 256C284.511 255.896 284.511 255.896 284.511 255.896L284.512 255.894C284.512 255.894 284.512 255.89 284.513 255.887C284.514 255.881 284.516 255.871 284.519 255.859C284.524 255.835 284.532 255.796 284.542 255.747C284.563 255.648 284.594 255.501 284.634 255.308C284.714 254.921 284.832 254.349 284.982 253.608C285.283 252.127 285.712 249.973 286.228 247.284C287.258 241.905 288.632 234.384 290.006 225.817C292.755 208.677 295.5 187.377 295.5 170.667C295.5 153.973 292.761 141.061 290.011 128.104C287.261 115.146 284.5 102.142 284.5 85.333C284.5 68.5239 287.261 55.5204 290.011 42.5625C292.761 29.6055 295.5 16.6938 295.5 0L296.5 4.37112e-08C296.5 16.8093 293.739 29.8125 290.989 42.7705C288.239 55.7275 285.5 68.6392 285.5 85.333C285.5 102.027 288.239 114.939 290.989 127.896C293.739 140.854 296.5 153.858 296.5 170.667Z" fill="#F2D6BC"/>
<path d="M312.5 170.667C312.5 187.46 309.745 208.827 306.994 225.977C305.618 234.555 304.242 242.085 303.21 247.472C302.694 250.165 302.264 252.322 301.963 253.807C301.812 254.549 301.694 255.123 301.613 255.512C301.573 255.706 301.541 255.854 301.52 255.953C301.51 256.003 301.502 256.04 301.497 256.065C301.494 256.078 301.493 256.087 301.491 256.094C301.491 256.097 301.489 256.102 301.489 256.102V256.104C301.489 256.104 301.467 256.099 301 256C300.511 255.896 300.511 255.896 300.511 255.896L300.512 255.894C300.512 255.894 300.512 255.89 300.513 255.887C300.514 255.881 300.516 255.871 300.519 255.859C300.524 255.835 300.532 255.796 300.542 255.747C300.563 255.648 300.594 255.501 300.634 255.308C300.714 254.921 300.832 254.349 300.982 253.608C301.283 252.127 301.712 249.973 302.228 247.284C303.258 241.905 304.632 234.384 306.006 225.817C308.755 208.677 311.5 187.377 311.5 170.667C311.5 153.973 308.761 141.061 306.011 128.104C303.261 115.146 300.5 102.142 300.5 85.333C300.5 68.5239 303.261 55.5204 306.011 42.5625C308.761 29.6055 311.5 16.6938 311.5 0L312.5 4.37112e-08C312.5 16.8093 309.739 29.8125 306.989 42.7705C304.239 55.7275 301.5 68.6392 301.5 85.333C301.5 102.027 304.239 114.939 306.989 127.896C309.739 140.854 312.5 153.858 312.5 170.667Z" fill="#F2D6BC"/>
<path d="M328.5 170.667C328.5 187.46 325.745 208.827 322.994 225.977C321.618 234.555 320.242 242.085 319.21 247.472C318.694 250.165 318.264 252.322 317.963 253.807C317.812 254.549 317.694 255.123 317.613 255.512C317.573 255.706 317.541 255.854 317.52 255.953C317.51 256.003 317.502 256.04 317.497 256.065C317.494 256.078 317.493 256.087 317.491 256.094C317.491 256.097 317.489 256.102 317.489 256.102V256.104C317.489 256.104 317.467 256.099 317 256C316.511 255.896 316.511 255.896 316.511 255.896L316.512 255.894C316.512 255.894 316.512 255.89 316.513 255.887C316.514 255.881 316.516 255.871 316.519 255.859C316.524 255.835 316.532 255.796 316.542 255.747C316.563 255.648 316.594 255.501 316.634 255.308C316.714 254.921 316.832 254.349 316.982 253.608C317.283 252.127 317.712 249.973 318.228 247.284C319.258 241.905 320.632 234.384 322.006 225.817C324.755 208.677 327.5 187.377 327.5 170.667C327.5 153.973 324.761 141.061 322.011 128.104C319.261 115.146 316.5 102.142 316.5 85.333C316.5 68.5239 319.261 55.5204 322.011 42.5625C324.761 29.6055 327.5 16.6938 327.5 0L328.5 4.37112e-08C328.5 16.8093 325.739 29.8125 322.989 42.7705C320.239 55.7275 317.5 68.6392 317.5 85.333C317.5 102.027 320.239 114.939 322.989 127.896C325.739 140.854 328.5 153.858 328.5 170.667Z" fill="#F2D6BC"/>
<path d="M344.5 170.667C344.5 187.46 341.745 208.827 338.994 225.977C337.618 234.555 336.242 242.085 335.21 247.472C334.694 250.165 334.264 252.322 333.963 253.807C333.812 254.549 333.694 255.123 333.613 255.512C333.573 255.706 333.541 255.854 333.52 255.953C333.51 256.003 333.502 256.04 333.497 256.065C333.494 256.078 333.493 256.087 333.491 256.094C333.491 256.097 333.489 256.102 333.489 256.102V256.104C333.489 256.104 333.467 256.099 333 256C332.511 255.896 332.511 255.896 332.511 255.896L332.512 255.894C332.512 255.894 332.512 255.89 332.513 255.887C332.514 255.881 332.516 255.871 332.519 255.859C332.524 255.835 332.532 255.796 332.542 255.747C332.563 255.648 332.594 255.501 332.634 255.308C332.714 254.921 332.832 254.349 332.982 253.608C333.283 252.127 333.712 249.973 334.228 247.284C335.258 241.905 336.632 234.384 338.006 225.817C340.755 208.677 343.5 187.377 343.5 170.667C343.5 153.973 340.761 141.061 338.011 128.104C335.261 115.146 332.5 102.142 332.5 85.333C332.5 68.5239 335.261 55.5204 338.011 42.5625C340.761 29.6055 343.5 16.6938 343.5 0L344.5 4.37112e-08C344.5 16.8093 341.739 29.8125 338.989 42.7705C336.239 55.7275 333.5 68.6392 333.5 85.333C333.5 102.027 336.239 114.939 338.989 127.896C341.739 140.854 344.5 153.858 344.5 170.667Z" fill="#F2D6BC"/>
<path d="M360.5 170.667C360.5 187.46 357.745 208.827 354.994 225.977C353.618 234.555 352.242 242.085 351.21 247.472C350.694 250.165 350.264 252.322 349.963 253.807C349.812 254.549 349.694 255.123 349.613 255.512C349.573 255.706 349.541 255.854 349.52 255.953C349.51 256.003 349.502 256.04 349.497 256.065C349.494 256.078 349.493 256.087 349.491 256.094C349.491 256.097 349.489 256.102 349.489 256.102V256.104C349.489 256.104 349.467 256.099 349 256C348.511 255.896 348.511 255.896 348.511 255.896L348.512 255.894C348.512 255.894 348.512 255.89 348.513 255.887C348.514 255.881 348.516 255.871 348.519 255.859C348.524 255.835 348.532 255.796 348.542 255.747C348.563 255.648 348.594 255.501 348.634 255.308C348.714 254.921 348.832 254.349 348.982 253.608C349.283 252.127 349.712 249.973 350.228 247.284C351.258 241.905 352.632 234.384 354.006 225.817C356.755 208.677 359.5 187.377 359.5 170.667C359.5 153.973 356.761 141.061 354.011 128.104C351.261 115.146 348.5 102.142 348.5 85.333C348.5 68.5239 351.261 55.5204 354.011 42.5625C356.761 29.6055 359.5 16.6938 359.5 0L360.5 4.37112e-08C360.5 16.8093 357.739 29.8125 354.989 42.7705C352.239 55.7275 349.5 68.6392 349.5 85.333C349.5 102.027 352.239 114.939 354.989 127.896C357.739 140.854 360.5 153.858 360.5 170.667Z" fill="#F2D6BC"/>
<path d="M376.5 170.667C376.5 187.46 373.745 208.827 370.994 225.977C369.618 234.555 368.242 242.085 367.21 247.472C366.694 250.165 366.264 252.322 365.963 253.807C365.812 254.549 365.694 255.123 365.613 255.512C365.573 255.706 365.541 255.854 365.52 255.953C365.51 256.003 365.502 256.04 365.497 256.065C365.494 256.078 365.493 256.087 365.491 256.094C365.491 256.097 365.489 256.102 365.489 256.102V256.104C365.489 256.104 365.467 256.099 365 256C364.511 255.896 364.511 255.896 364.511 255.896L364.512 255.894C364.512 255.894 364.512 255.89 364.513 255.887C364.514 255.881 364.516 255.871 364.519 255.859C364.524 255.835 364.532 255.796 364.542 255.747C364.563 255.648 364.594 255.501 364.634 255.308C364.714 254.921 364.832 254.349 364.982 253.608C365.283 252.127 365.712 249.973 366.228 247.284C367.258 241.905 368.632 234.384 370.006 225.817C372.755 208.677 375.5 187.377 375.5 170.667C375.5 153.973 372.761 141.061 370.011 128.104C367.261 115.146 364.5 102.142 364.5 85.333C364.5 68.5239 367.261 55.5204 370.011 42.5625C372.761 29.6055 375.5 16.6938 375.5 0L376.5 4.37112e-08C376.5 16.8093 373.739 29.8125 370.989 42.7705C368.239 55.7275 365.5 68.6392 365.5 85.333C365.5 102.027 368.239 114.939 370.989 127.896C373.739 140.854 376.5 153.858 376.5 170.667Z" fill="#F2D6BC"/>
<path d="M392.5 170.667C392.5 187.46 389.745 208.827 386.994 225.977C385.618 234.555 384.242 242.085 383.21 247.472C382.694 250.165 382.264 252.322 381.963 253.807C381.812 254.549 381.694 255.123 381.613 255.512C381.573 255.706 381.541 255.854 381.52 255.953C381.51 256.003 381.502 256.04 381.497 256.065C381.494 256.078 381.493 256.087 381.491 256.094C381.491 256.097 381.489 256.102 381.489 256.102V256.104C381.489 256.104 381.467 256.099 381 256C380.511 255.896 380.511 255.896 380.511 255.896L380.512 255.894C380.512 255.894 380.512 255.89 380.513 255.887C380.514 255.881 380.516 255.871 380.519 255.859C380.524 255.835 380.532 255.796 380.542 255.747C380.563 255.648 380.594 255.501 380.634 255.308C380.714 254.921 380.832 254.349 380.982 253.608C381.283 252.127 381.712 249.973 382.228 247.284C383.258 241.905 384.632 234.384 386.006 225.817C388.755 208.677 391.5 187.377 391.5 170.667C391.5 153.973 388.761 141.061 386.011 128.104C383.261 115.146 380.5 102.142 380.5 85.333C380.5 68.5239 383.261 55.5204 386.011 42.5625C388.761 29.6055 391.5 16.6938 391.5 0L392.5 4.37112e-08C392.5 16.8093 389.739 29.8125 386.989 42.7705C384.239 55.7275 381.5 68.6392 381.5 85.333C381.5 102.027 384.239 114.939 386.989 127.896C389.739 140.854 392.5 153.858 392.5 170.667Z" fill="#F2D6BC"/>
<path d="M408.5 170.667C408.5 187.46 405.745 208.827 402.994 225.977C401.618 234.555 400.242 242.085 399.21 247.472C398.694 250.165 398.264 252.322 397.963 253.807C397.812 254.549 397.694 255.123 397.613 255.512C397.573 255.706 397.541 255.854 397.52 255.953C397.51 256.003 397.502 256.04 397.497 256.065C397.494 256.078 397.493 256.087 397.491 256.094C397.491 256.097 397.489 256.102 397.489 256.102V256.104C397.489 256.104 397.467 256.099 397 256C396.511 255.896 396.511 255.896 396.511 255.896L396.512 255.894C396.512 255.894 396.512 255.89 396.513 255.887C396.514 255.881 396.516 255.871 396.519 255.859C396.524 255.835 396.532 255.796 396.542 255.747C396.563 255.648 396.594 255.501 396.634 255.308C396.714 254.921 396.832 254.349 396.982 253.608C397.283 252.127 397.712 249.973 398.228 247.284C399.258 241.905 400.632 234.384 402.006 225.817C404.755 208.677 407.5 187.377 407.5 170.667C407.5 153.973 404.761 141.061 402.011 128.104C399.261 115.146 396.5 102.142 396.5 85.333C396.5 68.5239 399.261 55.5204 402.011 42.5625C404.761 29.6055 407.5 16.6938 407.5 0L408.5 4.37112e-08C408.5 16.8093 405.739 29.8125 402.989 42.7705C400.239 55.7275 397.5 68.6392 397.5 85.333C397.5 102.027 400.239 114.939 402.989 127.896C405.739 140.854 408.5 153.858 408.5 170.667Z" fill="#F2D6BC"/>
<path d="M424.5 170.667C424.5 187.46 421.745 208.827 418.994 225.977C417.618 234.555 416.242 242.085 415.21 247.472C414.694 250.165 414.264 252.322 413.963 253.807C413.812 254.549 413.694 255.123 413.613 255.512C413.573 255.706 413.541 255.854 413.52 255.953C413.51 256.003 413.502 256.04 413.497 256.065C413.494 256.078 413.493 256.087 413.491 256.094C413.491 256.097 413.489 256.102 413.489 256.102V256.104C413.489 256.104 413.467 256.099 413 256C412.511 255.896 412.511 255.896 412.511 255.896L412.512 255.894C412.512 255.894 412.512 255.89 412.513 255.887C412.514 255.881 412.516 255.871 412.519 255.859C412.524 255.835 412.532 255.796 412.542 255.747C412.563 255.648 412.594 255.501 412.634 255.308C412.714 254.921 412.832 254.349 412.982 253.608C413.283 252.127 413.712 249.973 414.228 247.284C415.258 241.905 416.632 234.384 418.006 225.817C420.755 208.677 423.5 187.377 423.5 170.667C423.5 153.973 420.761 141.061 418.011 128.104C415.261 115.146 412.5 102.142 412.5 85.333C412.5 68.5239 415.261 55.5204 418.011 42.5625C420.761 29.6055 423.5 16.6938 423.5 0L424.5 4.37112e-08C424.5 16.8093 421.739 29.8125 418.989 42.7705C416.239 55.7275 413.5 68.6392 413.5 85.333C413.5 102.027 416.239 114.939 418.989 127.896C421.739 140.854 424.5 153.858 424.5 170.667Z" fill="#F2D6BC"/>
<path d="M440.5 170.667C440.5 187.46 437.745 208.827 434.994 225.977C433.618 234.555 432.242 242.085 431.21 247.472C430.694 250.165 430.264 252.322 429.963 253.807C429.812 254.549 429.694 255.123 429.613 255.512C429.573 255.706 429.541 255.854 429.52 255.953C429.51 256.003 429.502 256.04 429.497 256.065C429.494 256.078 429.493 256.087 429.491 256.094C429.491 256.097 429.489 256.102 429.489 256.102V256.104C429.489 256.104 429.467 256.099 429 256C428.511 255.896 428.511 255.896 428.511 255.896L428.512 255.894C428.512 255.894 428.512 255.89 428.513 255.887C428.514 255.881 428.516 255.871 428.519 255.859C428.524 255.835 428.532 255.796 428.542 255.747C428.563 255.648 428.594 255.501 428.634 255.308C428.714 254.921 428.832 254.349 428.982 253.608C429.283 252.127 429.712 249.973 430.228 247.284C431.258 241.905 432.632 234.384 434.006 225.817C436.755 208.677 439.5 187.377 439.5 170.667C439.5 153.973 436.761 141.061 434.011 128.104C431.261 115.146 428.5 102.142 428.5 85.333C428.5 68.5239 431.261 55.5204 434.011 42.5625C436.761 29.6055 439.5 16.6938 439.5 0L440.5 4.37112e-08C440.5 16.8093 437.739 29.8125 434.989 42.7705C432.239 55.7275 429.5 68.6392 429.5 85.333C429.5 102.027 432.239 114.939 434.989 127.896C437.739 140.854 440.5 153.858 440.5 170.667Z" fill="#F2D6BC"/>
<path d="M456.5 170.667C456.5 187.46 453.745 208.827 450.994 225.977C449.618 234.555 448.242 242.085 447.21 247.472C446.694 250.165 446.264 252.322 445.963 253.807C445.812 254.549 445.694 255.123 445.613 255.512C445.573 255.706 445.541 255.854 445.52 255.953C445.51 256.003 445.502 256.04 445.497 256.065C445.494 256.078 445.493 256.087 445.491 256.094C445.491 256.097 445.489 256.102 445.489 256.102V256.104C445.489 256.104 445.467 256.099 445 256C444.511 255.896 444.511 255.896 444.511 255.896L444.512 255.894C444.512 255.894 444.512 255.89 444.513 255.887C444.514 255.881 444.516 255.871 444.519 255.859C444.524 255.835 444.532 255.796 444.542 255.747C444.563 255.648 444.594 255.501 444.634 255.308C444.714 254.921 444.832 254.349 444.982 253.608C445.283 252.127 445.712 249.973 446.228 247.284C447.258 241.905 448.632 234.384 450.006 225.817C452.755 208.677 455.5 187.377 455.5 170.667C455.5 153.973 452.761 141.061 450.011 128.104C447.261 115.146 444.5 102.142 444.5 85.333C444.5 68.5239 447.261 55.5204 450.011 42.5625C452.761 29.6055 455.5 16.6938 455.5 0L456.5 4.37112e-08C456.5 16.8093 453.739 29.8125 450.989 42.7705C448.239 55.7275 445.5 68.6392 445.5 85.333C445.5 102.027 448.239 114.939 450.989 127.896C453.739 140.854 456.5 153.858 456.5 170.667Z" fill="#F2D6BC"/>
<path d="M472.5 170.667C472.5 187.46 469.745 208.827 466.994 225.977C465.618 234.555 464.242 242.085 463.21 247.472C462.694 250.165 462.264 252.322 461.963 253.807C461.812 254.549 461.694 255.123 461.613 255.512C461.573 255.706 461.541 255.854 461.52 255.953C461.51 256.003 461.502 256.04 461.497 256.065C461.494 256.078 461.493 256.087 461.491 256.094C461.491 256.097 461.489 256.102 461.489 256.102V256.104C461.489 256.104 461.467 256.099 461 256C460.511 255.896 460.511 255.896 460.511 255.896L460.512 255.894C460.512 255.894 460.512 255.89 460.513 255.887C460.514 255.881 460.516 255.871 460.519 255.859C460.524 255.835 460.532 255.796 460.542 255.747C460.563 255.648 460.594 255.501 460.634 255.308C460.714 254.921 460.832 254.349 460.982 253.608C461.283 252.127 461.712 249.973 462.228 247.284C463.258 241.905 464.632 234.384 466.006 225.817C468.755 208.677 471.5 187.377 471.5 170.667C471.5 153.973 468.761 141.061 466.011 128.104C463.261 115.146 460.5 102.142 460.5 85.333C460.5 68.5239 463.261 55.5204 466.011 42.5625C468.761 29.6055 471.5 16.6938 471.5 0L472.5 4.37112e-08C472.5 16.8093 469.739 29.8125 466.989 42.7705C464.239 55.7275 461.5 68.6392 461.5 85.333C461.5 102.027 464.239 114.939 466.989 127.896C469.739 140.854 472.5 153.858 472.5 170.667Z" fill="#F2D6BC"/>
</svg>
