<svg width="468" height="256" viewBox="0 0 468 256" fill="none" xmlns="http://www.w3.org/2000/svg">
<path d="M39.1464 264.146C39.3417 263.951 39.6582 263.951 39.8535 264.146C40.0485 264.342 40.0486 264.658 39.8535 264.853L32.706 272L39.8525 279.146L39.9169 279.225C40.0449 279.418 40.0231 279.682 39.8525 279.852C39.6817 280.023 39.4175 280.045 39.2236 279.917L39.1464 279.852L31.9999 272.706L24.8544 279.852L24.7753 279.918C24.5813 280.046 24.3172 280.023 24.1464 279.852C23.976 279.682 23.9541 279.418 24.082 279.225L24.1464 279.145L31.2929 271.999L24.1464 264.852C23.9513 264.657 23.9513 264.342 24.1464 264.146C24.3416 263.951 24.6574 263.951 24.8525 264.146L31.999 271.293L39.1464 264.146ZM87.1464 264.146C87.3417 263.951 87.6582 263.951 87.8535 264.146C88.0485 264.342 88.0486 264.658 87.8535 264.853L80.706 272L87.8525 279.146L87.9169 279.225C88.0449 279.418 88.0231 279.682 87.8525 279.852C87.6817 280.023 87.4175 280.045 87.2236 279.917L87.1464 279.852L79.9999 272.706L72.8544 279.852L72.7753 279.918C72.5813 280.046 72.3172 280.023 72.1464 279.852C71.976 279.682 71.9541 279.418 72.082 279.225L72.1464 279.145L79.2929 271.999L72.1464 264.852C71.9513 264.657 71.9513 264.342 72.1464 264.146C72.3416 263.951 72.6574 263.951 72.8525 264.146L79.999 271.293L87.1464 264.146ZM135.146 264.146C135.342 263.951 135.658 263.951 135.853 264.146C136.049 264.342 136.049 264.658 135.853 264.853L128.706 272L135.852 279.146L135.917 279.225C136.045 279.418 136.023 279.682 135.852 279.852C135.682 280.023 135.418 280.045 135.224 279.917L135.146 279.852L128 272.706L120.854 279.852L120.775 279.918C120.581 280.046 120.317 280.023 120.146 279.852C119.976 279.682 119.954 279.418 120.082 279.225L120.146 279.145L127.293 271.999L120.146 264.852C119.951 264.657 119.951 264.342 120.146 264.146C120.342 263.951 120.657 263.951 120.852 264.146L127.999 271.293L135.146 264.146ZM183.146 264.146C183.342 263.951 183.658 263.951 183.853 264.146C184.049 264.342 184.049 264.658 183.853 264.853L176.706 272L183.852 279.146L183.917 279.225C184.045 279.418 184.023 279.682 183.852 279.852C183.682 280.023 183.418 280.045 183.224 279.917L183.146 279.852L176 272.706L168.854 279.852L168.775 279.918C168.581 280.046 168.317 280.023 168.146 279.852C167.976 279.682 167.954 279.418 168.082 279.225L168.146 279.145L175.293 271.999L168.146 264.852C167.951 264.657 167.951 264.342 168.146 264.146C168.342 263.951 168.657 263.951 168.852 264.146L175.999 271.293L183.146 264.146ZM231.146 264.146C231.342 263.951 231.658 263.951 231.853 264.146C232.049 264.342 232.049 264.658 231.853 264.853L224.706 272L231.852 279.146L231.917 279.225C232.045 279.418 232.023 279.682 231.852 279.852C231.682 280.023 231.418 280.045 231.224 279.917L231.146 279.852L224 272.706L216.854 279.852L216.775 279.918C216.581 280.046 216.317 280.023 216.146 279.852C215.976 279.682 215.954 279.418 216.082 279.225L216.146 279.145L223.293 271.999L216.146 264.852C215.951 264.657 215.951 264.342 216.146 264.146C216.342 263.951 216.657 263.951 216.852 264.146L223.999 271.293L231.146 264.146ZM279.144 264.146C279.34 263.951 279.656 263.951 279.852 264.146C280.047 264.342 280.047 264.658 279.852 264.853L272.704 272L279.851 279.146L279.915 279.225C280.043 279.418 280.021 279.682 279.851 279.852C279.68 280.023 279.416 280.045 279.222 279.917L279.144 279.852L271.998 272.706L264.852 279.852L264.773 279.918C264.579 280.046 264.315 280.023 264.144 279.852C263.974 279.682 263.952 279.418 264.08 279.225L264.144 279.145L271.291 271.999L264.144 264.852C263.949 264.657 263.949 264.342 264.144 264.146C264.34 263.951 264.655 263.951 264.851 264.146L271.997 271.293L279.144 264.146ZM327.144 264.146C327.34 263.951 327.656 263.951 327.852 264.146C328.047 264.342 328.047 264.658 327.852 264.853L320.704 272L327.851 279.146L327.915 279.225C328.043 279.418 328.021 279.682 327.851 279.852C327.68 280.023 327.416 280.045 327.222 279.917L327.144 279.852L319.998 272.706L312.852 279.852L312.773 279.918C312.579 280.046 312.315 280.023 312.144 279.852C311.974 279.682 311.952 279.418 312.08 279.225L312.144 279.145L319.291 271.999L312.144 264.852C311.949 264.657 311.949 264.342 312.144 264.146C312.34 263.951 312.655 263.951 312.851 264.146L319.997 271.293L327.144 264.146ZM375.144 264.146C375.34 263.951 375.656 263.951 375.852 264.146C376.047 264.342 376.047 264.658 375.852 264.853L368.704 272L375.851 279.146L375.915 279.225C376.043 279.418 376.021 279.682 375.851 279.852C375.68 280.023 375.416 280.045 375.222 279.917L375.144 279.852L367.998 272.706L360.852 279.852L360.773 279.918C360.579 280.046 360.315 280.023 360.144 279.852C359.974 279.682 359.952 279.418 360.08 279.225L360.144 279.145L367.291 271.999L360.144 264.852C359.949 264.657 359.949 264.342 360.144 264.146C360.34 263.951 360.655 263.951 360.851 264.146L367.997 271.293L375.144 264.146ZM423.144 264.146C423.34 263.951 423.656 263.951 423.852 264.146C424.047 264.342 424.047 264.658 423.852 264.853L416.704 272L423.851 279.146L423.915 279.225C424.043 279.418 424.021 279.682 423.851 279.852C423.68 280.023 423.416 280.045 423.222 279.917L423.144 279.852L415.998 272.706L408.852 279.852L408.773 279.918C408.579 280.046 408.315 280.023 408.144 279.852C407.974 279.682 407.952 279.418 408.08 279.225L408.144 279.145L415.291 271.999L408.144 264.852C407.949 264.657 407.949 264.342 408.144 264.146C408.34 263.951 408.655 263.951 408.851 264.146L415.997 271.293L423.144 264.146ZM471.144 264.146C471.34 263.951 471.656 263.951 471.852 264.146C472.047 264.342 472.047 264.658 471.852 264.853L464.704 272L471.851 279.146L471.915 279.225C472.043 279.418 472.021 279.682 471.851 279.852C471.68 280.023 471.416 280.045 471.222 279.917L471.144 279.852L463.998 272.706L456.852 279.852L456.773 279.918C456.579 280.046 456.315 280.023 456.144 279.852C455.974 279.682 455.952 279.418 456.08 279.225L456.144 279.145L463.291 271.999L456.144 264.852C455.949 264.657 455.949 264.342 456.144 264.146C456.34 263.951 456.655 263.951 456.851 264.146L463.997 271.293L471.144 264.146ZM519.144 264.146C519.34 263.951 519.656 263.951 519.852 264.146C520.047 264.342 520.047 264.658 519.852 264.853L512.704 272L519.851 279.146L519.915 279.225C520.043 279.418 520.021 279.682 519.851 279.852C519.68 280.023 519.416 280.045 519.222 279.917L519.144 279.852L511.998 272.706L504.852 279.852L504.773 279.918C504.579 280.046 504.315 280.023 504.144 279.852C503.974 279.682 503.952 279.418 504.08 279.225L504.144 279.145L511.291 271.999L504.144 264.852C503.949 264.657 503.949 264.342 504.144 264.146C504.34 263.951 504.655 263.951 504.851 264.146L511.997 271.293L519.144 264.146ZM567.144 264.146C567.34 263.951 567.656 263.951 567.852 264.146C568.047 264.342 568.047 264.658 567.852 264.853L560.704 272L567.851 279.146L567.915 279.225C568.043 279.418 568.021 279.682 567.851 279.852C567.68 280.023 567.416 280.045 567.222 279.917L567.144 279.852L559.998 272.706L552.852 279.852L552.773 279.918C552.579 280.046 552.315 280.023 552.144 279.852C551.974 279.682 551.952 279.418 552.08 279.225L552.144 279.145L559.291 271.999L552.144 264.852C551.949 264.657 551.949 264.342 552.144 264.146C552.34 263.951 552.655 263.951 552.851 264.146L559.997 271.293L567.144 264.146ZM15.1464 240.146C15.3417 239.951 15.6582 239.951 15.8535 240.146C16.0485 240.342 16.0486 240.658 15.8535 240.853L8.70599 248L15.8525 255.146L15.9169 255.225C16.0449 255.418 16.0231 255.682 15.8525 255.852C15.6817 256.023 15.4175 256.045 15.2236 255.917L15.1464 255.852L7.99994 248.706L0.854432 255.852L0.77533 255.918C0.581314 256.046 0.317221 256.023 0.146424 255.852C-0.023995 255.682 -0.0458839 255.418 0.0819711 255.225L0.146424 255.145L7.29291 247.999L0.146424 240.852C-0.0486959 240.657 -0.0486959 240.342 0.146424 240.146C0.341552 239.951 0.657389 239.951 0.852479 240.146L7.99896 247.293L15.1464 240.146ZM63.1464 240.146C63.3417 239.951 63.6582 239.951 63.8535 240.146C64.0485 240.342 64.0486 240.658 63.8535 240.853L56.706 248L63.8525 255.146L63.9169 255.225C64.0449 255.418 64.0231 255.682 63.8525 255.852C63.6817 256.023 63.4175 256.045 63.2236 255.917L63.1464 255.852L55.9999 248.706L48.8544 255.852L48.7753 255.918C48.5813 256.046 48.3172 256.023 48.1464 255.852C47.976 255.682 47.9541 255.418 48.082 255.225L48.1464 255.145L55.2929 247.999L48.1464 240.852C47.9513 240.657 47.9513 240.342 48.1464 240.146C48.3416 239.951 48.6574 239.951 48.8525 240.146L55.999 247.293L63.1464 240.146ZM111.146 240.146C111.342 239.951 111.658 239.951 111.853 240.146C112.049 240.342 112.049 240.658 111.853 240.853L104.706 248L111.852 255.146L111.917 255.225C112.045 255.418 112.023 255.682 111.852 255.852C111.682 256.023 111.418 256.045 111.224 255.917L111.146 255.852L104 248.706L96.8544 255.852L96.7753 255.918C96.5813 256.046 96.3172 256.023 96.1464 255.852C95.976 255.682 95.9541 255.418 96.082 255.225L96.1464 255.145L103.293 247.999L96.1464 240.852C95.9513 240.657 95.9513 240.342 96.1464 240.146C96.3416 239.951 96.6574 239.951 96.8525 240.146L103.999 247.293L111.146 240.146ZM159.146 240.146C159.342 239.951 159.658 239.951 159.853 240.146C160.049 240.342 160.049 240.658 159.853 240.853L152.706 248L159.852 255.146L159.917 255.225C160.045 255.418 160.023 255.682 159.852 255.852C159.682 256.023 159.418 256.045 159.224 255.917L159.146 255.852L152 248.706L144.854 255.852L144.775 255.918C144.581 256.046 144.317 256.023 144.146 255.852C143.976 255.682 143.954 255.418 144.082 255.225L144.146 255.145L151.293 247.999L144.146 240.852C143.951 240.657 143.951 240.342 144.146 240.146C144.342 239.951 144.657 239.951 144.852 240.146L151.999 247.293L159.146 240.146ZM207.146 240.146C207.342 239.951 207.658 239.951 207.853 240.146C208.049 240.342 208.049 240.658 207.853 240.853L200.706 248L207.852 255.146L207.917 255.225C208.045 255.418 208.023 255.682 207.852 255.852C207.682 256.023 207.418 256.045 207.224 255.917L207.146 255.852L200 248.706L192.854 255.852L192.775 255.918C192.581 256.046 192.317 256.023 192.146 255.852C191.976 255.682 191.954 255.418 192.082 255.225L192.146 255.145L199.293 247.999L192.146 240.852C191.951 240.657 191.951 240.342 192.146 240.146C192.342 239.951 192.657 239.951 192.852 240.146L199.999 247.293L207.146 240.146ZM255.144 240.146C255.34 239.951 255.656 239.951 255.852 240.146C256.047 240.342 256.047 240.658 255.852 240.853L248.704 248L255.851 255.146L255.915 255.225C256.043 255.418 256.021 255.682 255.851 255.852C255.68 256.023 255.416 256.045 255.222 255.917L255.144 255.852L247.998 248.706L240.852 255.852L240.773 255.918C240.579 256.046 240.315 256.023 240.144 255.852C239.974 255.682 239.952 255.418 240.08 255.225L240.144 255.145L247.291 247.999L240.144 240.852C239.949 240.657 239.949 240.342 240.144 240.146C240.34 239.951 240.655 239.951 240.851 240.146L247.997 247.293L255.144 240.146ZM303.144 240.146C303.34 239.951 303.656 239.951 303.852 240.146C304.047 240.342 304.047 240.658 303.852 240.853L296.704 248L303.851 255.146L303.915 255.225C304.043 255.418 304.021 255.682 303.851 255.852C303.68 256.023 303.416 256.045 303.222 255.917L303.144 255.852L295.998 248.706L288.852 255.852L288.773 255.918C288.579 256.046 288.315 256.023 288.144 255.852C287.974 255.682 287.952 255.418 288.08 255.225L288.144 255.145L295.291 247.999L288.144 240.852C287.949 240.657 287.949 240.342 288.144 240.146C288.34 239.951 288.655 239.951 288.851 240.146L295.997 247.293L303.144 240.146ZM351.144 240.146C351.34 239.951 351.656 239.951 351.852 240.146C352.047 240.342 352.047 240.658 351.852 240.853L344.704 248L351.851 255.146L351.915 255.225C352.043 255.418 352.021 255.682 351.851 255.852C351.68 256.023 351.416 256.045 351.222 255.917L351.144 255.852L343.998 248.706L336.852 255.852L336.773 255.918C336.579 256.046 336.315 256.023 336.144 255.852C335.974 255.682 335.952 255.418 336.08 255.225L336.144 255.145L343.291 247.999L336.144 240.852C335.949 240.657 335.949 240.342 336.144 240.146C336.34 239.951 336.655 239.951 336.851 240.146L343.997 247.293L351.144 240.146ZM399.144 240.146C399.34 239.951 399.656 239.951 399.852 240.146C400.047 240.342 400.047 240.658 399.852 240.853L392.704 248L399.851 255.146L399.915 255.225C400.043 255.418 400.021 255.682 399.851 255.852C399.68 256.023 399.416 256.045 399.222 255.917L399.144 255.852L391.998 248.706L384.852 255.852L384.773 255.918C384.579 256.046 384.315 256.023 384.144 255.852C383.974 255.682 383.952 255.418 384.08 255.225L384.144 255.145L391.291 247.999L384.144 240.852C383.949 240.657 383.949 240.342 384.144 240.146C384.34 239.951 384.655 239.951 384.851 240.146L391.997 247.293L399.144 240.146ZM447.144 240.146C447.34 239.951 447.656 239.951 447.852 240.146C448.047 240.342 448.047 240.658 447.852 240.853L440.704 248L447.851 255.146L447.915 255.225C448.043 255.418 448.021 255.682 447.851 255.852C447.68 256.023 447.416 256.045 447.222 255.917L447.144 255.852L439.998 248.706L432.852 255.852L432.773 255.918C432.579 256.046 432.315 256.023 432.144 255.852C431.974 255.682 431.952 255.418 432.08 255.225L432.144 255.145L439.291 247.999L432.144 240.852C431.949 240.657 431.949 240.342 432.144 240.146C432.34 239.951 432.655 239.951 432.851 240.146L439.997 247.293L447.144 240.146ZM495.144 240.146C495.34 239.951 495.656 239.951 495.852 240.146C496.047 240.342 496.047 240.658 495.852 240.853L488.704 248L495.851 255.146L495.915 255.225C496.043 255.418 496.021 255.682 495.851 255.852C495.68 256.023 495.416 256.045 495.222 255.917L495.144 255.852L487.998 248.706L480.852 255.852L480.773 255.918C480.579 256.046 480.315 256.023 480.144 255.852C479.974 255.682 479.952 255.418 480.08 255.225L480.144 255.145L487.291 247.999L480.144 240.852C479.949 240.657 479.949 240.342 480.144 240.146C480.34 239.951 480.655 239.951 480.851 240.146L487.997 247.293L495.144 240.146ZM543.144 240.146C543.34 239.951 543.656 239.951 543.852 240.146C544.047 240.342 544.047 240.658 543.852 240.853L536.704 248L543.851 255.146L543.915 255.225C544.043 255.418 544.021 255.682 543.851 255.852C543.68 256.023 543.416 256.045 543.222 255.917L543.144 255.852L535.998 248.706L528.852 255.852L528.773 255.918C528.579 256.046 528.315 256.023 528.144 255.852C527.974 255.682 527.952 255.418 528.08 255.225L528.144 255.145L535.291 247.999L528.144 240.852C527.949 240.657 527.949 240.342 528.144 240.146C528.34 239.951 528.655 239.951 528.851 240.146L535.997 247.293L543.144 240.146ZM39.1464 216.146C39.3417 215.951 39.6582 215.951 39.8535 216.146C40.0485 216.342 40.0486 216.658 39.8535 216.853L32.706 224L39.8525 231.146L39.9169 231.225C40.0449 231.418 40.0231 231.682 39.8525 231.852C39.6817 232.023 39.4175 232.045 39.2236 231.917L39.1464 231.852L31.9999 224.706L24.8544 231.852L24.7753 231.918C24.5813 232.046 24.3172 232.023 24.1464 231.852C23.976 231.682 23.9541 231.418 24.082 231.225L24.1464 231.145L31.2929 223.999L24.1464 216.852C23.9513 216.657 23.9513 216.342 24.1464 216.146C24.3416 215.951 24.6574 215.951 24.8525 216.146L31.999 223.293L39.1464 216.146ZM87.1464 216.146C87.3417 215.951 87.6582 215.951 87.8535 216.146C88.0485 216.342 88.0486 216.658 87.8535 216.853L80.706 224L87.8525 231.146L87.9169 231.225C88.0449 231.418 88.0231 231.682 87.8525 231.852C87.6817 232.023 87.4175 232.045 87.2236 231.917L87.1464 231.852L79.9999 224.706L72.8544 231.852L72.7753 231.918C72.5813 232.046 72.3172 232.023 72.1464 231.852C71.976 231.682 71.9541 231.418 72.082 231.225L72.1464 231.145L79.2929 223.999L72.1464 216.852C71.9513 216.657 71.9513 216.342 72.1464 216.146C72.3416 215.951 72.6574 215.951 72.8525 216.146L79.999 223.293L87.1464 216.146ZM135.146 216.146C135.342 215.951 135.658 215.951 135.853 216.146C136.049 216.342 136.049 216.658 135.853 216.853L128.706 224L135.852 231.146L135.917 231.225C136.045 231.418 136.023 231.682 135.852 231.852C135.682 232.023 135.418 232.045 135.224 231.917L135.146 231.852L128 224.706L120.854 231.852L120.775 231.918C120.581 232.046 120.317 232.023 120.146 231.852C119.976 231.682 119.954 231.418 120.082 231.225L120.146 231.145L127.293 223.999L120.146 216.852C119.951 216.657 119.951 216.342 120.146 216.146C120.342 215.951 120.657 215.951 120.852 216.146L127.999 223.293L135.146 216.146ZM183.146 216.146C183.342 215.951 183.658 215.951 183.853 216.146C184.049 216.342 184.049 216.658 183.853 216.853L176.706 224L183.852 231.146L183.917 231.225C184.045 231.418 184.023 231.682 183.852 231.852C183.682 232.023 183.418 232.045 183.224 231.917L183.146 231.852L176 224.706L168.854 231.852L168.775 231.918C168.581 232.046 168.317 232.023 168.146 231.852C167.976 231.682 167.954 231.418 168.082 231.225L168.146 231.145L175.293 223.999L168.146 216.852C167.951 216.657 167.951 216.342 168.146 216.146C168.342 215.951 168.657 215.951 168.852 216.146L175.999 223.293L183.146 216.146ZM231.146 216.146C231.342 215.951 231.658 215.951 231.853 216.146C232.049 216.342 232.049 216.658 231.853 216.853L224.706 224L231.852 231.146L231.917 231.225C232.045 231.418 232.023 231.682 231.852 231.852C231.682 232.023 231.418 232.045 231.224 231.917L231.146 231.852L224 224.706L216.854 231.852L216.775 231.918C216.581 232.046 216.317 232.023 216.146 231.852C215.976 231.682 215.954 231.418 216.082 231.225L216.146 231.145L223.293 223.999L216.146 216.852C215.951 216.657 215.951 216.342 216.146 216.146C216.342 215.951 216.657 215.951 216.852 216.146L223.999 223.293L231.146 216.146ZM279.144 216.146C279.34 215.951 279.656 215.951 279.852 216.146C280.047 216.342 280.047 216.658 279.852 216.853L272.704 224L279.851 231.146L279.915 231.225C280.043 231.418 280.021 231.682 279.851 231.852C279.68 232.023 279.416 232.045 279.222 231.917L279.144 231.852L271.998 224.706L264.852 231.852L264.773 231.918C264.579 232.046 264.315 232.023 264.144 231.852C263.974 231.682 263.952 231.418 264.08 231.225L264.144 231.145L271.291 223.999L264.144 216.852C263.949 216.657 263.949 216.342 264.144 216.146C264.34 215.951 264.655 215.951 264.851 216.146L271.997 223.293L279.144 216.146ZM327.144 216.146C327.34 215.951 327.656 215.951 327.852 216.146C328.047 216.342 328.047 216.658 327.852 216.853L320.704 224L327.851 231.146L327.915 231.225C328.043 231.418 328.021 231.682 327.851 231.852C327.68 232.023 327.416 232.045 327.222 231.917L327.144 231.852L319.998 224.706L312.852 231.852L312.773 231.918C312.579 232.046 312.315 232.023 312.144 231.852C311.974 231.682 311.952 231.418 312.08 231.225L312.144 231.145L319.291 223.999L312.144 216.852C311.949 216.657 311.949 216.342 312.144 216.146C312.34 215.951 312.655 215.951 312.851 216.146L319.997 223.293L327.144 216.146ZM375.144 216.146C375.34 215.951 375.656 215.951 375.852 216.146C376.047 216.342 376.047 216.658 375.852 216.853L368.704 224L375.851 231.146L375.915 231.225C376.043 231.418 376.021 231.682 375.851 231.852C375.68 232.023 375.416 232.045 375.222 231.917L375.144 231.852L367.998 224.706L360.852 231.852L360.773 231.918C360.579 232.046 360.315 232.023 360.144 231.852C359.974 231.682 359.952 231.418 360.08 231.225L360.144 231.145L367.291 223.999L360.144 216.852C359.949 216.657 359.949 216.342 360.144 216.146C360.34 215.951 360.655 215.951 360.851 216.146L367.997 223.293L375.144 216.146ZM423.144 216.146C423.34 215.951 423.656 215.951 423.852 216.146C424.047 216.342 424.047 216.658 423.852 216.853L416.704 224L423.851 231.146L423.915 231.225C424.043 231.418 424.021 231.682 423.851 231.852C423.68 232.023 423.416 232.045 423.222 231.917L423.144 231.852L415.998 224.706L408.852 231.852L408.773 231.918C408.579 232.046 408.315 232.023 408.144 231.852C407.974 231.682 407.952 231.418 408.08 231.225L408.144 231.145L415.291 223.999L408.144 216.852C407.949 216.657 407.949 216.342 408.144 216.146C408.34 215.951 408.655 215.951 408.851 216.146L415.997 223.293L423.144 216.146ZM471.144 216.146C471.34 215.951 471.656 215.951 471.852 216.146C472.047 216.342 472.047 216.658 471.852 216.853L464.704 224L471.851 231.146L471.915 231.225C472.043 231.418 472.021 231.682 471.851 231.852C471.68 232.023 471.416 232.045 471.222 231.917L471.144 231.852L463.998 224.706L456.852 231.852L456.773 231.918C456.579 232.046 456.315 232.023 456.144 231.852C455.974 231.682 455.952 231.418 456.08 231.225L456.144 231.145L463.291 223.999L456.144 216.852C455.949 216.657 455.949 216.342 456.144 216.146C456.34 215.951 456.655 215.951 456.851 216.146L463.997 223.293L471.144 216.146ZM519.144 216.146C519.34 215.951 519.656 215.951 519.852 216.146C520.047 216.342 520.047 216.658 519.852 216.853L512.704 224L519.851 231.146L519.915 231.225C520.043 231.418 520.021 231.682 519.851 231.852C519.68 232.023 519.416 232.045 519.222 231.917L519.144 231.852L511.998 224.706L504.852 231.852L504.773 231.918C504.579 232.046 504.315 232.023 504.144 231.852C503.974 231.682 503.952 231.418 504.08 231.225L504.144 231.145L511.291 223.999L504.144 216.852C503.949 216.657 503.949 216.342 504.144 216.146C504.34 215.951 504.655 215.951 504.851 216.146L511.997 223.293L519.144 216.146ZM567.144 216.146C567.34 215.951 567.656 215.951 567.852 216.146C568.047 216.342 568.047 216.658 567.852 216.853L560.704 224L567.851 231.146L567.915 231.225C568.043 231.418 568.021 231.682 567.851 231.852C567.68 232.023 567.416 232.045 567.222 231.917L567.144 231.852L559.998 224.706L552.852 231.852L552.773 231.918C552.579 232.046 552.315 232.023 552.144 231.852C551.974 231.682 551.952 231.418 552.08 231.225L552.144 231.145L559.291 223.999L552.144 216.852C551.949 216.657 551.949 216.342 552.144 216.146C552.34 215.951 552.655 215.951 552.851 216.146L559.997 223.293L567.144 216.146ZM15.1464 192.146C15.3417 191.951 15.6582 191.951 15.8535 192.146C16.0485 192.342 16.0486 192.658 15.8535 192.853L8.70599 200L15.8525 207.146L15.9169 207.225C16.0449 207.418 16.0231 207.682 15.8525 207.852C15.6817 208.023 15.4175 208.045 15.2236 207.917L15.1464 207.852L7.99994 200.706L0.854432 207.852L0.77533 207.918C0.581314 208.046 0.317221 208.023 0.146424 207.852C-0.023995 207.682 -0.0458839 207.418 0.0819711 207.225L0.146424 207.145L7.29291 199.999L0.146424 192.852C-0.0486959 192.657 -0.0486959 192.342 0.146424 192.146C0.341552 191.951 0.657389 191.951 0.852479 192.146L7.99896 199.293L15.1464 192.146ZM63.1464 192.146C63.3417 191.951 63.6582 191.951 63.8535 192.146C64.0485 192.342 64.0486 192.658 63.8535 192.853L56.706 200L63.8525 207.146L63.9169 207.225C64.0449 207.418 64.0231 207.682 63.8525 207.852C63.6817 208.023 63.4175 208.045 63.2236 207.917L63.1464 207.852L55.9999 200.706L48.8544 207.852L48.7753 207.918C48.5813 208.046 48.3172 208.023 48.1464 207.852C47.976 207.682 47.9541 207.418 48.082 207.225L48.1464 207.145L55.2929 199.999L48.1464 192.852C47.9513 192.657 47.9513 192.342 48.1464 192.146C48.3416 191.951 48.6574 191.951 48.8525 192.146L55.999 199.293L63.1464 192.146ZM111.146 192.146C111.342 191.951 111.658 191.951 111.853 192.146C112.049 192.342 112.049 192.658 111.853 192.853L104.706 200L111.852 207.146L111.917 207.225C112.045 207.418 112.023 207.682 111.852 207.852C111.682 208.023 111.418 208.045 111.224 207.917L111.146 207.852L104 200.706L96.8544 207.852L96.7753 207.918C96.5813 208.046 96.3172 208.023 96.1464 207.852C95.976 207.682 95.9541 207.418 96.082 207.225L96.1464 207.145L103.293 199.999L96.1464 192.852C95.9513 192.657 95.9513 192.342 96.1464 192.146C96.3416 191.951 96.6574 191.951 96.8525 192.146L103.999 199.293L111.146 192.146ZM159.146 192.146C159.342 191.951 159.658 191.951 159.853 192.146C160.049 192.342 160.049 192.658 159.853 192.853L152.706 200L159.852 207.146L159.917 207.225C160.045 207.418 160.023 207.682 159.852 207.852C159.682 208.023 159.418 208.045 159.224 207.917L159.146 207.852L152 200.706L144.854 207.852L144.775 207.918C144.581 208.046 144.317 208.023 144.146 207.852C143.976 207.682 143.954 207.418 144.082 207.225L144.146 207.145L151.293 199.999L144.146 192.852C143.951 192.657 143.951 192.342 144.146 192.146C144.342 191.951 144.657 191.951 144.852 192.146L151.999 199.293L159.146 192.146ZM207.146 192.146C207.342 191.951 207.658 191.951 207.853 192.146C208.049 192.342 208.049 192.658 207.853 192.853L200.706 200L207.852 207.146L207.917 207.225C208.045 207.418 208.023 207.682 207.852 207.852C207.682 208.023 207.418 208.045 207.224 207.917L207.146 207.852L200 200.706L192.854 207.852L192.775 207.918C192.581 208.046 192.317 208.023 192.146 207.852C191.976 207.682 191.954 207.418 192.082 207.225L192.146 207.145L199.293 199.999L192.146 192.852C191.951 192.657 191.951 192.342 192.146 192.146C192.342 191.951 192.657 191.951 192.852 192.146L199.999 199.293L207.146 192.146ZM255.144 192.146C255.34 191.951 255.656 191.951 255.852 192.146C256.047 192.342 256.047 192.658 255.852 192.853L248.704 200L255.851 207.146L255.915 207.225C256.043 207.418 256.021 207.682 255.851 207.852C255.68 208.023 255.416 208.045 255.222 207.917L255.144 207.852L247.998 200.706L240.852 207.852L240.773 207.918C240.579 208.046 240.315 208.023 240.144 207.852C239.974 207.682 239.952 207.418 240.08 207.225L240.144 207.145L247.291 199.999L240.144 192.852C239.949 192.657 239.949 192.342 240.144 192.146C240.34 191.951 240.655 191.951 240.851 192.146L247.997 199.293L255.144 192.146ZM303.144 192.146C303.34 191.951 303.656 191.951 303.852 192.146C304.047 192.342 304.047 192.658 303.852 192.853L296.704 200L303.851 207.146L303.915 207.225C304.043 207.418 304.021 207.682 303.851 207.852C303.68 208.023 303.416 208.045 303.222 207.917L303.144 207.852L295.998 200.706L288.852 207.852L288.773 207.918C288.579 208.046 288.315 208.023 288.144 207.852C287.974 207.682 287.952 207.418 288.08 207.225L288.144 207.145L295.291 199.999L288.144 192.852C287.949 192.657 287.949 192.342 288.144 192.146C288.34 191.951 288.655 191.951 288.851 192.146L295.997 199.293L303.144 192.146ZM351.144 192.146C351.34 191.951 351.656 191.951 351.852 192.146C352.047 192.342 352.047 192.658 351.852 192.853L344.704 200L351.851 207.146L351.915 207.225C352.043 207.418 352.021 207.682 351.851 207.852C351.68 208.023 351.416 208.045 351.222 207.917L351.144 207.852L343.998 200.706L336.852 207.852L336.773 207.918C336.579 208.046 336.315 208.023 336.144 207.852C335.974 207.682 335.952 207.418 336.08 207.225L336.144 207.145L343.291 199.999L336.144 192.852C335.949 192.657 335.949 192.342 336.144 192.146C336.34 191.951 336.655 191.951 336.851 192.146L343.997 199.293L351.144 192.146ZM399.144 192.146C399.34 191.951 399.656 191.951 399.852 192.146C400.047 192.342 400.047 192.658 399.852 192.853L392.704 200L399.851 207.146L399.915 207.225C400.043 207.418 400.021 207.682 399.851 207.852C399.68 208.023 399.416 208.045 399.222 207.917L399.144 207.852L391.998 200.706L384.852 207.852L384.773 207.918C384.579 208.046 384.315 208.023 384.144 207.852C383.974 207.682 383.952 207.418 384.08 207.225L384.144 207.145L391.291 199.999L384.144 192.852C383.949 192.657 383.949 192.342 384.144 192.146C384.34 191.951 384.655 191.951 384.851 192.146L391.997 199.293L399.144 192.146ZM447.144 192.146C447.34 191.951 447.656 191.951 447.852 192.146C448.047 192.342 448.047 192.658 447.852 192.853L440.704 200L447.851 207.146L447.915 207.225C448.043 207.418 448.021 207.682 447.851 207.852C447.68 208.023 447.416 208.045 447.222 207.917L447.144 207.852L439.998 200.706L432.852 207.852L432.773 207.918C432.579 208.046 432.315 208.023 432.144 207.852C431.974 207.682 431.952 207.418 432.08 207.225L432.144 207.145L439.291 199.999L432.144 192.852C431.949 192.657 431.949 192.342 432.144 192.146C432.34 191.951 432.655 191.951 432.851 192.146L439.997 199.293L447.144 192.146ZM495.144 192.146C495.34 191.951 495.656 191.951 495.852 192.146C496.047 192.342 496.047 192.658 495.852 192.853L488.704 200L495.851 207.146L495.915 207.225C496.043 207.418 496.021 207.682 495.851 207.852C495.68 208.023 495.416 208.045 495.222 207.917L495.144 207.852L487.998 200.706L480.852 207.852L480.773 207.918C480.579 208.046 480.315 208.023 480.144 207.852C479.974 207.682 479.952 207.418 480.08 207.225L480.144 207.145L487.291 199.999L480.144 192.852C479.949 192.657 479.949 192.342 480.144 192.146C480.34 191.951 480.655 191.951 480.851 192.146L487.997 199.293L495.144 192.146ZM543.144 192.146C543.34 191.951 543.656 191.951 543.852 192.146C544.047 192.342 544.047 192.658 543.852 192.853L536.704 200L543.851 207.146L543.915 207.225C544.043 207.418 544.021 207.682 543.851 207.852C543.68 208.023 543.416 208.045 543.222 207.917L543.144 207.852L535.998 200.706L528.852 207.852L528.773 207.918C528.579 208.046 528.315 208.023 528.144 207.852C527.974 207.682 527.952 207.418 528.08 207.225L528.144 207.145L535.291 199.999L528.144 192.852C527.949 192.657 527.949 192.342 528.144 192.146C528.34 191.951 528.655 191.951 528.851 192.146L535.997 199.293L543.144 192.146ZM39.1464 168.146C39.3417 167.951 39.6582 167.951 39.8535 168.146C40.0485 168.342 40.0486 168.658 39.8535 168.853L32.706 176L39.8525 183.146L39.9169 183.225C40.0449 183.418 40.0231 183.682 39.8525 183.852C39.6817 184.023 39.4175 184.045 39.2236 183.917L39.1464 183.852L31.9999 176.706L24.8544 183.852L24.7753 183.918C24.5813 184.046 24.3172 184.023 24.1464 183.852C23.976 183.682 23.9541 183.418 24.082 183.225L24.1464 183.145L31.2929 175.999L24.1464 168.852C23.9513 168.657 23.9513 168.342 24.1464 168.146C24.3416 167.951 24.6574 167.951 24.8525 168.146L31.999 175.293L39.1464 168.146ZM87.1464 168.146C87.3417 167.951 87.6582 167.951 87.8535 168.146C88.0485 168.342 88.0486 168.658 87.8535 168.853L80.706 176L87.8525 183.146L87.9169 183.225C88.0449 183.418 88.0231 183.682 87.8525 183.852C87.6817 184.023 87.4175 184.045 87.2236 183.917L87.1464 183.852L79.9999 176.706L72.8544 183.852L72.7753 183.918C72.5813 184.046 72.3172 184.023 72.1464 183.852C71.976 183.682 71.9541 183.418 72.082 183.225L72.1464 183.145L79.2929 175.999L72.1464 168.852C71.9513 168.657 71.9513 168.342 72.1464 168.146C72.3416 167.951 72.6574 167.951 72.8525 168.146L79.999 175.293L87.1464 168.146ZM135.146 168.146C135.342 167.951 135.658 167.951 135.853 168.146C136.049 168.342 136.049 168.658 135.853 168.853L128.706 176L135.852 183.146L135.917 183.225C136.045 183.418 136.023 183.682 135.852 183.852C135.682 184.023 135.418 184.045 135.224 183.917L135.146 183.852L128 176.706L120.854 183.852L120.775 183.918C120.581 184.046 120.317 184.023 120.146 183.852C119.976 183.682 119.954 183.418 120.082 183.225L120.146 183.145L127.293 175.999L120.146 168.852C119.951 168.657 119.951 168.342 120.146 168.146C120.342 167.951 120.657 167.951 120.852 168.146L127.999 175.293L135.146 168.146ZM183.146 168.146C183.342 167.951 183.658 167.951 183.853 168.146C184.049 168.342 184.049 168.658 183.853 168.853L176.706 176L183.852 183.146L183.917 183.225C184.045 183.418 184.023 183.682 183.852 183.852C183.682 184.023 183.418 184.045 183.224 183.917L183.146 183.852L176 176.706L168.854 183.852L168.775 183.918C168.581 184.046 168.317 184.023 168.146 183.852C167.976 183.682 167.954 183.418 168.082 183.225L168.146 183.145L175.293 175.999L168.146 168.852C167.951 168.657 167.951 168.342 168.146 168.146C168.342 167.951 168.657 167.951 168.852 168.146L175.999 175.293L183.146 168.146ZM231.146 168.146C231.342 167.951 231.658 167.951 231.853 168.146C232.049 168.342 232.049 168.658 231.853 168.853L224.706 176L231.852 183.146L231.917 183.225C232.045 183.418 232.023 183.682 231.852 183.852C231.682 184.023 231.418 184.045 231.224 183.917L231.146 183.852L224 176.706L216.854 183.852L216.775 183.918C216.581 184.046 216.317 184.023 216.146 183.852C215.976 183.682 215.954 183.418 216.082 183.225L216.146 183.145L223.293 175.999L216.146 168.852C215.951 168.657 215.951 168.342 216.146 168.146C216.342 167.951 216.657 167.951 216.852 168.146L223.999 175.293L231.146 168.146ZM279.144 168.146C279.34 167.951 279.656 167.951 279.852 168.146C280.047 168.342 280.047 168.658 279.852 168.853L272.704 176L279.851 183.146L279.915 183.225C280.043 183.418 280.021 183.682 279.851 183.852C279.68 184.023 279.416 184.045 279.222 183.917L279.144 183.852L271.998 176.706L264.852 183.852L264.773 183.918C264.579 184.046 264.315 184.023 264.144 183.852C263.974 183.682 263.952 183.418 264.08 183.225L264.144 183.145L271.291 175.999L264.144 168.852C263.949 168.657 263.949 168.342 264.144 168.146C264.34 167.951 264.655 167.951 264.851 168.146L271.997 175.293L279.144 168.146ZM327.144 168.146C327.34 167.951 327.656 167.951 327.852 168.146C328.047 168.342 328.047 168.658 327.852 168.853L320.704 176L327.851 183.146L327.915 183.225C328.043 183.418 328.021 183.682 327.851 183.852C327.68 184.023 327.416 184.045 327.222 183.917L327.144 183.852L319.998 176.706L312.852 183.852L312.773 183.918C312.579 184.046 312.315 184.023 312.144 183.852C311.974 183.682 311.952 183.418 312.08 183.225L312.144 183.145L319.291 175.999L312.144 168.852C311.949 168.657 311.949 168.342 312.144 168.146C312.34 167.951 312.655 167.951 312.851 168.146L319.997 175.293L327.144 168.146ZM375.144 168.146C375.34 167.951 375.656 167.951 375.852 168.146C376.047 168.342 376.047 168.658 375.852 168.853L368.704 176L375.851 183.146L375.915 183.225C376.043 183.418 376.021 183.682 375.851 183.852C375.68 184.023 375.416 184.045 375.222 183.917L375.144 183.852L367.998 176.706L360.852 183.852L360.773 183.918C360.579 184.046 360.315 184.023 360.144 183.852C359.974 183.682 359.952 183.418 360.08 183.225L360.144 183.145L367.291 175.999L360.144 168.852C359.949 168.657 359.949 168.342 360.144 168.146C360.34 167.951 360.655 167.951 360.851 168.146L367.997 175.293L375.144 168.146ZM423.144 168.146C423.34 167.951 423.656 167.951 423.852 168.146C424.047 168.342 424.047 168.658 423.852 168.853L416.704 176L423.851 183.146L423.915 183.225C424.043 183.418 424.021 183.682 423.851 183.852C423.68 184.023 423.416 184.045 423.222 183.917L423.144 183.852L415.998 176.706L408.852 183.852L408.773 183.918C408.579 184.046 408.315 184.023 408.144 183.852C407.974 183.682 407.952 183.418 408.08 183.225L408.144 183.145L415.291 175.999L408.144 168.852C407.949 168.657 407.949 168.342 408.144 168.146C408.34 167.951 408.655 167.951 408.851 168.146L415.997 175.293L423.144 168.146ZM471.144 168.146C471.34 167.951 471.656 167.951 471.852 168.146C472.047 168.342 472.047 168.658 471.852 168.853L464.704 176L471.851 183.146L471.915 183.225C472.043 183.418 472.021 183.682 471.851 183.852C471.68 184.023 471.416 184.045 471.222 183.917L471.144 183.852L463.998 176.706L456.852 183.852L456.773 183.918C456.579 184.046 456.315 184.023 456.144 183.852C455.974 183.682 455.952 183.418 456.08 183.225L456.144 183.145L463.291 175.999L456.144 168.852C455.949 168.657 455.949 168.342 456.144 168.146C456.34 167.951 456.655 167.951 456.851 168.146L463.997 175.293L471.144 168.146ZM519.144 168.146C519.34 167.951 519.656 167.951 519.852 168.146C520.047 168.342 520.047 168.658 519.852 168.853L512.704 176L519.851 183.146L519.915 183.225C520.043 183.418 520.021 183.682 519.851 183.852C519.68 184.023 519.416 184.045 519.222 183.917L519.144 183.852L511.998 176.706L504.852 183.852L504.773 183.918C504.579 184.046 504.315 184.023 504.144 183.852C503.974 183.682 503.952 183.418 504.08 183.225L504.144 183.145L511.291 175.999L504.144 168.852C503.949 168.657 503.949 168.342 504.144 168.146C504.34 167.951 504.655 167.951 504.851 168.146L511.997 175.293L519.144 168.146ZM567.144 168.146C567.34 167.951 567.656 167.951 567.852 168.146C568.047 168.342 568.047 168.658 567.852 168.853L560.704 176L567.851 183.146L567.915 183.225C568.043 183.418 568.021 183.682 567.851 183.852C567.68 184.023 567.416 184.045 567.222 183.917L567.144 183.852L559.998 176.706L552.852 183.852L552.773 183.918C552.579 184.046 552.315 184.023 552.144 183.852C551.974 183.682 551.952 183.418 552.08 183.225L552.144 183.145L559.291 175.999L552.144 168.852C551.949 168.657 551.949 168.342 552.144 168.146C552.34 167.951 552.655 167.951 552.851 168.146L559.997 175.293L567.144 168.146ZM15.1464 144.146C15.3417 143.951 15.6582 143.951 15.8535 144.146C16.0485 144.342 16.0486 144.658 15.8535 144.853L8.70599 152L15.8525 159.146L15.9169 159.225C16.0449 159.418 16.0231 159.682 15.8525 159.852C15.6817 160.023 15.4175 160.045 15.2236 159.917L15.1464 159.852L7.99994 152.706L0.854432 159.852L0.77533 159.918C0.581314 160.046 0.317221 160.023 0.146424 159.852C-0.023995 159.682 -0.0458839 159.418 0.0819711 159.225L0.146424 159.145L7.29291 151.999L0.146424 144.852C-0.0486959 144.657 -0.0486959 144.342 0.146424 144.146C0.341552 143.951 0.657389 143.951 0.852479 144.146L7.99896 151.293L15.1464 144.146ZM63.1464 144.146C63.3417 143.951 63.6582 143.951 63.8535 144.146C64.0485 144.342 64.0486 144.658 63.8535 144.853L56.706 152L63.8525 159.146L63.9169 159.225C64.0449 159.418 64.0231 159.682 63.8525 159.852C63.6817 160.023 63.4175 160.045 63.2236 159.917L63.1464 159.852L55.9999 152.706L48.8544 159.852L48.7753 159.918C48.5813 160.046 48.3172 160.023 48.1464 159.852C47.976 159.682 47.9541 159.418 48.082 159.225L48.1464 159.145L55.2929 151.999L48.1464 144.852C47.9513 144.657 47.9513 144.342 48.1464 144.146C48.3416 143.951 48.6574 143.951 48.8525 144.146L55.999 151.293L63.1464 144.146ZM111.146 144.146C111.342 143.951 111.658 143.951 111.853 144.146C112.049 144.342 112.049 144.658 111.853 144.853L104.706 152L111.852 159.146L111.917 159.225C112.045 159.418 112.023 159.682 111.852 159.852C111.682 160.023 111.418 160.045 111.224 159.917L111.146 159.852L104 152.706L96.8544 159.852L96.7753 159.918C96.5813 160.046 96.3172 160.023 96.1464 159.852C95.976 159.682 95.9541 159.418 96.082 159.225L96.1464 159.145L103.293 151.999L96.1464 144.852C95.9513 144.657 95.9513 144.342 96.1464 144.146C96.3416 143.951 96.6574 143.951 96.8525 144.146L103.999 151.293L111.146 144.146ZM159.146 144.146C159.342 143.951 159.658 143.951 159.853 144.146C160.049 144.342 160.049 144.658 159.853 144.853L152.706 152L159.852 159.146L159.917 159.225C160.045 159.418 160.023 159.682 159.852 159.852C159.682 160.023 159.418 160.045 159.224 159.917L159.146 159.852L152 152.706L144.854 159.852L144.775 159.918C144.581 160.046 144.317 160.023 144.146 159.852C143.976 159.682 143.954 159.418 144.082 159.225L144.146 159.145L151.293 151.999L144.146 144.852C143.951 144.657 143.951 144.342 144.146 144.146C144.342 143.951 144.657 143.951 144.852 144.146L151.999 151.293L159.146 144.146ZM207.146 144.146C207.342 143.951 207.658 143.951 207.853 144.146C208.049 144.342 208.049 144.658 207.853 144.853L200.706 152L207.852 159.146L207.917 159.225C208.045 159.418 208.023 159.682 207.852 159.852C207.682 160.023 207.418 160.045 207.224 159.917L207.146 159.852L200 152.706L192.854 159.852L192.775 159.918C192.581 160.046 192.317 160.023 192.146 159.852C191.976 159.682 191.954 159.418 192.082 159.225L192.146 159.145L199.293 151.999L192.146 144.852C191.951 144.657 191.951 144.342 192.146 144.146C192.342 143.951 192.657 143.951 192.852 144.146L199.999 151.293L207.146 144.146ZM255.144 144.146C255.34 143.951 255.656 143.951 255.852 144.146C256.047 144.342 256.047 144.658 255.852 144.853L248.704 152L255.851 159.146L255.915 159.225C256.043 159.418 256.021 159.682 255.851 159.852C255.68 160.023 255.416 160.045 255.222 159.917L255.144 159.852L247.998 152.706L240.852 159.852L240.773 159.918C240.579 160.046 240.315 160.023 240.144 159.852C239.974 159.682 239.952 159.418 240.08 159.225L240.144 159.145L247.291 151.999L240.144 144.852C239.949 144.657 239.949 144.342 240.144 144.146C240.34 143.951 240.655 143.951 240.851 144.146L247.997 151.293L255.144 144.146ZM303.144 144.146C303.34 143.951 303.656 143.951 303.852 144.146C304.047 144.342 304.047 144.658 303.852 144.853L296.704 152L303.851 159.146L303.915 159.225C304.043 159.418 304.021 159.682 303.851 159.852C303.68 160.023 303.416 160.045 303.222 159.917L303.144 159.852L295.998 152.706L288.852 159.852L288.773 159.918C288.579 160.046 288.315 160.023 288.144 159.852C287.974 159.682 287.952 159.418 288.08 159.225L288.144 159.145L295.291 151.999L288.144 144.852C287.949 144.657 287.949 144.342 288.144 144.146C288.34 143.951 288.655 143.951 288.851 144.146L295.997 151.293L303.144 144.146ZM351.144 144.146C351.34 143.951 351.656 143.951 351.852 144.146C352.047 144.342 352.047 144.658 351.852 144.853L344.704 152L351.851 159.146L351.915 159.225C352.043 159.418 352.021 159.682 351.851 159.852C351.68 160.023 351.416 160.045 351.222 159.917L351.144 159.852L343.998 152.706L336.852 159.852L336.773 159.918C336.579 160.046 336.315 160.023 336.144 159.852C335.974 159.682 335.952 159.418 336.08 159.225L336.144 159.145L343.291 151.999L336.144 144.852C335.949 144.657 335.949 144.342 336.144 144.146C336.34 143.951 336.655 143.951 336.851 144.146L343.997 151.293L351.144 144.146ZM399.144 144.146C399.34 143.951 399.656 143.951 399.852 144.146C400.047 144.342 400.047 144.658 399.852 144.853L392.704 152L399.851 159.146L399.915 159.225C400.043 159.418 400.021 159.682 399.851 159.852C399.68 160.023 399.416 160.045 399.222 159.917L399.144 159.852L391.998 152.706L384.852 159.852L384.773 159.918C384.579 160.046 384.315 160.023 384.144 159.852C383.974 159.682 383.952 159.418 384.08 159.225L384.144 159.145L391.291 151.999L384.144 144.852C383.949 144.657 383.949 144.342 384.144 144.146C384.34 143.951 384.655 143.951 384.851 144.146L391.997 151.293L399.144 144.146ZM447.144 144.146C447.34 143.951 447.656 143.951 447.852 144.146C448.047 144.342 448.047 144.658 447.852 144.853L440.704 152L447.851 159.146L447.915 159.225C448.043 159.418 448.021 159.682 447.851 159.852C447.68 160.023 447.416 160.045 447.222 159.917L447.144 159.852L439.998 152.706L432.852 159.852L432.773 159.918C432.579 160.046 432.315 160.023 432.144 159.852C431.974 159.682 431.952 159.418 432.08 159.225L432.144 159.145L439.291 151.999L432.144 144.852C431.949 144.657 431.949 144.342 432.144 144.146C432.34 143.951 432.655 143.951 432.851 144.146L439.997 151.293L447.144 144.146ZM495.144 144.146C495.34 143.951 495.656 143.951 495.852 144.146C496.047 144.342 496.047 144.658 495.852 144.853L488.704 152L495.851 159.146L495.915 159.225C496.043 159.418 496.021 159.682 495.851 159.852C495.68 160.023 495.416 160.045 495.222 159.917L495.144 159.852L487.998 152.706L480.852 159.852L480.773 159.918C480.579 160.046 480.315 160.023 480.144 159.852C479.974 159.682 479.952 159.418 480.08 159.225L480.144 159.145L487.291 151.999L480.144 144.852C479.949 144.657 479.949 144.342 480.144 144.146C480.34 143.951 480.655 143.951 480.851 144.146L487.997 151.293L495.144 144.146ZM543.144 144.146C543.34 143.951 543.656 143.951 543.852 144.146C544.047 144.342 544.047 144.658 543.852 144.853L536.704 152L543.851 159.146L543.915 159.225C544.043 159.418 544.021 159.682 543.851 159.852C543.68 160.023 543.416 160.045 543.222 159.917L543.144 159.852L535.998 152.706L528.852 159.852L528.773 159.918C528.579 160.046 528.315 160.023 528.144 159.852C527.974 159.682 527.952 159.418 528.08 159.225L528.144 159.145L535.291 151.999L528.144 144.852C527.949 144.657 527.949 144.342 528.144 144.146C528.34 143.951 528.655 143.951 528.851 144.146L535.997 151.293L543.144 144.146ZM39.1464 120.146C39.3417 119.951 39.6582 119.951 39.8535 120.146C40.0485 120.342 40.0486 120.658 39.8535 120.853L32.706 128L39.8525 135.146L39.9169 135.225C40.0449 135.418 40.0231 135.682 39.8525 135.852C39.6817 136.023 39.4175 136.045 39.2236 135.917L39.1464 135.852L31.9999 128.706L24.8544 135.852L24.7753 135.918C24.5813 136.046 24.3172 136.023 24.1464 135.852C23.976 135.682 23.9541 135.418 24.082 135.225L24.1464 135.145L31.2929 127.999L24.1464 120.852C23.9513 120.657 23.9513 120.342 24.1464 120.146C24.3416 119.951 24.6574 119.951 24.8525 120.146L31.999 127.293L39.1464 120.146ZM87.1464 120.146C87.3417 119.951 87.6582 119.951 87.8535 120.146C88.0485 120.342 88.0486 120.658 87.8535 120.853L80.706 128L87.8525 135.146L87.9169 135.225C88.0449 135.418 88.0231 135.682 87.8525 135.852C87.6817 136.023 87.4175 136.045 87.2236 135.917L87.1464 135.852L79.9999 128.706L72.8544 135.852L72.7753 135.918C72.5813 136.046 72.3172 136.023 72.1464 135.852C71.976 135.682 71.9541 135.418 72.082 135.225L72.1464 135.145L79.2929 127.999L72.1464 120.852C71.9513 120.657 71.9513 120.342 72.1464 120.146C72.3416 119.951 72.6574 119.951 72.8525 120.146L79.999 127.293L87.1464 120.146ZM135.146 120.146C135.342 119.951 135.658 119.951 135.853 120.146C136.049 120.342 136.049 120.658 135.853 120.853L128.706 128L135.852 135.146L135.917 135.225C136.045 135.418 136.023 135.682 135.852 135.852C135.682 136.023 135.418 136.045 135.224 135.917L135.146 135.852L128 128.706L120.854 135.852L120.775 135.918C120.581 136.046 120.317 136.023 120.146 135.852C119.976 135.682 119.954 135.418 120.082 135.225L120.146 135.145L127.293 127.999L120.146 120.852C119.951 120.657 119.951 120.342 120.146 120.146C120.342 119.951 120.657 119.951 120.852 120.146L127.999 127.293L135.146 120.146ZM183.146 120.146C183.342 119.951 183.658 119.951 183.853 120.146C184.049 120.342 184.049 120.658 183.853 120.853L176.706 128L183.852 135.146L183.917 135.225C184.045 135.418 184.023 135.682 183.852 135.852C183.682 136.023 183.418 136.045 183.224 135.917L183.146 135.852L176 128.706L168.854 135.852L168.775 135.918C168.581 136.046 168.317 136.023 168.146 135.852C167.976 135.682 167.954 135.418 168.082 135.225L168.146 135.145L175.293 127.999L168.146 120.852C167.951 120.657 167.951 120.342 168.146 120.146C168.342 119.951 168.657 119.951 168.852 120.146L175.999 127.293L183.146 120.146ZM231.146 120.146C231.342 119.951 231.658 119.951 231.853 120.146C232.049 120.342 232.049 120.658 231.853 120.853L224.706 128L231.852 135.146L231.917 135.225C232.045 135.418 232.023 135.682 231.852 135.852C231.682 136.023 231.418 136.045 231.224 135.917L231.146 135.852L224 128.706L216.854 135.852L216.775 135.918C216.581 136.046 216.317 136.023 216.146 135.852C215.976 135.682 215.954 135.418 216.082 135.225L216.146 135.145L223.293 127.999L216.146 120.852C215.951 120.657 215.951 120.342 216.146 120.146C216.342 119.951 216.657 119.951 216.852 120.146L223.999 127.293L231.146 120.146ZM279.144 120.146C279.34 119.951 279.656 119.951 279.852 120.146C280.047 120.342 280.047 120.658 279.852 120.853L272.704 128L279.851 135.146L279.915 135.225C280.043 135.418 280.021 135.682 279.851 135.852C279.68 136.023 279.416 136.045 279.222 135.917L279.144 135.852L271.998 128.706L264.852 135.852L264.773 135.918C264.579 136.046 264.315 136.023 264.144 135.852C263.974 135.682 263.952 135.418 264.08 135.225L264.144 135.145L271.291 127.999L264.144 120.852C263.949 120.657 263.949 120.342 264.144 120.146C264.34 119.951 264.655 119.951 264.851 120.146L271.997 127.293L279.144 120.146ZM327.144 120.146C327.34 119.951 327.656 119.951 327.852 120.146C328.047 120.342 328.047 120.658 327.852 120.853L320.704 128L327.851 135.146L327.915 135.225C328.043 135.418 328.021 135.682 327.851 135.852C327.68 136.023 327.416 136.045 327.222 135.917L327.144 135.852L319.998 128.706L312.852 135.852L312.773 135.918C312.579 136.046 312.315 136.023 312.144 135.852C311.974 135.682 311.952 135.418 312.08 135.225L312.144 135.145L319.291 127.999L312.144 120.852C311.949 120.657 311.949 120.342 312.144 120.146C312.34 119.951 312.655 119.951 312.851 120.146L319.997 127.293L327.144 120.146ZM375.144 120.146C375.34 119.951 375.656 119.951 375.852 120.146C376.047 120.342 376.047 120.658 375.852 120.853L368.704 128L375.851 135.146L375.915 135.225C376.043 135.418 376.021 135.682 375.851 135.852C375.68 136.023 375.416 136.045 375.222 135.917L375.144 135.852L367.998 128.706L360.852 135.852L360.773 135.918C360.579 136.046 360.315 136.023 360.144 135.852C359.974 135.682 359.952 135.418 360.08 135.225L360.144 135.145L367.291 127.999L360.144 120.852C359.949 120.657 359.949 120.342 360.144 120.146C360.34 119.951 360.655 119.951 360.851 120.146L367.997 127.293L375.144 120.146ZM423.144 120.146C423.34 119.951 423.656 119.951 423.852 120.146C424.047 120.342 424.047 120.658 423.852 120.853L416.704 128L423.851 135.146L423.915 135.225C424.043 135.418 424.021 135.682 423.851 135.852C423.68 136.023 423.416 136.045 423.222 135.917L423.144 135.852L415.998 128.706L408.852 135.852L408.773 135.918C408.579 136.046 408.315 136.023 408.144 135.852C407.974 135.682 407.952 135.418 408.08 135.225L408.144 135.145L415.291 127.999L408.144 120.852C407.949 120.657 407.949 120.342 408.144 120.146C408.34 119.951 408.655 119.951 408.851 120.146L415.997 127.293L423.144 120.146ZM471.144 120.146C471.34 119.951 471.656 119.951 471.852 120.146C472.047 120.342 472.047 120.658 471.852 120.853L464.704 128L471.851 135.146L471.915 135.225C472.043 135.418 472.021 135.682 471.851 135.852C471.68 136.023 471.416 136.045 471.222 135.917L471.144 135.852L463.998 128.706L456.852 135.852L456.773 135.918C456.579 136.046 456.315 136.023 456.144 135.852C455.974 135.682 455.952 135.418 456.08 135.225L456.144 135.145L463.291 127.999L456.144 120.852C455.949 120.657 455.949 120.342 456.144 120.146C456.34 119.951 456.655 119.951 456.851 120.146L463.997 127.293L471.144 120.146ZM519.144 120.146C519.34 119.951 519.656 119.951 519.852 120.146C520.047 120.342 520.047 120.658 519.852 120.853L512.704 128L519.851 135.146L519.915 135.225C520.043 135.418 520.021 135.682 519.851 135.852C519.68 136.023 519.416 136.045 519.222 135.917L519.144 135.852L511.998 128.706L504.852 135.852L504.773 135.918C504.579 136.046 504.315 136.023 504.144 135.852C503.974 135.682 503.952 135.418 504.08 135.225L504.144 135.145L511.291 127.999L504.144 120.852C503.949 120.657 503.949 120.342 504.144 120.146C504.34 119.951 504.655 119.951 504.851 120.146L511.997 127.293L519.144 120.146ZM567.144 120.146C567.34 119.951 567.656 119.951 567.852 120.146C568.047 120.342 568.047 120.658 567.852 120.853L560.704 128L567.851 135.146L567.915 135.225C568.043 135.418 568.021 135.682 567.851 135.852C567.68 136.023 567.416 136.045 567.222 135.917L567.144 135.852L559.998 128.706L552.852 135.852L552.773 135.918C552.579 136.046 552.315 136.023 552.144 135.852C551.974 135.682 551.952 135.418 552.08 135.225L552.144 135.145L559.291 127.999L552.144 120.852C551.949 120.657 551.949 120.342 552.144 120.146C552.34 119.951 552.655 119.951 552.851 120.146L559.997 127.293L567.144 120.146ZM15.1464 96.1464C15.3417 95.9512 15.6582 95.9512 15.8535 96.1464C16.0485 96.3417 16.0486 96.6583 15.8535 96.8535L8.70599 104L15.8525 111.146L15.9169 111.225C16.0449 111.418 16.0231 111.682 15.8525 111.852C15.6817 112.023 15.4175 112.045 15.2236 111.917L15.1464 111.852L7.99994 104.706L0.854432 111.852L0.77533 111.918C0.581312 112.046 0.317221 112.023 0.146424 111.852C-0.0239966 111.682 -0.0458878 111.418 0.0819711 111.225L0.146424 111.145L7.29291 103.999L0.146424 96.8525C-0.0486959 96.6574 -0.0486959 96.3416 0.146424 96.1464C0.341552 95.9514 0.65739 95.9513 0.852479 96.1464L7.99896 103.293L15.1464 96.1464ZM63.1464 96.1464C63.3417 95.9512 63.6582 95.9512 63.8535 96.1464C64.0485 96.3417 64.0486 96.6583 63.8535 96.8535L56.706 104L63.8525 111.146L63.9169 111.225C64.0449 111.418 64.0231 111.682 63.8525 111.852C63.6817 112.023 63.4175 112.045 63.2236 111.917L63.1464 111.852L55.9999 104.706L48.8544 111.852L48.7753 111.918C48.5813 112.046 48.3172 112.023 48.1464 111.852C47.976 111.682 47.9541 111.418 48.082 111.225L48.1464 111.145L55.2929 103.999L48.1464 96.8525C47.9513 96.6574 47.9513 96.3416 48.1464 96.1464C48.3416 95.9514 48.6574 95.9513 48.8525 96.1464L55.999 103.293L63.1464 96.1464ZM111.146 96.1464C111.342 95.9512 111.658 95.9512 111.853 96.1464C112.049 96.3417 112.049 96.6583 111.853 96.8535L104.706 104L111.852 111.146L111.917 111.225C112.045 111.418 112.023 111.682 111.852 111.852C111.682 112.023 111.418 112.045 111.224 111.917L111.146 111.852L104 104.706L96.8544 111.852L96.7753 111.918C96.5813 112.046 96.3172 112.023 96.1464 111.852C95.976 111.682 95.9541 111.418 96.082 111.225L96.1464 111.145L103.293 103.999L96.1464 96.8525C95.9513 96.6574 95.9513 96.3416 96.1464 96.1464C96.3416 95.9514 96.6574 95.9513 96.8525 96.1464L103.999 103.293L111.146 96.1464ZM159.146 96.1464C159.342 95.9512 159.658 95.9512 159.853 96.1464C160.049 96.3417 160.049 96.6583 159.853 96.8535L152.706 104L159.852 111.146L159.917 111.225C160.045 111.418 160.023 111.682 159.852 111.852C159.682 112.023 159.418 112.045 159.224 111.917L159.146 111.852L152 104.706L144.854 111.852L144.775 111.918C144.581 112.046 144.317 112.023 144.146 111.852C143.976 111.682 143.954 111.418 144.082 111.225L144.146 111.145L151.293 103.999L144.146 96.8525C143.951 96.6574 143.951 96.3416 144.146 96.1464C144.342 95.9514 144.657 95.9513 144.852 96.1464L151.999 103.293L159.146 96.1464ZM207.146 96.1464C207.342 95.9512 207.658 95.9512 207.853 96.1464C208.049 96.3417 208.049 96.6583 207.853 96.8535L200.706 104L207.852 111.146L207.917 111.225C208.045 111.418 208.023 111.682 207.852 111.852C207.682 112.023 207.418 112.045 207.224 111.917L207.146 111.852L200 104.706L192.854 111.852L192.775 111.918C192.581 112.046 192.317 112.023 192.146 111.852C191.976 111.682 191.954 111.418 192.082 111.225L192.146 111.145L199.293 103.999L192.146 96.8525C191.951 96.6574 191.951 96.3416 192.146 96.1464C192.342 95.9514 192.657 95.9513 192.852 96.1464L199.999 103.293L207.146 96.1464ZM255.144 96.1464C255.34 95.9512 255.656 95.9512 255.852 96.1464C256.047 96.3417 256.047 96.6583 255.852 96.8535L248.704 104L255.851 111.146L255.915 111.225C256.043 111.418 256.021 111.682 255.851 111.852C255.68 112.023 255.416 112.045 255.222 111.917L255.144 111.852L247.998 104.706L240.852 111.852L240.773 111.918C240.579 112.046 240.315 112.023 240.144 111.852C239.974 111.682 239.952 111.418 240.08 111.225L240.144 111.145L247.291 103.999L240.144 96.8525C239.949 96.6574 239.949 96.3416 240.144 96.1464C240.34 95.9514 240.655 95.9513 240.851 96.1464L247.997 103.293L255.144 96.1464ZM303.144 96.1464C303.34 95.9512 303.656 95.9512 303.852 96.1464C304.047 96.3417 304.047 96.6583 303.852 96.8535L296.704 104L303.851 111.146L303.915 111.225C304.043 111.418 304.021 111.682 303.851 111.852C303.68 112.023 303.416 112.045 303.222 111.917L303.144 111.852L295.998 104.706L288.852 111.852L288.773 111.918C288.579 112.046 288.315 112.023 288.144 111.852C287.974 111.682 287.952 111.418 288.08 111.225L288.144 111.145L295.291 103.999L288.144 96.8525C287.949 96.6574 287.949 96.3416 288.144 96.1464C288.34 95.9514 288.655 95.9513 288.851 96.1464L295.997 103.293L303.144 96.1464ZM351.144 96.1464C351.34 95.9512 351.656 95.9512 351.852 96.1464C352.047 96.3417 352.047 96.6583 351.852 96.8535L344.704 104L351.851 111.146L351.915 111.225C352.043 111.418 352.021 111.682 351.851 111.852C351.68 112.023 351.416 112.045 351.222 111.917L351.144 111.852L343.998 104.706L336.852 111.852L336.773 111.918C336.579 112.046 336.315 112.023 336.144 111.852C335.974 111.682 335.952 111.418 336.08 111.225L336.144 111.145L343.291 103.999L336.144 96.8525C335.949 96.6574 335.949 96.3416 336.144 96.1464C336.34 95.9514 336.655 95.9513 336.851 96.1464L343.997 103.293L351.144 96.1464ZM399.144 96.1464C399.34 95.9512 399.656 95.9512 399.852 96.1464C400.047 96.3417 400.047 96.6583 399.852 96.8535L392.704 104L399.851 111.146L399.915 111.225C400.043 111.418 400.021 111.682 399.851 111.852C399.68 112.023 399.416 112.045 399.222 111.917L399.144 111.852L391.998 104.706L384.852 111.852L384.773 111.918C384.579 112.046 384.315 112.023 384.144 111.852C383.974 111.682 383.952 111.418 384.08 111.225L384.144 111.145L391.291 103.999L384.144 96.8525C383.949 96.6574 383.949 96.3416 384.144 96.1464C384.34 95.9514 384.655 95.9513 384.851 96.1464L391.997 103.293L399.144 96.1464ZM447.144 96.1464C447.34 95.9512 447.656 95.9512 447.852 96.1464C448.047 96.3417 448.047 96.6583 447.852 96.8535L440.704 104L447.851 111.146L447.915 111.225C448.043 111.418 448.021 111.682 447.851 111.852C447.68 112.023 447.416 112.045 447.222 111.917L447.144 111.852L439.998 104.706L432.852 111.852L432.773 111.918C432.579 112.046 432.315 112.023 432.144 111.852C431.974 111.682 431.952 111.418 432.08 111.225L432.144 111.145L439.291 103.999L432.144 96.8525C431.949 96.6574 431.949 96.3416 432.144 96.1464C432.34 95.9514 432.655 95.9513 432.851 96.1464L439.997 103.293L447.144 96.1464ZM495.144 96.1464C495.34 95.9512 495.656 95.9512 495.852 96.1464C496.047 96.3417 496.047 96.6583 495.852 96.8535L488.704 104L495.851 111.146L495.915 111.225C496.043 111.418 496.021 111.682 495.851 111.852C495.68 112.023 495.416 112.045 495.222 111.917L495.144 111.852L487.998 104.706L480.852 111.852L480.773 111.918C480.579 112.046 480.315 112.023 480.144 111.852C479.974 111.682 479.952 111.418 480.08 111.225L480.144 111.145L487.291 103.999L480.144 96.8525C479.949 96.6574 479.949 96.3416 480.144 96.1464C480.34 95.9514 480.655 95.9513 480.851 96.1464L487.997 103.293L495.144 96.1464ZM543.144 96.1464C543.34 95.9512 543.656 95.9512 543.852 96.1464C544.047 96.3417 544.047 96.6583 543.852 96.8535L536.704 104L543.851 111.146L543.915 111.225C544.043 111.418 544.021 111.682 543.851 111.852C543.68 112.023 543.416 112.045 543.222 111.917L543.144 111.852L535.998 104.706L528.852 111.852L528.773 111.918C528.579 112.046 528.315 112.023 528.144 111.852C527.974 111.682 527.952 111.418 528.08 111.225L528.144 111.145L535.291 103.999L528.144 96.8525C527.949 96.6574 527.949 96.3416 528.144 96.1464C528.34 95.9514 528.655 95.9513 528.851 96.1464L535.997 103.293L543.144 96.1464ZM39.1464 72.1464C39.3417 71.9512 39.6582 71.9512 39.8535 72.1464C40.0485 72.3417 40.0486 72.6583 39.8535 72.8535L32.706 80L39.8525 87.1464L39.9169 87.2246C40.0449 87.4185 40.0231 87.6818 39.8525 87.8525C39.6817 88.0233 39.4175 88.0452 39.2236 87.9169L39.1464 87.8525L31.9999 80.706L24.8544 87.8525L24.7753 87.9179C24.5813 88.0459 24.3172 88.0232 24.1464 87.8525C23.976 87.6817 23.9541 87.4185 24.082 87.2246L24.1464 87.1455L31.2929 79.999L24.1464 72.8525C23.9513 72.6574 23.9513 72.3416 24.1464 72.1464C24.3416 71.9514 24.6574 71.9513 24.8525 72.1464L31.999 79.2929L39.1464 72.1464ZM87.1464 72.1464C87.3417 71.9512 87.6582 71.9512 87.8535 72.1464C88.0485 72.3417 88.0486 72.6583 87.8535 72.8535L80.706 80L87.8525 87.1464L87.9169 87.2246C88.0449 87.4185 88.0231 87.6818 87.8525 87.8525C87.6817 88.0233 87.4175 88.0452 87.2236 87.9169L87.1464 87.8525L79.9999 80.706L72.8544 87.8525L72.7753 87.9179C72.5813 88.0459 72.3172 88.0232 72.1464 87.8525C71.976 87.6817 71.9541 87.4185 72.082 87.2246L72.1464 87.1455L79.2929 79.999L72.1464 72.8525C71.9513 72.6574 71.9513 72.3416 72.1464 72.1464C72.3416 71.9514 72.6574 71.9513 72.8525 72.1464L79.999 79.2929L87.1464 72.1464ZM135.146 72.1464C135.342 71.9512 135.658 71.9512 135.853 72.1464C136.049 72.3417 136.049 72.6583 135.853 72.8535L128.706 80L135.852 87.1464L135.917 87.2246C136.045 87.4185 136.023 87.6818 135.852 87.8525C135.682 88.0233 135.418 88.0452 135.224 87.9169L135.146 87.8525L128 80.706L120.854 87.8525L120.775 87.9179C120.581 88.0459 120.317 88.0232 120.146 87.8525C119.976 87.6817 119.954 87.4185 120.082 87.2246L120.146 87.1455L127.293 79.999L120.146 72.8525C119.951 72.6574 119.951 72.3416 120.146 72.1464C120.342 71.9514 120.657 71.9513 120.852 72.1464L127.999 79.2929L135.146 72.1464ZM183.146 72.1464C183.342 71.9512 183.658 71.9512 183.853 72.1464C184.049 72.3417 184.049 72.6583 183.853 72.8535L176.706 80L183.852 87.1464L183.917 87.2246C184.045 87.4185 184.023 87.6818 183.852 87.8525C183.682 88.0233 183.418 88.0452 183.224 87.9169L183.146 87.8525L176 80.706L168.854 87.8525L168.775 87.9179C168.581 88.0459 168.317 88.0232 168.146 87.8525C167.976 87.6817 167.954 87.4185 168.082 87.2246L168.146 87.1455L175.293 79.999L168.146 72.8525C167.951 72.6574 167.951 72.3416 168.146 72.1464C168.342 71.9514 168.657 71.9513 168.852 72.1464L175.999 79.2929L183.146 72.1464ZM231.146 72.1464C231.342 71.9512 231.658 71.9512 231.853 72.1464C232.049 72.3417 232.049 72.6583 231.853 72.8535L224.706 80L231.852 87.1464L231.917 87.2246C232.045 87.4185 232.023 87.6818 231.852 87.8525C231.682 88.0233 231.418 88.0452 231.224 87.9169L231.146 87.8525L224 80.706L216.854 87.8525L216.775 87.9179C216.581 88.0459 216.317 88.0232 216.146 87.8525C215.976 87.6817 215.954 87.4185 216.082 87.2246L216.146 87.1455L223.293 79.999L216.146 72.8525C215.951 72.6574 215.951 72.3416 216.146 72.1464C216.342 71.9514 216.657 71.9513 216.852 72.1464L223.999 79.2929L231.146 72.1464ZM279.144 72.1464C279.34 71.9512 279.656 71.9512 279.852 72.1464C280.047 72.3417 280.047 72.6583 279.852 72.8535L272.704 80L279.851 87.1464L279.915 87.2246C280.043 87.4185 280.021 87.6818 279.851 87.8525C279.68 88.0233 279.416 88.0452 279.222 87.9169L279.144 87.8525L271.998 80.706L264.852 87.8525L264.773 87.9179C264.579 88.0459 264.315 88.0232 264.144 87.8525C263.974 87.6817 263.952 87.4185 264.08 87.2246L264.144 87.1455L271.291 79.999L264.144 72.8525C263.949 72.6574 263.949 72.3416 264.144 72.1464C264.34 71.9514 264.655 71.9513 264.851 72.1464L271.997 79.2929L279.144 72.1464ZM327.144 72.1464C327.34 71.9512 327.656 71.9512 327.852 72.1464C328.047 72.3417 328.047 72.6583 327.852 72.8535L320.704 80L327.851 87.1464L327.915 87.2246C328.043 87.4185 328.021 87.6818 327.851 87.8525C327.68 88.0233 327.416 88.0452 327.222 87.9169L327.144 87.8525L319.998 80.706L312.852 87.8525L312.773 87.9179C312.579 88.0459 312.315 88.0232 312.144 87.8525C311.974 87.6817 311.952 87.4185 312.08 87.2246L312.144 87.1455L319.291 79.999L312.144 72.8525C311.949 72.6574 311.949 72.3416 312.144 72.1464C312.34 71.9514 312.655 71.9513 312.851 72.1464L319.997 79.2929L327.144 72.1464ZM375.144 72.1464C375.34 71.9512 375.656 71.9512 375.852 72.1464C376.047 72.3417 376.047 72.6583 375.852 72.8535L368.704 80L375.851 87.1464L375.915 87.2246C376.043 87.4185 376.021 87.6818 375.851 87.8525C375.68 88.0233 375.416 88.0452 375.222 87.9169L375.144 87.8525L367.998 80.706L360.852 87.8525L360.773 87.9179C360.579 88.0459 360.315 88.0232 360.144 87.8525C359.974 87.6817 359.952 87.4185 360.08 87.2246L360.144 87.1455L367.291 79.999L360.144 72.8525C359.949 72.6574 359.949 72.3416 360.144 72.1464C360.34 71.9514 360.655 71.9513 360.851 72.1464L367.997 79.2929L375.144 72.1464ZM423.144 72.1464C423.34 71.9512 423.656 71.9512 423.852 72.1464C424.047 72.3417 424.047 72.6583 423.852 72.8535L416.704 80L423.851 87.1464L423.915 87.2246C424.043 87.4185 424.021 87.6818 423.851 87.8525C423.68 88.0233 423.416 88.0452 423.222 87.9169L423.144 87.8525L415.998 80.706L408.852 87.8525L408.773 87.9179C408.579 88.0459 408.315 88.0232 408.144 87.8525C407.974 87.6817 407.952 87.4185 408.08 87.2246L408.144 87.1455L415.291 79.999L408.144 72.8525C407.949 72.6574 407.949 72.3416 408.144 72.1464C408.34 71.9514 408.655 71.9513 408.851 72.1464L415.997 79.2929L423.144 72.1464ZM471.144 72.1464C471.34 71.9512 471.656 71.9512 471.852 72.1464C472.047 72.3417 472.047 72.6583 471.852 72.8535L464.704 80L471.851 87.1464L471.915 87.2246C472.043 87.4185 472.021 87.6818 471.851 87.8525C471.68 88.0233 471.416 88.0452 471.222 87.9169L471.144 87.8525L463.998 80.706L456.852 87.8525L456.773 87.9179C456.579 88.0459 456.315 88.0232 456.144 87.8525C455.974 87.6817 455.952 87.4185 456.08 87.2246L456.144 87.1455L463.291 79.999L456.144 72.8525C455.949 72.6574 455.949 72.3416 456.144 72.1464C456.34 71.9514 456.655 71.9513 456.851 72.1464L463.997 79.2929L471.144 72.1464ZM519.144 72.1464C519.34 71.9512 519.656 71.9512 519.852 72.1464C520.047 72.3417 520.047 72.6583 519.852 72.8535L512.704 80L519.851 87.1464L519.915 87.2246C520.043 87.4185 520.021 87.6818 519.851 87.8525C519.68 88.0233 519.416 88.0452 519.222 87.9169L519.144 87.8525L511.998 80.706L504.852 87.8525L504.773 87.9179C504.579 88.0459 504.315 88.0232 504.144 87.8525C503.974 87.6817 503.952 87.4185 504.08 87.2246L504.144 87.1455L511.291 79.999L504.144 72.8525C503.949 72.6574 503.949 72.3416 504.144 72.1464C504.34 71.9514 504.655 71.9513 504.851 72.1464L511.997 79.2929L519.144 72.1464ZM567.144 72.1464C567.34 71.9512 567.656 71.9512 567.852 72.1464C568.047 72.3417 568.047 72.6583 567.852 72.8535L560.704 80L567.851 87.1464L567.915 87.2246C568.043 87.4185 568.021 87.6818 567.851 87.8525C567.68 88.0233 567.416 88.0452 567.222 87.9169L567.144 87.8525L559.998 80.706L552.852 87.8525L552.773 87.9179C552.579 88.0459 552.315 88.0232 552.144 87.8525C551.974 87.6817 551.952 87.4185 552.08 87.2246L552.144 87.1455L559.291 79.999L552.144 72.8525C551.949 72.6574 551.949 72.3416 552.144 72.1464C552.34 71.9514 552.655 71.9513 552.851 72.1464L559.997 79.2929L567.144 72.1464ZM15.1464 48.1464C15.3417 47.9512 15.6582 47.9512 15.8535 48.1464C16.0485 48.3417 16.0486 48.6583 15.8535 48.8535L8.70599 56L15.8525 63.1464L15.9169 63.2246C16.0449 63.4185 16.0231 63.6818 15.8525 63.8525C15.6817 64.0233 15.4175 64.0452 15.2236 63.9169L15.1464 63.8525L7.99994 56.706L0.854432 63.8525L0.77533 63.9179C0.581312 64.0459 0.317221 64.0232 0.146424 63.8525C-0.0239966 63.6817 -0.0458878 63.4185 0.0819711 63.2246L0.146424 63.1455L7.29291 55.999L0.146424 48.8525C-0.0486959 48.6574 -0.0486959 48.3416 0.146424 48.1464C0.341552 47.9514 0.65739 47.9513 0.852479 48.1464L7.99896 55.2929L15.1464 48.1464ZM63.1464 48.1464C63.3417 47.9512 63.6582 47.9512 63.8535 48.1464C64.0485 48.3417 64.0486 48.6583 63.8535 48.8535L56.706 56L63.8525 63.1464L63.9169 63.2246C64.0449 63.4185 64.0231 63.6818 63.8525 63.8525C63.6817 64.0233 63.4175 64.0452 63.2236 63.9169L63.1464 63.8525L55.9999 56.706L48.8544 63.8525L48.7753 63.9179C48.5813 64.0459 48.3172 64.0232 48.1464 63.8525C47.976 63.6817 47.9541 63.4185 48.082 63.2246L48.1464 63.1455L55.2929 55.999L48.1464 48.8525C47.9513 48.6574 47.9513 48.3416 48.1464 48.1464C48.3416 47.9514 48.6574 47.9513 48.8525 48.1464L55.999 55.2929L63.1464 48.1464ZM111.146 48.1464C111.342 47.9512 111.658 47.9512 111.853 48.1464C112.049 48.3417 112.049 48.6583 111.853 48.8535L104.706 56L111.852 63.1464L111.917 63.2246C112.045 63.4185 112.023 63.6818 111.852 63.8525C111.682 64.0233 111.418 64.0452 111.224 63.9169L111.146 63.8525L104 56.706L96.8544 63.8525L96.7753 63.9179C96.5813 64.0459 96.3172 64.0232 96.1464 63.8525C95.976 63.6817 95.9541 63.4185 96.082 63.2246L96.1464 63.1455L103.293 55.999L96.1464 48.8525C95.9513 48.6574 95.9513 48.3416 96.1464 48.1464C96.3416 47.9514 96.6574 47.9513 96.8525 48.1464L103.999 55.2929L111.146 48.1464ZM159.146 48.1464C159.342 47.9512 159.658 47.9512 159.853 48.1464C160.049 48.3417 160.049 48.6583 159.853 48.8535L152.706 56L159.852 63.1464L159.917 63.2246C160.045 63.4185 160.023 63.6818 159.852 63.8525C159.682 64.0233 159.418 64.0452 159.224 63.9169L159.146 63.8525L152 56.706L144.854 63.8525L144.775 63.9179C144.581 64.0459 144.317 64.0232 144.146 63.8525C143.976 63.6817 143.954 63.4185 144.082 63.2246L144.146 63.1455L151.293 55.999L144.146 48.8525C143.951 48.6574 143.951 48.3416 144.146 48.1464C144.342 47.9514 144.657 47.9513 144.852 48.1464L151.999 55.2929L159.146 48.1464ZM207.146 48.1464C207.342 47.9512 207.658 47.9512 207.853 48.1464C208.049 48.3417 208.049 48.6583 207.853 48.8535L200.706 56L207.852 63.1464L207.917 63.2246C208.045 63.4185 208.023 63.6818 207.852 63.8525C207.682 64.0233 207.418 64.0452 207.224 63.9169L207.146 63.8525L200 56.706L192.854 63.8525L192.775 63.9179C192.581 64.0459 192.317 64.0232 192.146 63.8525C191.976 63.6817 191.954 63.4185 192.082 63.2246L192.146 63.1455L199.293 55.999L192.146 48.8525C191.951 48.6574 191.951 48.3416 192.146 48.1464C192.342 47.9514 192.657 47.9513 192.852 48.1464L199.999 55.2929L207.146 48.1464ZM255.144 48.1464C255.34 47.9512 255.656 47.9512 255.852 48.1464C256.047 48.3417 256.047 48.6583 255.852 48.8535L248.704 56L255.851 63.1464L255.915 63.2246C256.043 63.4185 256.021 63.6818 255.851 63.8525C255.68 64.0233 255.416 64.0452 255.222 63.9169L255.144 63.8525L247.998 56.706L240.852 63.8525L240.773 63.9179C240.579 64.0459 240.315 64.0232 240.144 63.8525C239.974 63.6817 239.952 63.4185 240.08 63.2246L240.144 63.1455L247.291 55.999L240.144 48.8525C239.949 48.6574 239.949 48.3416 240.144 48.1464C240.34 47.9514 240.655 47.9513 240.851 48.1464L247.997 55.2929L255.144 48.1464ZM303.144 48.1464C303.34 47.9512 303.656 47.9512 303.852 48.1464C304.047 48.3417 304.047 48.6583 303.852 48.8535L296.704 56L303.851 63.1464L303.915 63.2246C304.043 63.4185 304.021 63.6818 303.851 63.8525C303.68 64.0233 303.416 64.0452 303.222 63.9169L303.144 63.8525L295.998 56.706L288.852 63.8525L288.773 63.9179C288.579 64.0459 288.315 64.0232 288.144 63.8525C287.974 63.6817 287.952 63.4185 288.08 63.2246L288.144 63.1455L295.291 55.999L288.144 48.8525C287.949 48.6574 287.949 48.3416 288.144 48.1464C288.34 47.9514 288.655 47.9513 288.851 48.1464L295.997 55.2929L303.144 48.1464ZM351.144 48.1464C351.34 47.9512 351.656 47.9512 351.852 48.1464C352.047 48.3417 352.047 48.6583 351.852 48.8535L344.704 56L351.851 63.1464L351.915 63.2246C352.043 63.4185 352.021 63.6818 351.851 63.8525C351.68 64.0233 351.416 64.0452 351.222 63.9169L351.144 63.8525L343.998 56.706L336.852 63.8525L336.773 63.9179C336.579 64.0459 336.315 64.0232 336.144 63.8525C335.974 63.6817 335.952 63.4185 336.08 63.2246L336.144 63.1455L343.291 55.999L336.144 48.8525C335.949 48.6574 335.949 48.3416 336.144 48.1464C336.34 47.9514 336.655 47.9513 336.851 48.1464L343.997 55.2929L351.144 48.1464ZM399.144 48.1464C399.34 47.9512 399.656 47.9512 399.852 48.1464C400.047 48.3417 400.047 48.6583 399.852 48.8535L392.704 56L399.851 63.1464L399.915 63.2246C400.043 63.4185 400.021 63.6818 399.851 63.8525C399.68 64.0233 399.416 64.0452 399.222 63.9169L399.144 63.8525L391.998 56.706L384.852 63.8525L384.773 63.9179C384.579 64.0459 384.315 64.0232 384.144 63.8525C383.974 63.6817 383.952 63.4185 384.08 63.2246L384.144 63.1455L391.291 55.999L384.144 48.8525C383.949 48.6574 383.949 48.3416 384.144 48.1464C384.34 47.9514 384.655 47.9513 384.851 48.1464L391.997 55.2929L399.144 48.1464ZM447.144 48.1464C447.34 47.9512 447.656 47.9512 447.852 48.1464C448.047 48.3417 448.047 48.6583 447.852 48.8535L440.704 56L447.851 63.1464L447.915 63.2246C448.043 63.4185 448.021 63.6818 447.851 63.8525C447.68 64.0233 447.416 64.0452 447.222 63.9169L447.144 63.8525L439.998 56.706L432.852 63.8525L432.773 63.9179C432.579 64.0459 432.315 64.0232 432.144 63.8525C431.974 63.6817 431.952 63.4185 432.08 63.2246L432.144 63.1455L439.291 55.999L432.144 48.8525C431.949 48.6574 431.949 48.3416 432.144 48.1464C432.34 47.9514 432.655 47.9513 432.851 48.1464L439.997 55.2929L447.144 48.1464ZM495.144 48.1464C495.34 47.9512 495.656 47.9512 495.852 48.1464C496.047 48.3417 496.047 48.6583 495.852 48.8535L488.704 56L495.851 63.1464L495.915 63.2246C496.043 63.4185 496.021 63.6818 495.851 63.8525C495.68 64.0233 495.416 64.0452 495.222 63.9169L495.144 63.8525L487.998 56.706L480.852 63.8525L480.773 63.9179C480.579 64.0459 480.315 64.0232 480.144 63.8525C479.974 63.6817 479.952 63.4185 480.08 63.2246L480.144 63.1455L487.291 55.999L480.144 48.8525C479.949 48.6574 479.949 48.3416 480.144 48.1464C480.34 47.9514 480.655 47.9513 480.851 48.1464L487.997 55.2929L495.144 48.1464ZM543.144 48.1464C543.34 47.9512 543.656 47.9512 543.852 48.1464C544.047 48.3417 544.047 48.6583 543.852 48.8535L536.704 56L543.851 63.1464L543.915 63.2246C544.043 63.4185 544.021 63.6818 543.851 63.8525C543.68 64.0233 543.416 64.0452 543.222 63.9169L543.144 63.8525L535.998 56.706L528.852 63.8525L528.773 63.9179C528.579 64.0459 528.315 64.0232 528.144 63.8525C527.974 63.6817 527.952 63.4185 528.08 63.2246L528.144 63.1455L535.291 55.999L528.144 48.8525C527.949 48.6574 527.949 48.3416 528.144 48.1464C528.34 47.9514 528.655 47.9513 528.851 48.1464L535.997 55.2929L543.144 48.1464ZM39.1464 24.1464C39.3417 23.9512 39.6582 23.9512 39.8535 24.1464C40.0485 24.3417 40.0486 24.6583 39.8535 24.8535L32.706 32L39.8525 39.1464L39.9169 39.2246C40.0449 39.4185 40.0231 39.6818 39.8525 39.8525C39.6817 40.0233 39.4175 40.0452 39.2236 39.9169L39.1464 39.8525L31.9999 32.706L24.8544 39.8525L24.7753 39.9179C24.5813 40.0459 24.3172 40.0232 24.1464 39.8525C23.976 39.6817 23.9541 39.4185 24.082 39.2246L24.1464 39.1455L31.2929 31.999L24.1464 24.8525C23.9513 24.6574 23.9513 24.3416 24.1464 24.1464C24.3416 23.9514 24.6574 23.9513 24.8525 24.1464L31.999 31.2929L39.1464 24.1464ZM87.1464 24.1464C87.3417 23.9512 87.6582 23.9512 87.8535 24.1464C88.0485 24.3417 88.0486 24.6583 87.8535 24.8535L80.706 32L87.8525 39.1464L87.9169 39.2246C88.0449 39.4185 88.0231 39.6818 87.8525 39.8525C87.6817 40.0233 87.4175 40.0452 87.2236 39.9169L87.1464 39.8525L79.9999 32.706L72.8544 39.8525L72.7753 39.9179C72.5813 40.0459 72.3172 40.0232 72.1464 39.8525C71.976 39.6817 71.9541 39.4185 72.082 39.2246L72.1464 39.1455L79.2929 31.999L72.1464 24.8525C71.9513 24.6574 71.9513 24.3416 72.1464 24.1464C72.3416 23.9514 72.6574 23.9513 72.8525 24.1464L79.999 31.2929L87.1464 24.1464ZM135.146 24.1464C135.342 23.9512 135.658 23.9512 135.853 24.1464C136.049 24.3417 136.049 24.6583 135.853 24.8535L128.706 32L135.852 39.1464L135.917 39.2246C136.045 39.4185 136.023 39.6818 135.852 39.8525C135.682 40.0233 135.418 40.0452 135.224 39.9169L135.146 39.8525L128 32.706L120.854 39.8525L120.775 39.9179C120.581 40.0459 120.317 40.0232 120.146 39.8525C119.976 39.6817 119.954 39.4185 120.082 39.2246L120.146 39.1455L127.293 31.999L120.146 24.8525C119.951 24.6574 119.951 24.3416 120.146 24.1464C120.342 23.9514 120.657 23.9513 120.852 24.1464L127.999 31.2929L135.146 24.1464ZM183.146 24.1464C183.342 23.9512 183.658 23.9512 183.853 24.1464C184.049 24.3417 184.049 24.6583 183.853 24.8535L176.706 32L183.852 39.1464L183.917 39.2246C184.045 39.4185 184.023 39.6818 183.852 39.8525C183.682 40.0233 183.418 40.0452 183.224 39.9169L183.146 39.8525L176 32.706L168.854 39.8525L168.775 39.9179C168.581 40.0459 168.317 40.0232 168.146 39.8525C167.976 39.6817 167.954 39.4185 168.082 39.2246L168.146 39.1455L175.293 31.999L168.146 24.8525C167.951 24.6574 167.951 24.3416 168.146 24.1464C168.342 23.9514 168.657 23.9513 168.852 24.1464L175.999 31.2929L183.146 24.1464ZM231.146 24.1464C231.342 23.9512 231.658 23.9512 231.853 24.1464C232.049 24.3417 232.049 24.6583 231.853 24.8535L224.706 32L231.852 39.1464L231.917 39.2246C232.045 39.4185 232.023 39.6818 231.852 39.8525C231.682 40.0233 231.418 40.0452 231.224 39.9169L231.146 39.8525L224 32.706L216.854 39.8525L216.775 39.9179C216.581 40.0459 216.317 40.0232 216.146 39.8525C215.976 39.6817 215.954 39.4185 216.082 39.2246L216.146 39.1455L223.293 31.999L216.146 24.8525C215.951 24.6574 215.951 24.3416 216.146 24.1464C216.342 23.9514 216.657 23.9513 216.852 24.1464L223.999 31.2929L231.146 24.1464ZM279.144 24.1464C279.34 23.9512 279.656 23.9512 279.852 24.1464C280.047 24.3417 280.047 24.6583 279.852 24.8535L272.704 32L279.851 39.1464L279.915 39.2246C280.043 39.4185 280.021 39.6818 279.851 39.8525C279.68 40.0233 279.416 40.0452 279.222 39.9169L279.144 39.8525L271.998 32.706L264.852 39.8525L264.773 39.9179C264.579 40.0459 264.315 40.0232 264.144 39.8525C263.974 39.6817 263.952 39.4185 264.08 39.2246L264.144 39.1455L271.291 31.999L264.144 24.8525C263.949 24.6574 263.949 24.3416 264.144 24.1464C264.34 23.9514 264.655 23.9513 264.851 24.1464L271.997 31.2929L279.144 24.1464ZM327.144 24.1464C327.34 23.9512 327.656 23.9512 327.852 24.1464C328.047 24.3417 328.047 24.6583 327.852 24.8535L320.704 32L327.851 39.1464L327.915 39.2246C328.043 39.4185 328.021 39.6818 327.851 39.8525C327.68 40.0233 327.416 40.0452 327.222 39.9169L327.144 39.8525L319.998 32.706L312.852 39.8525L312.773 39.9179C312.579 40.0459 312.315 40.0232 312.144 39.8525C311.974 39.6817 311.952 39.4185 312.08 39.2246L312.144 39.1455L319.291 31.999L312.144 24.8525C311.949 24.6574 311.949 24.3416 312.144 24.1464C312.34 23.9514 312.655 23.9513 312.851 24.1464L319.997 31.2929L327.144 24.1464ZM375.144 24.1464C375.34 23.9512 375.656 23.9512 375.852 24.1464C376.047 24.3417 376.047 24.6583 375.852 24.8535L368.704 32L375.851 39.1464L375.915 39.2246C376.043 39.4185 376.021 39.6818 375.851 39.8525C375.68 40.0233 375.416 40.0452 375.222 39.9169L375.144 39.8525L367.998 32.706L360.852 39.8525L360.773 39.9179C360.579 40.0459 360.315 40.0232 360.144 39.8525C359.974 39.6817 359.952 39.4185 360.08 39.2246L360.144 39.1455L367.291 31.999L360.144 24.8525C359.949 24.6574 359.949 24.3416 360.144 24.1464C360.34 23.9514 360.655 23.9513 360.851 24.1464L367.997 31.2929L375.144 24.1464ZM423.144 24.1464C423.34 23.9512 423.656 23.9512 423.852 24.1464C424.047 24.3417 424.047 24.6583 423.852 24.8535L416.704 32L423.851 39.1464L423.915 39.2246C424.043 39.4185 424.021 39.6818 423.851 39.8525C423.68 40.0233 423.416 40.0452 423.222 39.9169L423.144 39.8525L415.998 32.706L408.852 39.8525L408.773 39.9179C408.579 40.0459 408.315 40.0232 408.144 39.8525C407.974 39.6817 407.952 39.4185 408.08 39.2246L408.144 39.1455L415.291 31.999L408.144 24.8525C407.949 24.6574 407.949 24.3416 408.144 24.1464C408.34 23.9514 408.655 23.9513 408.851 24.1464L415.997 31.2929L423.144 24.1464ZM471.144 24.1464C471.34 23.9512 471.656 23.9512 471.852 24.1464C472.047 24.3417 472.047 24.6583 471.852 24.8535L464.704 32L471.851 39.1464L471.915 39.2246C472.043 39.4185 472.021 39.6818 471.851 39.8525C471.68 40.0233 471.416 40.0452 471.222 39.9169L471.144 39.8525L463.998 32.706L456.852 39.8525L456.773 39.9179C456.579 40.0459 456.315 40.0232 456.144 39.8525C455.974 39.6817 455.952 39.4185 456.08 39.2246L456.144 39.1455L463.291 31.999L456.144 24.8525C455.949 24.6574 455.949 24.3416 456.144 24.1464C456.34 23.9514 456.655 23.9513 456.851 24.1464L463.997 31.2929L471.144 24.1464ZM519.144 24.1464C519.34 23.9512 519.656 23.9512 519.852 24.1464C520.047 24.3417 520.047 24.6583 519.852 24.8535L512.704 32L519.851 39.1464L519.915 39.2246C520.043 39.4185 520.021 39.6818 519.851 39.8525C519.68 40.0233 519.416 40.0452 519.222 39.9169L519.144 39.8525L511.998 32.706L504.852 39.8525L504.773 39.9179C504.579 40.0459 504.315 40.0232 504.144 39.8525C503.974 39.6817 503.952 39.4185 504.08 39.2246L504.144 39.1455L511.291 31.999L504.144 24.8525C503.949 24.6574 503.949 24.3416 504.144 24.1464C504.34 23.9514 504.655 23.9513 504.851 24.1464L511.997 31.2929L519.144 24.1464ZM567.144 24.1464C567.34 23.9512 567.656 23.9512 567.852 24.1464C568.047 24.3417 568.047 24.6583 567.852 24.8535L560.704 32L567.851 39.1464L567.915 39.2246C568.043 39.4185 568.021 39.6818 567.851 39.8525C567.68 40.0233 567.416 40.0452 567.222 39.9169L567.144 39.8525L559.998 32.706L552.852 39.8525L552.773 39.9179C552.579 40.0459 552.315 40.0232 552.144 39.8525C551.974 39.6817 551.952 39.4185 552.08 39.2246L552.144 39.1455L559.291 31.999L552.144 24.8525C551.949 24.6574 551.949 24.3416 552.144 24.1464C552.34 23.9514 552.655 23.9513 552.851 24.1464L559.997 31.2929L567.144 24.1464ZM15.1464 0.146437C15.3417 -0.0488062 15.6582 -0.0488187 15.8535 0.146437C16.0485 0.341709 16.0486 0.658269 15.8535 0.853468L8.70599 7.99995L15.8525 15.1464L15.9169 15.2246C16.0449 15.4185 16.0231 15.6818 15.8525 15.8525C15.6817 16.0233 15.4175 16.0452 15.2236 15.9169L15.1464 15.8525L7.99994 8.70601L0.854432 15.8525L0.77533 15.9179C0.581312 16.0459 0.317221 16.0232 0.146424 15.8525C-0.0239966 15.6817 -0.0458878 15.4185 0.0819711 15.2246L0.146424 15.1455L7.29291 7.99898L0.146424 0.852492C-0.0486959 0.657372 -0.0486959 0.341557 0.146424 0.146437C0.341552 -0.0485891 0.65739 -0.0486516 0.852479 0.146437L7.99896 7.29292L15.1464 0.146437ZM63.1464 0.146437C63.3417 -0.0488052 63.6582 -0.0488183 63.8535 0.146437C64.0485 0.341709 64.0486 0.65827 63.8535 0.853468L56.706 7.99995L63.8525 15.1464L63.9169 15.2246C64.0449 15.4185 64.0231 15.6818 63.8525 15.8525C63.6817 16.0233 63.4175 16.0452 63.2236 15.9169L63.1464 15.8525L55.9999 8.70601L48.8544 15.8525L48.7753 15.9179C48.5813 16.0459 48.3172 16.0232 48.1464 15.8525C47.976 15.6817 47.9541 15.4185 48.082 15.2246L48.1464 15.1455L55.2929 7.99898L48.1464 0.852492C47.9513 0.657372 47.9513 0.341557 48.1464 0.146437C48.3416 -0.0485882 48.6574 -0.0486514 48.8525 0.146437L55.999 7.29292L63.1464 0.146437ZM111.146 0.146437C111.342 -0.0488052 111.658 -0.0488183 111.853 0.146437C112.049 0.341709 112.049 0.65827 111.853 0.853468L104.706 7.99995L111.852 15.1464L111.917 15.2246C112.045 15.4185 112.023 15.6818 111.852 15.8525C111.682 16.0233 111.418 16.0452 111.224 15.9169L111.146 15.8525L104 8.70601L96.8544 15.8525L96.7753 15.9179C96.5813 16.0459 96.3172 16.0232 96.1464 15.8525C95.976 15.6817 95.9541 15.4185 96.082 15.2246L96.1464 15.1455L103.293 7.99898L96.1464 0.852492C95.9513 0.657372 95.9513 0.341557 96.1464 0.146437C96.3416 -0.0485882 96.6574 -0.0486514 96.8525 0.146437L103.999 7.29292L111.146 0.146437ZM159.146 0.146437C159.342 -0.0488052 159.658 -0.0488183 159.853 0.146437C160.049 0.341709 160.049 0.65827 159.853 0.853468L152.706 7.99995L159.852 15.1464L159.917 15.2246C160.045 15.4185 160.023 15.6818 159.852 15.8525C159.682 16.0233 159.418 16.0452 159.224 15.9169L159.146 15.8525L152 8.70601L144.854 15.8525L144.775 15.9179C144.581 16.0459 144.317 16.0232 144.146 15.8525C143.976 15.6817 143.954 15.4185 144.082 15.2246L144.146 15.1455L151.293 7.99898L144.146 0.852492C143.951 0.657372 143.951 0.341557 144.146 0.146437C144.342 -0.0485882 144.657 -0.0486514 144.852 0.146437L151.999 7.29292L159.146 0.146437ZM207.146 0.146437C207.342 -0.0488052 207.658 -0.0488183 207.853 0.146437C208.049 0.341709 208.049 0.65827 207.853 0.853468L200.706 7.99995L207.852 15.1464L207.917 15.2246C208.045 15.4185 208.023 15.6818 207.852 15.8525C207.682 16.0233 207.418 16.0452 207.224 15.9169L207.146 15.8525L200 8.70601L192.854 15.8525L192.775 15.9179C192.581 16.0459 192.317 16.0232 192.146 15.8525C191.976 15.6817 191.954 15.4185 192.082 15.2246L192.146 15.1455L199.293 7.99898L192.146 0.852492C191.951 0.657372 191.951 0.341557 192.146 0.146437C192.342 -0.0485882 192.657 -0.0486514 192.852 0.146437L199.999 7.29292L207.146 0.146437ZM255.144 0.146437C255.34 -0.0488052 255.656 -0.0488183 255.852 0.146437C256.047 0.341709 256.047 0.65827 255.852 0.853468L248.704 7.99995L255.851 15.1464L255.915 15.2246C256.043 15.4185 256.021 15.6818 255.851 15.8525C255.68 16.0233 255.416 16.0452 255.222 15.9169L255.144 15.8525L247.998 8.70601L240.852 15.8525L240.773 15.9179C240.579 16.0459 240.315 16.0232 240.144 15.8525C239.974 15.6817 239.952 15.4185 240.08 15.2246L240.144 15.1455L247.291 7.99898L240.144 0.852492C239.949 0.657372 239.949 0.341557 240.144 0.146437C240.34 -0.0485882 240.655 -0.0486514 240.851 0.146437L247.997 7.29292L255.144 0.146437ZM303.144 0.146437C303.34 -0.0488052 303.656 -0.0488183 303.852 0.146437C304.047 0.341709 304.047 0.65827 303.852 0.853468L296.704 7.99995L303.851 15.1464L303.915 15.2246C304.043 15.4185 304.021 15.6818 303.851 15.8525C303.68 16.0233 303.416 16.0452 303.222 15.9169L303.144 15.8525L295.998 8.70601L288.852 15.8525L288.773 15.9179C288.579 16.0459 288.315 16.0232 288.144 15.8525C287.974 15.6817 287.952 15.4185 288.08 15.2246L288.144 15.1455L295.291 7.99898L288.144 0.852492C287.949 0.657372 287.949 0.341557 288.144 0.146437C288.34 -0.0485882 288.655 -0.0486514 288.851 0.146437L295.997 7.29292L303.144 0.146437ZM351.144 0.146437C351.34 -0.0488052 351.656 -0.0488183 351.852 0.146437C352.047 0.341709 352.047 0.65827 351.852 0.853468L344.704 7.99995L351.851 15.1464L351.915 15.2246C352.043 15.4185 352.021 15.6818 351.851 15.8525C351.68 16.0233 351.416 16.0452 351.222 15.9169L351.144 15.8525L343.998 8.70601L336.852 15.8525L336.773 15.9179C336.579 16.0459 336.315 16.0232 336.144 15.8525C335.974 15.6817 335.952 15.4185 336.08 15.2246L336.144 15.1455L343.291 7.99898L336.144 0.852492C335.949 0.657372 335.949 0.341557 336.144 0.146437C336.34 -0.0485882 336.655 -0.0486514 336.851 0.146437L343.997 7.29292L351.144 0.146437ZM399.144 0.146437C399.34 -0.0488052 399.656 -0.0488183 399.852 0.146437C400.047 0.341709 400.047 0.65827 399.852 0.853468L392.704 7.99995L399.851 15.1464L399.915 15.2246C400.043 15.4185 400.021 15.6818 399.851 15.8525C399.68 16.0233 399.416 16.0452 399.222 15.9169L399.144 15.8525L391.998 8.70601L384.852 15.8525L384.773 15.9179C384.579 16.0459 384.315 16.0232 384.144 15.8525C383.974 15.6817 383.952 15.4185 384.08 15.2246L384.144 15.1455L391.291 7.99898L384.144 0.852492C383.949 0.657372 383.949 0.341557 384.144 0.146437C384.34 -0.0485882 384.655 -0.0486514 384.851 0.146437L391.997 7.29292L399.144 0.146437ZM447.144 0.146437C447.34 -0.0488052 447.656 -0.0488183 447.852 0.146437C448.047 0.341709 448.047 0.65827 447.852 0.853468L440.704 7.99995L447.851 15.1464L447.915 15.2246C448.043 15.4185 448.021 15.6818 447.851 15.8525C447.68 16.0233 447.416 16.0452 447.222 15.9169L447.144 15.8525L439.998 8.70601L432.852 15.8525L432.773 15.9179C432.579 16.0459 432.315 16.0232 432.144 15.8525C431.974 15.6817 431.952 15.4185 432.08 15.2246L432.144 15.1455L439.291 7.99898L432.144 0.852492C431.949 0.657372 431.949 0.341557 432.144 0.146437C432.34 -0.0485882 432.655 -0.0486514 432.851 0.146437L439.997 7.29292L447.144 0.146437ZM495.144 0.146437C495.34 -0.0488052 495.656 -0.0488183 495.852 0.146437C496.047 0.341709 496.047 0.65827 495.852 0.853468L488.704 7.99995L495.851 15.1464L495.915 15.2246C496.043 15.4185 496.021 15.6818 495.851 15.8525C495.68 16.0233 495.416 16.0452 495.222 15.9169L495.144 15.8525L487.998 8.70601L480.852 15.8525L480.773 15.9179C480.579 16.0459 480.315 16.0232 480.144 15.8525C479.974 15.6817 479.952 15.4185 480.08 15.2246L480.144 15.1455L487.291 7.99898L480.144 0.852492C479.949 0.657372 479.949 0.341557 480.144 0.146437C480.34 -0.0485882 480.655 -0.0486514 480.851 0.146437L487.997 7.29292L495.144 0.146437ZM543.144 0.146437C543.34 -0.0488052 543.656 -0.0488183 543.852 0.146437C544.047 0.341709 544.047 0.65827 543.852 0.853468L536.704 7.99995L543.851 15.1464L543.915 15.2246C544.043 15.4185 544.021 15.6818 543.851 15.8525C543.68 16.0233 543.416 16.0452 543.222 15.9169L543.144 15.8525L535.998 8.70601L528.852 15.8525L528.773 15.9179C528.579 16.0459 528.315 16.0232 528.144 15.8525C527.974 15.6817 527.952 15.4185 528.08 15.2246L528.144 15.1455L535.291 7.99898L528.144 0.852492C527.949 0.657372 527.949 0.341557 528.144 0.146437C528.34 -0.0485882 528.655 -0.0486514 528.851 0.146437L535.997 7.29292L543.144 0.146437Z" fill="#DADADA"/>
</svg>
