<svg width="468" height="256" viewBox="0 0 468 256" fill="none" xmlns="http://www.w3.org/2000/svg">
<path d="M689 455.5C689 204.487 485.513 1 234.5 1C-16.5134 1 -220 204.487 -220 455.5C-220 706.513 -16.5134 910 234.5 910V911C-17.0657 911 -221 707.066 -221 455.5C-221 203.934 -17.0657 0 234.5 0C486.066 0 690 203.934 690 455.5C690 707.066 486.066 911 234.5 911V910C485.513 910 689 706.513 689 455.5Z" fill="#D3CCEE"/>
<path d="M673 455.5C673 213.323 476.677 17 234.5 17C-7.67686 17 -204 213.323 -204 455.5C-204 697.677 -7.67686 894 234.5 894V895C-8.22914 895 -205 698.229 -205 455.5C-205 212.771 -8.22914 16 234.5 16C477.229 16 674 212.771 674 455.5C674 698.229 477.229 895 234.5 895V894C476.677 894 673 697.677 673 455.5Z" fill="#D3CCEE"/>
<path d="M657 455.5C657 222.16 467.84 33 234.5 33C1.1597 33 -188 222.16 -188 455.5C-188 688.84 1.1597 878 234.5 878V879C0.607407 879 -189 689.393 -189 455.5C-189 221.607 0.607407 32 234.5 32C468.393 32 658 221.607 658 455.5C658 689.393 468.393 879 234.5 879V878C467.84 878 657 688.84 657 455.5Z" fill="#D3CCEE"/>
<path d="M641 455.5C641 230.996 459.004 49 234.5 49C9.99625 49 -172 230.996 -172 455.5C-172 680.004 9.99625 862 234.5 862V863C9.44397 863 -173 680.556 -173 455.5C-173 230.444 9.44397 48 234.5 48C459.556 48 642 230.444 642 455.5C642 680.556 459.556 863 234.5 863V862C459.004 862 641 680.004 641 455.5Z" fill="#D3CCEE"/>
<path d="M625 455.5C625 239.833 450.167 65 234.5 65C18.8328 65 -156 239.833 -156 455.5C-156 671.167 18.8328 846 234.5 846V847C18.2805 847 -157 671.719 -157 455.5C-157 239.281 18.2805 64 234.5 64C450.719 64 626 239.281 626 455.5C626 671.719 450.719 847 234.5 847V846C450.167 846 625 671.167 625 455.5Z" fill="#D3CCEE"/>
<path d="M609 455.5C609 248.669 441.331 81 234.5 81C27.6694 81 -140 248.669 -140 455.5C-140 662.331 27.6694 830 234.5 830V831C27.1171 831 -141 662.883 -141 455.5C-141 248.117 27.1171 80 234.5 80C441.883 80 610 248.117 610 455.5C610 662.883 441.883 831 234.5 831V830C441.331 830 609 662.331 609 455.5Z" fill="#D3CCEE"/>
<path d="M593 455.5C593 257.506 432.494 97 234.5 97C36.5059 97 -124 257.506 -124 455.5C-124 653.494 36.5059 814 234.5 814V815C35.9536 815 -125 654.046 -125 455.5C-125 256.954 35.9536 96 234.5 96C433.046 96 594 256.954 594 455.5C594 654.046 433.046 815 234.5 815V814C432.494 814 593 653.494 593 455.5Z" fill="#D3CCEE"/>
<path d="M593 455.5C593 257.506 432.494 97 234.5 97C36.5059 97 -124 257.506 -124 455.5C-124 653.494 36.5059 814 234.5 814V815C35.9536 815 -125 654.046 -125 455.5C-125 256.954 35.9536 96 234.5 96C433.046 96 594 256.954 594 455.5C594 654.046 433.046 815 234.5 815V814C432.494 814 593 653.494 593 455.5Z" fill="#D3CCEE"/>
<path d="M577 455.5C577 266.342 423.658 113 234.5 113C45.3425 113 -108 266.342 -108 455.5C-108 644.658 45.3425 798 234.5 798V799C44.7902 799 -109 645.21 -109 455.5C-109 265.79 44.7902 112 234.5 112C424.21 112 578 265.79 578 455.5C578 645.21 424.21 799 234.5 799V798C423.658 798 577 644.658 577 455.5Z" fill="#D3CCEE"/>
<path d="M561 455.5C561 275.179 414.821 129 234.5 129C54.179 129 -92 275.179 -92 455.5C-92 635.821 54.179 782 234.5 782V783C53.6267 783 -93 636.373 -93 455.5C-93 274.627 53.6267 128 234.5 128C415.373 128 562 274.627 562 455.5C562 636.373 415.373 783 234.5 783V782C414.821 782 561 635.821 561 455.5Z" fill="#D3CCEE"/>
<path d="M545 455.5C545 284.016 405.984 145 234.5 145C63.0156 145 -76 284.016 -76 455.5C-76 626.984 63.0156 766 234.5 766V767C62.4633 767 -77 627.537 -77 455.5C-77 283.463 62.4633 144 234.5 144C406.537 144 546 283.463 546 455.5C546 627.537 406.537 767 234.5 767V766C405.984 766 545 626.984 545 455.5Z" fill="#D3CCEE"/>
<path d="M529 455.5C529 292.852 397.148 161 234.5 161C71.8521 161 -60 292.852 -60 455.5C-60 618.148 71.8521 750 234.5 750V751C71.2999 751 -61 618.7 -61 455.5C-61 292.3 71.2999 160 234.5 160C397.7 160 530 292.3 530 455.5C530 618.7 397.7 751 234.5 751V750C397.148 750 529 618.148 529 455.5Z" fill="#D3CCEE"/>
<path d="M513 455.5C513 301.689 388.311 177 234.5 177C80.6887 177 -44 301.689 -44 455.5C-44 609.311 80.6887 734 234.5 734V735C80.1364 735 -45 609.864 -45 455.5C-45 301.136 80.1364 176 234.5 176C388.864 176 514 301.136 514 455.5C514 609.864 388.864 735 234.5 735V734C388.311 734 513 609.311 513 455.5Z" fill="#D3CCEE"/>
<path d="M497 455.5C497 310.525 379.475 193 234.5 193C89.5253 193 -28 310.525 -28 455.5C-28 600.475 89.5253 718 234.5 718V719C88.973 719 -29 601.027 -29 455.5C-29 309.973 88.973 192 234.5 192C380.027 192 498 309.973 498 455.5C498 601.027 380.027 719 234.5 719V718C379.475 718 497 600.475 497 455.5Z" fill="#D3CCEE"/>
<path d="M481 455.5C481 319.362 370.638 209 234.5 209C98.3618 209 -12 319.362 -12 455.5C-12 591.638 98.3618 702 234.5 702V703C97.8095 703 -13 592.19 -13 455.5C-13 318.81 97.8095 208 234.5 208C371.19 208 482 318.81 482 455.5C482 592.19 371.19 703 234.5 703V702C370.638 702 481 591.638 481 455.5Z" fill="#D3CCEE"/>
<path d="M465 455.5C465 328.198 361.802 225 234.5 225C107.198 225 4 328.198 4 455.5C4 582.802 107.198 686 234.5 686V687C106.646 687 3 583.354 3 455.5C3 327.646 106.646 224 234.5 224C362.354 224 466 327.646 466 455.5C466 583.354 362.354 687 234.5 687V686C361.802 686 465 582.802 465 455.5Z" fill="#D3CCEE"/>
<path d="M449 455.5C449 337.035 352.965 241 234.5 241C116.035 241 20 337.035 20 455.5C20 573.965 116.035 670 234.5 670V671C115.483 671 19 574.517 19 455.5C19 336.483 115.483 240 234.5 240C353.517 240 450 336.483 450 455.5C450 574.517 353.517 671 234.5 671V670C352.965 670 449 573.965 449 455.5Z" fill="#D3CCEE"/>
</svg>
