<svg width="390" height="392" viewBox="0 0 390 392" fill="none" xmlns="http://www.w3.org/2000/svg">
<path d="M184.453 4.76372C190.083 -1.51522 199.917 -1.51523 205.547 4.76372C210.402 10.179 218.569 11.0374 224.444 6.74988C231.256 1.77857 240.876 3.82334 245.077 11.1355C248.7 17.4418 256.51 19.9795 263.148 17.0072C270.844 13.5608 279.829 17.561 282.418 25.5867C284.651 32.5085 291.763 36.6146 298.873 35.0873C307.118 33.3165 315.075 39.0972 315.938 47.4858C316.683 54.7206 322.786 60.2157 330.059 60.2002C338.492 60.1822 345.073 67.4908 344.173 75.8757C343.398 83.1073 348.225 89.7511 355.342 91.2481C363.595 92.9838 368.512 101.501 365.889 109.516C363.627 116.428 366.967 123.93 373.617 126.874C381.329 130.288 384.368 139.641 380.136 146.935C376.486 153.226 378.193 161.259 384.086 165.521C390.919 170.464 391.947 180.244 386.291 186.499C381.413 191.894 381.413 200.106 386.291 205.501C391.947 211.756 390.919 221.536 384.086 226.479C378.193 230.741 376.486 238.774 380.136 245.065C384.368 252.359 381.329 261.712 373.617 265.126C366.967 268.07 363.627 275.572 365.889 282.484C368.512 290.499 363.595 299.016 355.342 300.752C348.225 302.249 343.398 308.893 344.173 316.124C345.073 324.509 338.492 331.818 330.059 331.8C322.786 331.784 316.683 337.279 315.938 344.514C315.075 352.903 307.118 358.684 298.873 356.913C291.763 355.385 284.651 359.491 282.418 366.413C279.829 374.439 270.844 378.439 263.148 374.993C256.51 372.02 248.7 374.558 245.077 380.865C240.876 388.177 231.256 390.221 224.444 385.25C218.569 380.963 210.402 381.821 205.547 387.236C199.917 393.515 190.083 393.515 184.453 387.236C179.598 381.821 171.431 380.963 165.556 385.25C158.744 390.221 149.124 388.177 144.923 380.865C141.3 374.558 133.49 372.02 126.852 374.993C119.156 378.439 110.171 374.439 107.582 366.413C105.349 359.491 98.2375 355.385 91.1267 356.913C82.8817 358.684 74.9252 352.903 74.0616 344.514C73.3168 337.279 67.2139 331.784 59.9409 331.8C51.508 331.818 44.9272 324.509 45.8266 316.124C46.6022 308.893 41.7752 302.249 34.6579 300.752C26.4055 299.016 21.4881 290.499 24.1111 282.484C26.3733 275.572 23.0331 268.07 16.3826 265.126C8.67142 261.712 5.6323 252.359 9.86434 245.065C13.5142 238.774 11.8068 230.741 5.91376 226.479C-0.919209 221.536 -1.94722 211.756 3.70888 205.501C8.58697 200.106 8.58697 191.894 3.70888 186.499C-1.94722 180.244 -0.91921 170.464 5.91376 165.521C11.8068 161.259 13.5142 153.226 9.86434 146.935C5.6323 139.641 8.67142 130.288 16.3826 126.874C23.0331 123.93 26.3733 116.428 24.1111 109.516C21.4881 101.501 26.4055 92.9838 34.6579 91.2481C41.7752 89.7511 46.6022 83.1073 45.8266 75.8757C44.9272 67.4908 51.508 60.1822 59.9409 60.2002C67.2139 60.2157 73.3168 54.7206 74.0616 47.4858C74.9252 39.0972 82.8817 33.3165 91.1267 35.0873C98.2375 36.6146 105.349 32.5085 107.582 25.5867C110.171 17.5609 119.156 13.5608 126.852 17.0072C133.49 19.9795 141.3 17.4418 144.923 11.1355C149.124 3.82334 158.744 1.77857 165.556 6.74988C171.431 11.0374 179.598 10.179 184.453 4.76372Z" fill="#E6F1FF"/>
</svg>
