<svg width="468" height="256" viewBox="0 0 468 256" fill="none" xmlns="http://www.w3.org/2000/svg">
<path fill-rule="evenodd" clip-rule="evenodd" d="M219.612 256.128C255.244 235.556 290.398 229.735 298.13 243.127C305.862 256.519 283.244 284.053 247.612 304.626C211.979 325.198 176.825 331.019 169.093 317.627C161.361 304.235 183.979 276.701 219.612 256.128ZM220.112 256.994C202.372 267.236 187.91 279.19 178.862 290.205C174.336 295.715 171.2 300.948 169.662 305.576C168.124 310.206 168.22 314.115 169.959 317.127C171.698 320.139 175.035 322.176 179.814 323.159C184.591 324.142 190.691 324.042 197.726 322.877C211.789 320.548 229.372 314.002 247.112 303.76C264.851 293.517 279.313 281.563 288.361 270.549C292.887 265.039 296.023 259.806 297.561 255.177C299.099 250.548 299.003 246.639 297.264 243.627C295.525 240.615 292.188 238.578 287.41 237.595C282.632 236.612 276.533 236.712 269.497 237.877C255.435 240.205 237.851 246.752 220.112 256.994Z" fill="#B1C4D4"/>
<path fill-rule="evenodd" clip-rule="evenodd" d="M211.612 242.272C254.897 217.281 299.837 214.082 311.987 235.127C324.137 256.172 298.897 293.491 255.612 318.482C212.326 343.473 167.387 346.672 155.236 325.627C143.086 304.582 168.326 267.263 211.612 242.272ZM212.112 243.138C190.571 255.574 173.564 271.056 163.464 285.99C153.322 300.986 150.326 315.122 156.102 325.127C161.879 335.132 175.619 339.605 193.677 338.32C211.66 337.04 233.571 330.053 255.112 317.616C276.652 305.179 293.659 289.698 303.759 274.764C313.901 259.768 316.897 245.632 311.121 235.627C305.344 225.622 291.604 221.148 273.546 222.434C255.563 223.714 233.652 230.701 212.112 243.138Z" fill="#B1C4D4"/>
<path fill-rule="evenodd" clip-rule="evenodd" d="M203.612 228.415C254.55 199.006 309.275 198.429 325.843 227.127C342.412 255.824 314.55 302.929 263.612 332.338C212.673 361.748 157.948 362.324 141.38 333.627C124.811 304.929 152.673 257.825 203.612 228.415ZM204.112 229.281C178.763 243.916 159.2 262.932 148.041 281.798C136.864 300.694 134.222 319.229 142.246 333.127C150.27 347.024 167.643 354.004 189.596 353.772C211.514 353.541 237.763 346.107 263.112 331.472C288.46 316.838 308.023 297.822 319.182 278.956C330.359 260.06 333.001 241.524 324.977 227.627C316.953 213.729 299.58 206.75 277.627 206.981C255.709 207.212 229.46 214.647 204.112 229.281Z" fill="#B1C4D4"/>
<path fill-rule="evenodd" clip-rule="evenodd" d="M195.612 214.559C254.202 180.732 318.713 182.777 339.7 219.127C360.686 255.477 330.202 312.367 271.612 346.195C213.021 380.022 148.51 377.977 127.523 341.627C106.537 305.277 137.021 248.386 195.612 214.559ZM196.112 215.425C166.951 232.261 144.827 254.813 132.607 277.619C120.378 300.441 118.132 323.361 128.389 341.127C138.646 358.892 159.619 368.408 185.497 369.228C211.358 370.048 241.951 362.164 271.112 345.329C300.272 328.493 322.396 305.94 334.616 283.135C346.845 260.313 349.091 237.393 338.834 219.627C328.577 201.861 307.604 192.346 281.726 191.525C255.865 190.706 225.272 198.589 196.112 215.425Z" fill="#B1C4D4"/>
<path fill-rule="evenodd" clip-rule="evenodd" d="M187.612 200.703C253.855 162.457 328.151 167.124 353.556 211.127C378.961 255.13 345.855 321.805 279.612 360.051C213.368 398.297 139.072 393.63 113.667 349.627C88.2619 305.624 121.368 238.948 187.612 200.703ZM188.112 201.569C155.136 220.607 130.449 246.7 117.167 273.451C103.881 300.209 102.051 327.507 114.533 349.127C127.016 370.747 151.571 382.811 181.388 384.684C211.195 386.557 246.136 378.223 279.112 359.185C312.087 340.147 336.774 314.054 350.056 287.303C363.342 260.545 365.173 233.247 352.69 211.627C340.208 190.007 315.652 177.943 285.835 176.07C256.028 174.197 221.087 182.53 188.112 201.569Z" fill="#B1C4D4"/>
<path fill-rule="evenodd" clip-rule="evenodd" d="M179.612 186.846C253.508 144.182 337.589 151.471 367.412 203.127C397.236 254.782 361.508 331.244 287.612 373.908C213.715 416.572 129.634 409.282 99.8106 357.627C69.9872 305.971 105.715 229.51 179.612 186.846ZM180.112 187.712C143.319 208.954 116.067 238.59 101.722 269.288C87.3765 299.989 85.9732 331.66 100.677 357.127C115.38 382.594 143.509 397.214 177.27 400.141C211.028 403.067 250.319 394.284 287.112 373.042C323.904 351.799 351.156 322.164 365.501 291.466C379.847 260.764 381.25 229.094 366.546 203.627C351.843 178.16 323.714 163.54 289.953 160.613C256.195 157.687 216.904 166.47 180.112 187.712Z" fill="#B1C4D4"/>
<path fill-rule="evenodd" clip-rule="evenodd" d="M171.612 172.99C253.16 125.907 347.027 135.819 381.269 195.127C415.51 254.435 377.16 340.682 295.612 387.764C214.063 434.846 120.196 424.935 85.9542 365.627C51.7126 306.319 90.0626 220.072 171.612 172.99ZM172.112 173.856C131.5 197.303 101.681 230.483 86.2753 265.13C70.8687 299.779 69.8988 335.818 86.8202 365.127C103.742 394.436 135.438 411.615 173.147 415.597C210.856 419.579 254.5 410.345 295.112 386.898C335.723 363.451 365.542 330.271 380.948 295.623C396.354 260.975 397.324 224.936 380.403 195.627C363.481 166.318 331.785 149.138 294.076 145.157C256.367 141.175 212.723 150.409 172.112 173.856Z" fill="#B1C4D4"/>
<path fill-rule="evenodd" clip-rule="evenodd" d="M163.612 159.133C252.813 107.633 356.465 120.166 395.125 187.127C433.785 254.088 392.813 350.12 303.612 401.62C214.41 453.121 110.758 440.588 72.0978 373.627C33.4379 306.666 74.4099 210.634 163.612 159.133ZM164.112 159.999C119.68 185.652 87.294 222.377 70.826 260.975C54.3584 299.573 53.8264 339.98 72.9638 373.127C92.1013 406.274 127.361 426.017 169.021 431.054C210.682 436.092 258.68 426.407 303.112 400.754C347.543 375.102 379.929 338.377 396.397 299.779C412.865 261.181 413.397 220.774 394.259 187.627C375.122 154.48 339.862 134.737 298.202 129.7C256.541 124.662 208.543 134.347 164.112 159.999Z" fill="#B1C4D4"/>
<path fill-rule="evenodd" clip-rule="evenodd" d="M155.612 145.277C252.466 89.3581 365.903 104.513 408.982 179.127C452.06 253.741 408.466 359.558 311.612 415.477C214.757 471.396 101.32 456.241 58.2414 381.627C15.1632 307.013 58.7573 201.196 155.612 145.277ZM156.112 146.143C59.5119 201.915 16.4188 307.188 59.1074 381.127C101.796 455.066 214.512 470.383 311.112 414.611C407.711 358.839 450.804 253.566 408.116 179.627C365.427 105.688 252.711 90.3712 156.112 146.143Z" fill="#B1C4D4"/>
<path fill-rule="evenodd" clip-rule="evenodd" d="M147.612 131.421C252.118 71.0834 375.342 88.8605 422.838 171.127C470.335 253.393 424.118 368.996 319.612 429.333C215.105 489.67 91.8815 471.893 44.385 389.627C-3.1115 307.361 43.1046 191.758 147.612 131.421ZM148.112 132.287C43.8783 192.466 -1.86447 307.52 45.251 389.127C92.3665 470.733 214.878 488.646 319.112 428.467C423.345 368.288 469.088 253.233 421.972 171.627C374.857 90.0205 252.345 72.1075 148.112 132.287Z" fill="#B1C4D4"/>
<path fill-rule="evenodd" clip-rule="evenodd" d="M139.612 117.564C251.771 52.8087 384.78 73.2079 436.694 163.127C488.609 253.046 439.771 378.434 327.612 443.19C215.452 507.945 82.4433 487.546 30.5286 397.627C-21.3862 307.708 27.4519 182.319 139.612 117.564ZM140.112 118.43C28.2418 183.018 -20.1465 307.855 31.3946 397.127C82.9357 486.399 215.242 506.912 327.112 442.324C438.981 377.736 487.37 252.899 435.828 163.627C384.287 74.355 251.981 53.8421 140.112 118.43Z" fill="#B1C4D4"/>
<path fill-rule="evenodd" clip-rule="evenodd" d="M131.612 103.708C251.424 34.534 394.218 57.5552 450.551 155.127C506.884 252.699 455.424 387.872 335.612 457.046C215.799 526.22 73.0052 503.199 16.6722 405.627C-39.6609 308.055 11.7992 172.881 131.612 103.708ZM132.112 104.574C12.6028 173.572 -38.4276 308.191 17.5382 405.127C73.504 502.063 215.603 525.178 335.112 456.18C454.62 387.182 505.651 252.563 449.685 155.627C393.719 58.6912 251.62 35.5753 132.112 104.574Z" fill="#B1C4D4"/>
<path fill-rule="evenodd" clip-rule="evenodd" d="M123.612 89.8513C251.077 16.2593 403.656 41.9025 464.407 147.127C525.159 252.351 471.077 397.311 343.612 470.902C216.147 544.494 63.5671 518.851 2.81577 413.627C-57.9356 308.402 -3.85345 163.443 123.612 89.8513ZM124.112 90.7173C-3.03794 164.127 -56.708 308.529 3.68179 413.127C64.0715 517.725 215.962 543.446 343.112 470.036C470.261 396.627 523.931 252.225 463.541 147.627C403.152 43.0288 251.261 17.3075 124.112 90.7173Z" fill="#B1C4D4"/>
<path fill-rule="evenodd" clip-rule="evenodd" d="M115.612 75.9949C250.729 -2.01534 413.094 26.2498 478.264 139.127C543.433 252.004 486.729 406.749 351.612 484.759C216.494 562.769 54.129 534.504 -11.0406 421.627C-76.2102 308.75 -19.5061 154.005 115.612 75.9949ZM116.112 76.8609C-18.6802 154.683 -74.9876 308.867 -10.1746 421.127C54.6384 533.386 216.32 561.715 351.112 483.893C485.903 406.071 542.211 251.886 477.398 139.627C412.585 27.3674 250.903 -0.961151 116.112 76.8609Z" fill="#B1C4D4"/>
<path fill-rule="evenodd" clip-rule="evenodd" d="M107.612 62.1385C250.382 -20.29 422.532 10.5971 492.12 131.127C561.708 251.657 502.382 416.187 359.612 498.615C216.841 581.044 44.6908 550.157 -24.897 429.627C-94.4849 309.097 -35.1588 144.567 107.612 62.1385ZM108.112 63.0045C-34.3238 145.24 -93.2667 309.207 -24.031 429.127C45.2047 549.047 216.676 579.984 359.112 497.749C501.547 415.514 560.49 251.547 491.254 131.627C422.018 11.7071 250.547 -19.2305 108.112 63.0045Z" fill="#B1C4D4"/>
<path fill-rule="evenodd" clip-rule="evenodd" d="M99.6115 48.2821C250.035 -38.5647 431.97 -5.05554 505.977 123.127C579.983 251.309 518.035 425.625 367.612 512.472C217.189 599.318 35.2527 565.809 -38.7535 437.627C-112.76 309.444 -50.8115 135.129 99.6115 48.2821ZM100.112 49.1481C-49.9683 135.797 -111.545 309.547 -37.8874 437.127C35.7706 564.706 217.032 598.254 367.112 511.606C517.191 424.957 578.768 251.206 505.11 123.627C431.452 -3.95248 250.191 -37.5006 100.112 49.1481Z" fill="#B1C4D4"/>
</svg>
